<svg width="60" height="60" viewBox="0 0 60 60" fill="none" xmlns="http://www.w3.org/2000/svg">
<path d="M47.8485 0C41.1481 0 35.6969 5.45121 35.6969 12.1516C35.6969 18.8521 41.1481 24.3033 47.8485 24.3033C54.549 24.3033 60.0001 18.852 60.0001 12.1516C60.0001 5.45133 54.5489 0 47.8485 0ZM47.8485 22.5454C42.1174 22.5454 37.4547 17.8827 37.4547 12.1515C37.4547 6.42035 42.1174 1.75781 47.8485 1.75781C53.5797 1.75781 58.2423 6.42047 58.2423 12.1516C58.2423 17.8828 53.5796 22.5454 47.8485 22.5454Z" fill="#971F1A"/>
<path d="M5.51538 32.8178C5.51538 20.8709 15.2349 11.1514 27.1818 11.1514C29.0329 11.1514 30.8743 11.3863 32.655 11.8498C33.125 11.972 33.6046 11.6903 33.7269 11.2206C33.8491 10.7508 33.5675 10.2709 33.0977 10.1487C31.1726 9.64762 29.1822 9.39355 27.1818 9.39355C14.2657 9.39355 3.75757 19.9016 3.75757 32.8178C3.75757 45.734 14.2657 56.2421 27.1818 56.2421C40.098 56.2421 50.6061 45.734 50.6061 32.8178C50.6061 30.8174 50.352 28.8271 49.8509 26.902C49.7286 26.4321 49.2486 26.1504 48.779 26.2728C48.3092 26.395 48.0275 26.875 48.1498 27.3447C48.6133 29.1253 48.8483 30.9667 48.8483 32.8178C48.8483 44.7647 39.1287 54.4843 27.1818 54.4843C15.2349 54.4843 5.51538 44.7647 5.51538 32.8178Z" fill="#971F1A"/>
<path d="M52.4712 25.5196C52.0004 25.6382 51.7151 26.1159 51.8337 26.5866C52.346 28.62 52.6058 30.7167 52.6058 32.8185C52.6058 39.6095 49.9613 45.994 45.1594 50.796C40.3574 55.598 33.9728 58.2425 27.1819 58.2425C20.391 58.2425 14.0064 55.598 9.20438 50.796C4.40238 45.994 1.75781 39.6095 1.75781 32.8185C1.75781 26.0275 4.40238 19.643 9.20426 14.841C14.0063 10.039 20.3907 7.39441 27.1818 7.39441C29.2836 7.39441 31.3804 7.65422 33.4138 8.16668C33.8848 8.28516 34.3622 7.9998 34.4808 7.52918C34.5994 7.05844 34.314 6.58078 33.8433 6.46219C31.6696 5.91445 29.4284 5.63672 27.1818 5.63672C19.9212 5.63672 13.0952 8.4641 7.96125 13.5981C2.82738 18.7321 0 25.558 0 32.8185C0 40.0789 2.82738 46.905 7.96137 52.039C13.0954 57.173 19.9213 60.0004 27.1819 60.0004C34.4425 60.0004 41.2684 57.173 46.4024 52.039C51.5364 46.905 54.3638 40.0791 54.3638 32.8185C54.3638 30.572 54.086 28.3307 53.5383 26.157C53.4196 25.6863 52.9419 25.4011 52.4712 25.5196Z" fill="#971F1A"/>
<path d="M28.0608 51.6063V49.7275C28.0608 49.2421 27.6673 48.8486 27.1819 48.8486C26.6965 48.8486 26.303 49.2421 26.303 49.7275V51.6063C26.303 52.0917 26.6965 52.4852 27.1819 52.4852C27.6673 52.4852 28.0608 52.0917 28.0608 51.6063Z" fill="#971F1A"/>
<path d="M11.1517 32.8184C11.1517 32.333 10.7582 31.9395 10.2728 31.9395H8.39404C7.90865 31.9395 7.51514 32.333 7.51514 32.8184C7.51514 33.3038 7.90865 33.6973 8.39404 33.6973H10.2728C10.7582 33.6973 11.1517 33.3038 11.1517 32.8184Z" fill="#971F1A"/>
<path d="M12.9777 23.6022L11.3507 22.6629C10.9304 22.4201 10.3928 22.5642 10.1501 22.9845C9.90743 23.4049 10.0514 23.9424 10.4718 24.1851L12.0988 25.1245C12.2372 25.2044 12.3884 25.2424 12.5375 25.2424C12.8412 25.2424 13.1366 25.0848 13.2994 24.8028C13.5421 24.3825 13.3981 23.8449 12.9777 23.6022Z" fill="#971F1A"/>
<path d="M41.0644 40.8332C40.8217 41.2536 40.9658 41.7911 41.3861 42.0338L43.0131 42.9732C43.1515 43.0531 43.3027 43.0911 43.4518 43.0911C43.7555 43.0911 44.051 42.9334 44.2137 42.6515C44.4564 42.2311 44.3124 41.6936 43.892 41.4509L42.265 40.5115C41.8445 40.2687 41.307 40.4127 41.0644 40.8332Z" fill="#971F1A"/>
<path d="M19.1668 46.701C18.7463 46.4582 18.2089 46.6022 17.9662 47.0227L17.0268 48.6497C16.7841 49.07 16.9282 49.6076 17.3485 49.8503C17.4869 49.9302 17.6381 49.9682 17.7871 49.9682C18.0909 49.9682 18.3863 49.8106 18.5491 49.5286L19.4885 47.9016C19.7312 47.4812 19.5871 46.9437 19.1668 46.701Z" fill="#971F1A"/>
<path d="M10.912 43.091C11.061 43.091 11.2122 43.053 11.3506 42.9731L12.9776 42.0337C13.398 41.791 13.542 41.2535 13.2993 40.8332C13.0566 40.4127 12.5189 40.2688 12.0987 40.5115L10.4717 41.4508C10.0513 41.6935 9.9073 42.2311 10.15 42.6514C10.3128 42.9334 10.6082 43.091 10.912 43.091Z" fill="#971F1A"/>
<path d="M36.5765 49.9681C36.7256 49.9681 36.8768 49.9301 37.0152 49.8502C37.4355 49.6075 37.5796 49.07 37.3369 48.6496L36.3975 47.0226C36.1547 46.6021 35.6171 46.4582 35.1969 46.7009C34.7765 46.9436 34.6325 47.4812 34.8752 47.9015L35.8146 49.5285C35.9774 49.8105 36.2728 49.9681 36.5765 49.9681Z" fill="#971F1A"/>
<path d="M19.4885 17.7346L18.5491 16.1076C18.3063 15.6871 17.7687 15.5432 17.3485 15.7859C16.9282 16.0286 16.7841 16.5661 17.0268 16.9865L17.9662 18.6135C18.129 18.8955 18.4244 19.0531 18.7282 19.0531C18.8772 19.0531 19.0284 19.0151 19.1668 18.9352C19.5871 18.6925 19.7312 18.1551 19.4885 17.7346Z" fill="#971F1A"/>
<path d="M39.3941 24.7528L29.0044 30.7513C28.732 30.5109 28.4122 30.3237 28.0608 30.2052V19.667C28.0608 19.1816 27.6672 18.7881 27.1819 18.7881C26.6965 18.7881 26.3029 19.1816 26.3029 19.667V30.2052C25.2122 30.573 24.4242 31.6051 24.4242 32.8185C24.4242 34.3391 25.6613 35.5761 27.1819 35.5761C28.7024 35.5761 29.9395 34.339 29.9395 32.8185C29.9395 32.6317 29.9206 32.4491 29.885 32.2726L40.273 26.2752C40.6933 26.0325 40.8374 25.495 40.5947 25.0746C40.352 24.654 39.8144 24.5102 39.3941 24.7528ZM27.1819 33.8183C26.6305 33.8183 26.182 33.3697 26.182 32.8185C26.182 32.2672 26.6306 31.8186 27.1819 31.8186C27.7331 31.8186 28.1817 32.2672 28.1817 32.8185C28.1817 33.3697 27.7331 33.8183 27.1819 33.8183Z" fill="#971F1A"/>
<path d="M44.1424 6.4707H41.9818C41.4964 6.4707 41.1029 6.86422 41.1029 7.34961C41.1029 7.835 41.4964 8.22852 41.9818 8.22852H43.2635V17.4579C43.2635 17.9432 43.657 18.3368 44.1424 18.3368C44.6278 18.3368 45.0213 17.9432 45.0213 17.4579V7.34961C45.0213 6.86422 44.6278 6.4707 44.1424 6.4707Z" fill="#971F1A"/>
<path d="M50.6884 6.4707C48.6552 6.4707 47.0011 8.1248 47.0011 10.158V14.6493C47.0011 16.6825 48.6552 18.3366 50.6884 18.3366C52.7216 18.3366 54.3757 16.6825 54.3757 14.6493V10.158C54.3757 8.1248 52.7216 6.4707 50.6884 6.4707ZM52.6179 14.6493C52.6179 15.7133 51.7523 16.5788 50.6884 16.5788C49.6245 16.5788 48.7589 15.7133 48.7589 14.6493V10.158C48.7589 9.09406 49.6245 8.22852 50.6884 8.22852C51.7523 8.22852 52.6179 9.09406 52.6179 10.158V14.6493Z" fill="#971F1A"/>
<path d="M45.9697 33.6973C46.4551 33.6973 46.8486 33.3038 46.8486 32.8184C46.8486 32.333 46.4551 31.9395 45.9697 31.9395H44.0908C43.6054 31.9395 43.2119 32.333 43.2119 32.8184C43.2119 33.3038 43.6054 33.6973 44.0908 33.6973H45.9697Z" fill="#971F1A"/>
<path d="M27.1819 13.1328V13.1511C26.6965 13.1511 26.303 13.5446 26.303 14.03V15.9087C26.303 16.3941 26.6965 16.7877 27.1819 16.7877C27.6673 16.7877 28.0608 16.3941 28.0608 15.9087V14.9127C29.6943 14.9915 31.2988 15.2895 32.8422 15.8033C32.9343 15.8339 33.0278 15.8485 33.1199 15.8485C33.488 15.8485 33.8311 15.6154 33.9537 15.247C34.107 14.7864 33.8579 14.2887 33.3973 14.1355C31.3986 13.4702 29.3074 13.1328 27.1819 13.1328Z" fill="#971F1A"/>
</svg>
