<svg width="55" height="60" viewBox="0 0 55 60" fill="none" xmlns="http://www.w3.org/2000/svg">
<path d="M21.8324 60.0001H21.8237C21.6366 60.0006 21.4566 59.9289 21.3211 59.7999C21.1856 59.6708 21.1052 59.4945 21.0966 59.3076C21.088 59.1208 21.1518 58.9378 21.2749 58.7969C21.3979 58.6559 21.5706 58.5679 21.7569 58.5512C21.8052 58.5467 21.8538 58.5467 21.9021 58.5512C22.0874 58.5692 22.2588 58.6577 22.3807 58.7984C22.5026 58.9392 22.5658 59.1214 22.5572 59.3074C22.5485 59.4934 22.4688 59.669 22.3343 59.7979C22.1998 59.9267 22.021 59.9989 21.8348 59.9996L21.8324 60.0001Z" fill="#971F1A"/>
<path d="M21.828 59.9999C18.8729 59.9931 15.9487 59.3974 13.2264 58.2474C10.5042 57.0974 8.03851 55.4163 5.97352 53.3023C4.00933 51.3101 2.46832 48.9413 1.44316 46.3383C0.418 43.7353 -0.070132 40.9518 0.00811779 38.1553C0.278635 28.6896 9.24586 15.2393 16.7231 5.62309C17.3256 4.84337 18.0994 4.21264 18.9846 3.77965C19.8697 3.34667 20.8426 3.12303 21.828 3.12601C22.8134 3.12295 23.7862 3.34657 24.6713 3.77956C25.5565 4.21255 26.3301 4.84332 26.9325 5.62309C34.4102 15.2393 43.3774 28.6896 43.648 38.1553C43.7262 40.9518 43.2381 43.7353 42.2129 46.3383C41.1878 48.9413 39.6467 51.3101 37.6826 53.3023C35.6176 55.4163 33.1519 57.0974 30.4296 58.2474C27.7074 59.3974 24.7832 59.9931 21.828 59.9999ZM21.828 4.5778C21.0639 4.57518 20.3093 4.7484 19.6228 5.08406C18.9363 5.41972 18.3362 5.90882 17.869 6.51352C11.8591 14.2467 1.73236 28.6446 1.45894 38.1969C1.3871 40.7993 1.84227 43.3893 2.79707 45.8113C3.75186 48.2332 5.18657 50.4371 7.01494 52.2904C8.9406 54.2703 11.2436 55.8441 13.7879 56.9188C16.3322 57.9934 19.0661 58.5471 21.828 58.5471C24.59 58.5471 27.3239 57.9934 29.8682 56.9188C32.4124 55.8441 34.7155 54.2703 36.6411 52.2904C38.4695 50.4371 39.9042 48.2332 40.859 45.8113C41.8138 43.3893 42.269 40.7993 42.1971 38.1969C41.9237 28.6446 31.797 14.2467 25.7866 6.51449C25.3195 5.90965 24.7196 5.42038 24.0331 5.08455C23.3467 4.74872 22.5922 4.57533 21.828 4.5778Z" fill="#971F1A"/>
<path d="M29.1959 42.9613C28.4453 42.9631 27.7019 42.8163 27.0083 42.5295C26.3147 42.2428 25.6847 41.8216 25.1546 41.2903C24.6138 40.7515 24.1898 40.1072 23.9089 39.3974C23.628 38.6876 23.4962 37.9277 23.5218 37.1648C23.5511 36.3037 23.7549 35.4576 24.1209 34.6776C24.4869 33.8977 25.0075 33.2002 25.6511 32.6274C27.8336 30.6656 31.2502 29.6271 34.7896 29.8424C35.2588 29.8712 35.7013 30.0702 36.0341 30.4021C36.3669 30.734 36.5671 31.176 36.5971 31.645C36.8391 35.5208 35.6094 39.1305 33.3132 41.3009C32.2043 42.3617 30.7304 42.9561 29.1959 42.9613ZM33.8537 31.2652C31.0067 31.2652 28.349 32.1527 26.6194 33.7071C26.1231 34.1479 25.7214 34.6848 25.4386 35.2854C25.1558 35.886 24.9978 36.5377 24.9741 37.201C24.9545 37.7667 25.0515 38.3302 25.2589 38.8568C25.4664 39.3834 25.7799 39.8616 26.18 40.2619C27.0013 41.0624 28.1036 41.5089 29.2504 41.5058C30.3972 41.5026 31.497 41.05 32.3138 40.245C34.2979 38.3668 35.3597 35.185 35.1463 31.7336C35.1385 31.618 35.0887 31.5091 35.0064 31.4275C34.9241 31.3459 34.8148 31.2971 34.6991 31.2903C34.4162 31.2735 34.1344 31.2652 33.8537 31.2652Z" fill="#971F1A"/>
<path d="M21.8279 32.6894C21.0655 32.6892 20.3113 32.5323 19.612 32.2286C18.9128 31.9248 18.2834 31.4806 17.7629 30.9235C17.175 30.2945 16.7209 29.5528 16.4279 28.7432C16.135 27.9336 16.0093 27.073 16.0585 26.2134C16.2153 23.2832 17.8945 20.1314 20.5518 17.7819C20.9041 17.4711 21.3576 17.2994 21.8274 17.2988C22.2972 17.2983 22.7511 17.469 23.104 17.779C26.0144 20.3506 27.699 23.7706 27.6094 26.9287C27.592 28.4533 26.9776 29.9103 25.898 30.9869C24.8184 32.0636 23.3598 32.6741 21.8352 32.6875H21.8279V32.6894ZM21.8279 18.7493C21.7109 18.7492 21.598 18.7921 21.5105 18.8698C19.1392 20.9667 17.6419 23.741 17.5055 26.2909C17.4662 26.9534 17.5618 27.6169 17.7864 28.2415C18.011 28.866 18.3599 29.4384 18.8121 29.9242C19.1979 30.3382 19.6647 30.6684 20.1835 30.8944C20.7023 31.1203 21.262 31.2371 21.8279 31.2376C22.9747 31.2228 24.0699 30.7591 24.8786 29.9459C25.6873 29.1327 26.1449 28.0348 26.1533 26.888C26.2307 24.1553 24.7291 21.1569 22.1367 18.8669C22.0513 18.7918 21.9416 18.75 21.8279 18.7493Z" fill="#971F1A"/>
<path d="M14.4601 42.9612C12.9269 42.9551 11.4545 42.3608 10.3467 41.3008C8.04851 39.1304 6.82126 35.5193 7.06081 31.6449C7.09082 31.1759 7.29102 30.7339 7.62382 30.402C7.95662 30.0701 8.39914 29.8711 8.86829 29.8423C12.4097 29.6274 15.8243 30.665 18.0068 32.6268C18.65 33.1999 19.1702 33.8976 19.5359 34.6776C19.9015 35.4576 20.1051 36.3037 20.1342 37.1647C20.1602 37.9277 20.0288 38.6878 19.7482 39.3979C19.4677 40.1079 19.0439 40.7525 18.5033 41.2916C17.9729 41.8229 17.3425 42.244 16.6486 42.5305C15.9546 42.817 15.2109 42.9634 14.4601 42.9612ZM9.80276 31.2651C9.52208 31.2651 9.24011 31.2738 8.95685 31.2912C8.84113 31.298 8.73187 31.3468 8.64955 31.4284C8.56723 31.51 8.51751 31.6188 8.5097 31.7345C8.29628 35.1859 9.35561 38.3677 11.3421 40.2458C12.1589 41.0508 13.2588 41.5035 14.4056 41.5067C15.5524 41.5098 16.6547 41.0632 17.476 40.2628C17.8763 39.8624 18.1899 39.384 18.3975 38.8573C18.605 38.3306 18.702 37.7668 18.6824 37.201C18.6585 36.5375 18.5004 35.8858 18.2176 35.2852C17.9348 34.6846 17.5332 34.1475 17.037 33.7065C15.307 32.1526 12.6487 31.2651 9.80276 31.2651Z" fill="#971F1A"/>
<path d="M44.7241 9.79097C44.5047 9.79131 44.2873 9.74836 44.0844 9.66457C43.8815 9.58078 43.6972 9.45781 43.5419 9.30268L43.0807 8.84101C42.9446 8.70477 42.8682 8.52004 42.8683 8.32746C42.8684 8.13488 42.945 7.95022 43.0812 7.81411C43.2174 7.678 43.4022 7.60159 43.5948 7.60168C43.7873 7.60177 43.972 7.67836 44.1081 7.8146L44.5688 8.27627C44.588 8.29555 44.6109 8.31085 44.6361 8.32129C44.6612 8.33173 44.6882 8.33711 44.7154 8.33711C44.7427 8.33711 44.7697 8.33173 44.7948 8.32129C44.82 8.31085 44.8428 8.29555 44.8621 8.27627L47.7995 5.62094C47.9424 5.49183 48.1308 5.42477 48.3231 5.43453C48.5155 5.44428 48.6961 5.53005 48.8252 5.67297C48.9543 5.81588 49.0214 6.00423 49.0116 6.19658C49.0019 6.38894 48.9161 6.56954 48.7732 6.69865L45.8619 9.32785C45.7121 9.47615 45.5344 9.5934 45.3392 9.67287C45.144 9.75235 44.9349 9.79248 44.7241 9.79097Z" fill="#971F1A"/>
<path d="M43.3048 15.8176C42.7651 15.8169 42.2317 15.7011 41.7403 15.4779C41.2488 15.2548 40.8106 14.9294 40.4549 14.5235C40.0992 14.1176 39.834 13.6405 39.6772 13.1241C39.5205 12.6077 39.4756 12.0637 39.5456 11.5286C39.5492 11.5073 39.5453 11.4855 39.5345 11.4669C39.5237 11.4482 39.5068 11.4339 39.4866 11.4264C38.7922 11.1415 38.1981 10.6569 37.7794 10.034C37.3608 9.41111 37.1365 8.67793 37.1349 7.92741C37.1333 7.17688 37.3546 6.44279 37.7707 5.81814C38.1868 5.1935 38.7789 4.70643 39.4721 4.41866C39.492 4.41103 39.5087 4.39676 39.5194 4.37825C39.5301 4.35974 39.534 4.33812 39.5306 4.31703C39.4296 3.5734 39.5516 2.81653 39.8812 2.14231C40.2107 1.46809 40.733 0.906862 41.3818 0.529727C42.0306 0.152592 42.7768 -0.0234743 43.5257 0.0238338C44.2747 0.0711419 44.9927 0.339696 45.5889 0.795471C45.6056 0.808864 45.6263 0.816164 45.6477 0.816164C45.6691 0.816164 45.6899 0.808864 45.7065 0.795471C46.2998 0.335213 47.0165 0.0615564 47.7655 0.00921954C48.5146 -0.0431173 49.2623 0.128224 49.9138 0.501507C50.5654 0.874789 51.0914 1.43319 51.425 2.10586C51.7587 2.77854 51.8851 3.53517 51.7881 4.27977C51.7848 4.30084 51.7889 4.32239 51.7997 4.34081C51.8104 4.35923 51.8272 4.37338 51.8471 4.38091C52.543 4.66318 53.1392 5.14627 53.5595 5.76862C53.9798 6.39097 54.2053 7.12438 54.2072 7.87537V7.91118C54.2085 8.6621 53.9861 9.39638 53.5684 10.0204C53.1508 10.6445 52.5568 11.1301 51.8621 11.4153C51.8422 11.4231 51.8256 11.4375 51.815 11.4561C51.8045 11.4747 51.8006 11.4963 51.804 11.5174C51.9038 12.2616 51.7804 13.0187 51.4493 13.6926C51.1182 14.3665 50.5945 14.927 49.9444 15.3028C49.2944 15.6787 48.5474 15.853 47.7982 15.8037C47.0489 15.7544 46.3312 15.4837 45.736 15.0259C45.7196 15.0123 45.6989 15.0049 45.6775 15.0049C45.6561 15.0049 45.6354 15.0123 45.6189 15.0259C44.9563 15.5385 44.1425 15.8169 43.3048 15.8176ZM43.2864 1.46475C42.9525 1.46514 42.6225 1.53696 42.3186 1.67538C42.0148 1.8138 41.744 2.01562 41.5245 2.2673C41.3051 2.51898 41.142 2.81468 41.0463 3.13458C40.9505 3.45447 40.9243 3.79114 40.9693 4.12201C41.0147 4.46003 40.9473 4.80359 40.7774 5.09936C40.6076 5.39512 40.3449 5.62654 40.03 5.75769C39.6019 5.93504 39.2361 6.23558 38.979 6.62117C38.722 7.00677 38.5853 7.46003 38.5863 7.92345C38.5872 8.38687 38.7259 8.83955 38.9846 9.22405C39.2433 9.60855 39.6103 9.90753 40.0392 10.0831C40.3551 10.213 40.6191 10.4437 40.7902 10.7393C40.9613 11.0348 41.0299 11.3787 40.9853 11.7173C40.9246 12.1767 41.0017 12.6437 41.2069 13.0592C41.4121 13.4747 41.736 13.8199 42.1377 14.0509C42.5393 14.282 43.0005 14.3886 43.4628 14.3571C43.9252 14.3256 44.3677 14.1575 44.7343 13.8742C45.0049 13.6662 45.3367 13.5534 45.678 13.5534C46.0193 13.5534 46.351 13.6662 46.6216 13.8742C46.989 14.1567 47.4319 14.3237 47.8943 14.3541C48.3567 14.3845 48.8177 14.2769 49.2189 14.0449C49.62 13.8129 49.9433 13.467 50.1475 13.051C50.3518 12.6351 50.4279 12.1679 50.3663 11.7086C50.3212 11.3702 50.3892 11.0265 50.5597 10.7308C50.7302 10.435 50.9936 10.2039 51.309 10.0734C51.7377 9.8973 52.1044 9.59762 52.3622 9.21248C52.6201 8.82734 52.7575 8.37418 52.7569 7.91069V7.87779C52.7553 7.41473 52.6158 6.96264 52.3563 6.57912C52.0968 6.19561 51.729 5.89803 51.2998 5.7243C50.9837 5.5951 50.7191 5.36505 50.5473 5.06992C50.3755 4.7748 50.3061 4.43116 50.3498 4.09249C50.4096 3.63299 50.3315 3.16611 50.1255 2.75107C49.9194 2.33604 49.5948 1.99154 49.1927 1.7613C48.7906 1.53106 48.3291 1.42544 47.8669 1.45786C47.4047 1.49027 46.9625 1.65925 46.5965 1.94335C46.3266 2.15224 45.9952 2.2661 45.6539 2.26724C45.3126 2.26838 44.9805 2.15673 44.7091 1.94964C44.3012 1.63587 43.8011 1.46543 43.2864 1.46475Z" fill="#971F1A"/>
<path d="M30.4758 35.982C30.3696 35.8216 30.204 35.7099 30.0154 35.6715C29.8268 35.6331 29.6307 35.6712 29.4702 35.7773C26.9939 37.4139 24.326 39.3158 22.5539 41.7834V25.8538C22.5539 25.6613 22.4774 25.4767 22.3413 25.3405C22.2051 25.2044 22.0205 25.1279 21.828 25.1279C21.6355 25.1279 21.4508 25.2044 21.3147 25.3405C21.1786 25.4767 21.1021 25.6613 21.1021 25.8538V41.7708C19.3299 39.309 16.6664 37.411 14.1945 35.7773C14.1151 35.7207 14.0252 35.6806 13.9301 35.6595C13.8349 35.6384 13.7365 35.6367 13.6407 35.6545C13.5448 35.6722 13.4536 35.7091 13.3723 35.7629C13.291 35.8167 13.2214 35.8863 13.1676 35.9675C13.1138 36.0488 13.0769 36.1401 13.0592 36.2359C13.0414 36.3317 13.0431 36.4301 13.0642 36.5253C13.0853 36.6204 13.1253 36.7104 13.1819 36.7897C13.2385 36.8691 13.3105 36.9362 13.3936 36.9871C15.5771 38.4302 17.9149 39.836 19.5472 41.7379C20.558 42.9287 21.1095 44.4418 21.1021 46.0037V52.71C21.1021 52.9025 21.1786 53.0872 21.3147 53.2233C21.4508 53.3594 21.6355 53.4359 21.828 53.4359C22.0205 53.4359 22.2051 53.3594 22.3413 53.2233C22.4774 53.0872 22.5539 52.9025 22.5539 52.71V46.0139C22.5464 44.4552 23.0956 42.9451 24.1025 41.7553C25.7352 39.8457 28.0804 38.4346 30.2697 36.9876C30.4303 36.8816 30.5423 36.7161 30.581 36.5275C30.6197 36.3389 30.5818 36.1427 30.4758 35.982Z" fill="#971F1A"/>
</svg>
