<svg width="74" height="70" viewBox="0 0 74 70" fill="none" xmlns="http://www.w3.org/2000/svg">
<path d="M38.9927 27.4875C34.2802 27.4875 32.1178 26.075 29.6053 24.45C28.5678 23.775 27.4803 23.075 26.0803 22.3625C21.6678 20.1375 14.7553 22.4125 14.6928 22.4375C14.2678 22.575 13.8053 22.4875 13.4678 22.1875C13.1303 21.8875 12.9803 21.4375 13.0803 21C16.0053 7.06249 23.9053 0 36.5177 0C45.6802 0 52.5927 5.9125 52.5927 13.7375C52.5927 21.5625 46.4927 27.475 38.9927 27.475V27.4875ZM21.2178 18.875C23.2178 18.875 25.3428 19.1875 27.1928 20.125C28.7178 20.9 29.9053 21.675 30.9553 22.35C33.3927 23.9375 35.0052 24.9875 38.9802 24.9875C45.1052 24.9875 50.0802 19.9375 50.0802 13.7375C50.0802 7.53749 44.2427 2.4875 36.5052 2.4875C25.8428 2.4875 18.9428 8.19999 15.9678 19.475C17.3303 19.175 19.2053 18.8625 21.2053 18.8625L21.2178 18.875Z" fill="#A40005"/>
<path d="M58.7559 21.2375C58.4434 21.2375 58.1309 21.125 57.8934 20.8875C43.8934 7.37505 31.0809 14.2625 30.9559 14.3375C30.3559 14.675 29.5934 14.4625 29.2559 13.85C28.9184 13.25 29.1309 12.4875 29.7434 12.15C29.8809 12.075 44.3184 4.30005 59.6309 19.0875C60.1309 19.5625 60.1434 20.3625 59.6559 20.85C59.4059 21.1 59.0809 21.2375 58.7559 21.2375Z" fill="#A40005"/>
<path d="M22.5054 70C14.2929 70 7.86787 66.025 3.34287 58.1C-1.23212 50.0875 0.380377 41.0875 7.08037 37.1751C10.2179 35.3376 13.8679 34.8501 17.3679 35.7876C20.8929 36.7376 23.8429 39.0125 25.6679 42.2C28.0179 46.325 27.8929 48.9125 27.7554 51.925C27.6929 53.175 27.6304 54.475 27.7304 56.0625C28.0304 61.05 33.4429 65.975 33.4929 66.025C33.8179 66.325 33.9679 66.775 33.8804 67.2125C33.7929 67.65 33.4679 68 33.0429 68.1375C29.2554 69.375 25.7429 70 22.4929 70H22.5054ZM13.8679 37.8125C11.9429 37.8125 10.0429 38.325 8.34287 39.325C2.85538 42.5375 1.63038 50.075 5.51787 56.8625C10.8429 66.2 19.1804 69.3875 30.3179 66.3625C28.4429 64.3 25.4929 60.4 25.2429 56.2125C25.1429 54.4875 25.2054 53.0625 25.2679 51.8C25.4054 48.8625 25.4929 46.925 23.5054 43.4375C22.0179 40.825 19.6054 38.9626 16.7304 38.2001C15.7804 37.9501 14.8304 37.825 13.8679 37.825V37.8125Z" fill="#A40005"/>
<path d="M17.78 58.1371C17.555 58.1371 17.33 58.0746 17.13 57.9496C16.9925 57.8621 3.14248 49.1121 8.14247 28.3246C8.30497 27.6496 8.97997 27.2371 9.65497 27.3996C10.33 27.5621 10.7425 28.2371 10.58 28.9121C6.00497 47.9496 18.3175 55.7371 18.4425 55.8121C19.03 56.1746 19.2175 56.9371 18.855 57.5246C18.6175 57.9121 18.205 58.1246 17.7925 58.1246L17.78 58.1371Z" fill="#A40005"/>
<path d="M56.0682 66.9501C53.8932 66.9501 51.7682 66.3876 49.8807 65.2876C43.3932 61.5001 41.1557 53.0751 44.9057 46.5251C47.2557 42.4001 49.5432 41.2126 52.1932 39.8251C53.2932 39.2501 54.4432 38.6501 55.7557 37.7751C59.8807 35.0251 61.3807 27.8126 61.4057 27.7501C61.4932 27.3126 61.8182 26.9501 62.2432 26.8126C62.6682 26.6751 63.1432 26.7751 63.4682 27.0751C73.9057 36.6126 76.0057 47.0501 69.7057 58.0876C67.2432 62.4001 63.6057 65.3876 59.4682 66.5001C58.3432 66.8001 57.2057 66.9501 56.0807 66.9501H56.0682ZM63.2682 30.3626C62.4307 33.0376 60.5807 37.5501 57.1307 39.8626C55.7057 40.8126 54.4557 41.4626 53.3432 42.0501C50.7682 43.3876 49.0557 44.2876 47.0682 47.7626C44.0057 53.1376 45.8307 60.0251 51.1307 63.1376C53.4432 64.4876 56.1057 64.8251 58.8057 64.1001C62.3057 63.1626 65.3932 60.5876 67.5307 56.8626C72.8557 47.5251 71.4307 38.6251 63.2807 30.3751L63.2682 30.3626Z" fill="#A40005"/>
<path d="M41.4435 68.825C40.906 68.825 40.406 68.475 40.2435 67.925C40.0435 67.2625 40.431 66.5625 41.081 66.375C59.581 60.9 60.156 46.6375 60.1685 46.0375C60.181 45.3625 60.7435 44.8125 61.4185 44.8125H61.4435C62.131 44.825 62.681 45.4 62.6685 46.0875C62.6685 46.25 62.0935 62.75 41.7935 68.775C41.681 68.8125 41.556 68.825 41.4435 68.825Z" fill="#A40005"/>
</svg>
