<svg width="51" height="64" viewBox="0 0 51 64" fill="none" xmlns="http://www.w3.org/2000/svg">
<path d="M1.70312 57.4314L17.4503 62.4214V24.2762L1.70312 19.2861V57.4314Z" stroke="#971F1A" stroke-width="3" stroke-linecap="round" stroke-linejoin="round"/>
<path d="M33.1973 57.4323L48.9445 62.4223V24.2771L42.3774 22.1973" stroke="#971F1A" stroke-width="3" stroke-linecap="round" stroke-linejoin="round"/>
<path d="M22.6926 22.6162L17.4512 24.277V62.4223L33.1984 57.4322V34.0286" stroke="#971F1A" stroke-width="3" stroke-linecap="round" stroke-linejoin="round"/>
<path d="M22.897 11.752C22.9628 9.59945 23.7488 7.53118 25.1292 5.87823C26.2796 4.42903 27.8452 3.3658 29.6164 2.83087C30.7969 2.45695 32.0432 2.33751 33.2732 2.48043C35.0858 2.6135 36.8219 3.26538 38.2741 4.35824C39.7263 5.45111 40.8333 6.93879 41.463 8.6437C41.9495 9.81836 42.1806 11.0831 42.141 12.3539C42.1151 13.7858 41.7273 15.188 41.0135 16.4297C38.7128 20.4928 36.4095 24.556 34.1036 28.6191C33.9894 28.8248 33.8751 29.0305 33.7532 29.2286C33.6161 29.4335 33.4314 29.602 33.2149 29.7198C32.9983 29.8376 32.7564 29.9011 32.51 29.9048C32.2635 29.9086 32.0198 29.8525 31.7998 29.7413C31.5798 29.6302 31.39 29.4673 31.2468 29.2667C30.7592 28.5048 30.3173 27.743 29.8754 26.9202C28.1283 23.8729 26.3913 20.8255 24.6645 17.7781C24.1423 16.9308 23.7083 16.0323 23.3693 15.0965C23.0319 14.0146 22.8724 12.885 22.897 11.752ZM32.5114 16.8563C33.4633 16.8503 34.3921 16.5622 35.1804 16.0285C35.9686 15.4948 36.581 14.7393 36.9401 13.8577C37.2991 12.9761 37.3888 12.0078 37.1977 11.0752C37.0067 10.1426 36.5434 9.28761 35.8666 8.61822C35.1897 7.94882 34.3296 7.49509 33.395 7.31435C32.4604 7.13362 31.4931 7.23399 30.6155 7.6028C29.7379 7.9716 28.9893 8.59227 28.4644 9.38639C27.9394 10.1805 27.6616 11.1124 27.6661 12.0644C27.6671 12.6979 27.7935 13.3249 28.038 13.9094C28.2825 14.4938 28.6403 15.024 29.0907 15.4695C29.5411 15.915 30.0753 16.2669 30.6624 16.5049C31.2495 16.7429 31.8779 16.8624 32.5114 16.8563Z" stroke="#971F1A" stroke-width="3" stroke-linecap="round" stroke-linejoin="round"/>
</svg>
