<svg width="50" height="42" viewBox="0 0 50 42" fill="none" xmlns="http://www.w3.org/2000/svg">
<path d="M20.9968 18.8784H39.7131C39.8712 18.8784 40.0229 18.8155 40.1348 18.7037C40.2466 18.5918 40.3095 18.4401 40.3095 18.282C40.3095 18.1238 40.2466 17.9721 40.1348 17.8602C40.0229 17.7484 39.8712 17.6855 39.7131 17.6855H20.9968C20.8386 17.6855 20.6869 17.7484 20.5751 17.8602C20.4632 17.9721 20.4004 18.1238 20.4004 18.282C20.4004 18.4401 20.4632 18.5918 20.5751 18.7037C20.6869 18.8155 20.8386 18.8784 20.9968 18.8784Z" fill="#971F1A"/>
<path d="M20.9968 23.0278H39.7131C39.8712 23.0278 40.0229 22.9649 40.1348 22.8531C40.2466 22.7413 40.3095 22.5896 40.3095 22.4314C40.3095 22.2732 40.2466 22.1215 40.1348 22.0096C40.0229 21.8978 39.8712 21.835 39.7131 21.835H20.9968C20.8386 21.835 20.6869 21.8978 20.5751 22.0096C20.4632 22.1215 20.4004 22.2732 20.4004 22.4314C20.4004 22.5896 20.4632 22.7413 20.5751 22.8531C20.6869 22.9649 20.8386 23.0278 20.9968 23.0278Z" fill="#971F1A"/>
<path d="M40.3095 26.5808C40.3095 26.4226 40.2466 26.2709 40.1348 26.1591C40.0229 26.0472 39.8712 25.9844 39.7131 25.9844H20.9968C20.8386 25.9844 20.6869 26.0472 20.5751 26.1591C20.4632 26.2709 20.4004 26.4226 20.4004 26.5808C20.4004 26.739 20.4632 26.8907 20.5751 27.0025C20.6869 27.1144 20.8386 27.1772 20.9968 27.1772H39.7131C39.8712 27.1772 40.0229 27.1144 40.1348 27.0025C40.2466 26.8907 40.3095 26.739 40.3095 26.5808Z" fill="#971F1A"/>
<path d="M26.3476 13.2369H26.9356V13.8222C26.9356 14.3811 27.1576 14.9171 27.5529 15.3123C27.9481 15.7075 28.4841 15.9295 29.043 15.9295H31.6735C32.2324 15.9295 32.7684 15.7075 33.1636 15.3123C33.5588 14.9171 33.7809 14.3811 33.7809 13.8222V13.2369H34.3661C34.925 13.2369 35.4611 13.0149 35.8563 12.6197C36.2515 12.2245 36.4735 11.6885 36.4735 11.1296V8.49699C36.4735 7.93809 36.2515 7.40208 35.8563 7.00688C35.4611 6.61168 34.925 6.38966 34.3661 6.38966H33.7789V5.80557C33.7789 5.24667 33.5569 4.71067 33.1617 4.31547C32.7665 3.92026 32.2304 3.69824 31.6715 3.69824H29.0422C28.4833 3.69824 27.9473 3.92026 27.5521 4.31547C27.1569 4.71067 26.9348 5.24667 26.9348 5.80557V6.39085H26.3476C25.7887 6.39085 25.2527 6.61287 24.8575 7.00807C24.4623 7.40327 24.2402 7.93928 24.2402 8.49818V11.1319C24.2409 11.6904 24.4632 12.2258 24.8583 12.6205C25.2534 13.0152 25.7891 13.2369 26.3476 13.2369ZM25.4331 8.49699C25.4331 8.25445 25.5294 8.02184 25.7009 7.85034C25.8724 7.67884 26.105 7.58249 26.3476 7.58249H27.5197C27.5997 7.58249 27.6789 7.56673 27.7528 7.53611C27.8266 7.50549 27.8938 7.46062 27.9503 7.40405C28.0068 7.34748 28.0517 7.28033 28.0822 7.20643C28.1128 7.13252 28.1285 7.05332 28.1285 6.97335V5.80438C28.1285 5.56184 28.2248 5.32923 28.3963 5.15773C28.5678 4.98623 28.8004 4.88988 29.043 4.88988H31.6735C31.9161 4.88988 32.1487 4.98623 32.3202 5.15773C32.4917 5.32923 32.588 5.56184 32.588 5.80438V6.97335C32.588 7.13483 32.6522 7.28971 32.7663 7.40393C32.8805 7.51816 33.0353 7.58238 33.1968 7.58249H34.3661C34.6087 7.58249 34.8413 7.67884 35.0128 7.85034C35.1843 8.02184 35.2806 8.25445 35.2806 8.49699V11.1307C35.2806 11.3733 35.1843 11.6059 35.0128 11.7774C34.8413 11.9489 34.6087 12.0453 34.3661 12.0453H33.1948C33.0334 12.0454 32.8786 12.1095 32.7645 12.2237C32.6503 12.3378 32.5862 12.4926 32.586 12.654V13.8234C32.586 14.0659 32.4897 14.2985 32.3182 14.47C32.1467 14.6415 31.9141 14.7379 31.6715 14.7379H29.0422C28.7996 14.7379 28.567 14.6415 28.3955 14.47C28.224 14.2985 28.1277 14.0659 28.1277 13.8234V12.6528C28.1277 12.4914 28.0635 12.3365 27.9494 12.2224C27.8352 12.1082 27.6804 12.0441 27.5189 12.0441H26.3476C26.105 12.0441 25.8724 11.9477 25.7009 11.7762C25.5294 11.6047 25.4331 11.3721 25.4331 11.1296V8.49699Z" fill="#971F1A"/>
<path d="M46.4849 28.0068V2.18571C46.4844 1.70279 46.2923 1.2398 45.9508 0.898329C45.6093 0.556855 45.1464 0.364784 44.6634 0.364258H1.82105C1.3382 0.364889 0.875318 0.557007 0.53393 0.898469C0.192542 1.23993 0.000526024 1.70286 0 2.18571V34.6143C0.000631222 35.0971 0.192694 35.5599 0.53407 35.9013C0.875447 36.2427 1.33827 36.4347 1.82105 36.4354H35.6115C35.9604 37.5736 36.5804 38.6102 37.4183 39.4561C38.2561 40.3019 39.2867 40.9318 40.4217 41.2915C41.5566 41.6512 42.7619 41.7301 43.934 41.5214C45.1061 41.3126 46.21 40.8225 47.151 40.093C48.0919 39.3636 48.8417 38.4167 49.336 37.3336C49.8303 36.2505 50.0544 35.0636 49.9889 33.8748C49.9233 32.686 49.5703 31.5309 48.9599 30.5087C48.3496 29.4865 47.5003 28.6277 46.4849 28.006V28.0068ZM7.90845 1.55709H14.7473V6.27233C14.4236 6.27784 14.1012 6.22988 13.7931 6.13039L13.634 6.06478C13.2726 5.88123 12.9495 5.63035 12.6821 5.32562C12.509 5.14061 12.2996 4.9932 12.067 4.89258C11.8345 4.79196 11.5837 4.74027 11.3303 4.74074C11.0768 4.74016 10.826 4.79179 10.5934 4.89242C10.3608 4.99304 10.1515 5.14051 9.9784 5.32562C9.71681 5.62421 9.40182 5.87138 9.04958 6.05444L8.89054 6.12124C8.57433 6.22671 8.24253 6.2778 7.90924 6.27233L7.90845 1.55709ZM6.97526 8.13752C6.97216 8.04838 6.98772 7.95958 7.02092 7.8768C7.05413 7.79402 7.10426 7.71909 7.1681 7.65681C7.23064 7.59343 7.30556 7.5436 7.38819 7.51043C7.47083 7.47725 7.5594 7.46143 7.64841 7.46397C8.21586 7.49634 8.78418 7.41773 9.32155 7.23256L9.5287 7.14588C10.0307 6.89814 10.4801 6.5556 10.8519 6.13715C10.9786 6.01089 11.1502 5.93999 11.3291 5.93999C11.5079 5.93999 11.6795 6.01089 11.8062 6.13715C12.1842 6.56154 12.6418 6.90775 13.1529 7.15622L13.3609 7.2417C13.891 7.42079 14.4507 7.49624 15.0093 7.46397C15.0986 7.46017 15.1876 7.4754 15.2705 7.50865C15.3533 7.5419 15.4282 7.5924 15.4901 7.65681C15.5538 7.71907 15.604 7.79393 15.6372 7.87662C15.6705 7.95932 15.6862 8.04803 15.6833 8.13712C15.6503 8.70447 15.7289 9.27278 15.9147 9.80986L16.001 10.0174C16.2489 10.5193 16.5914 10.9686 17.0097 11.3407C17.0739 11.4022 17.125 11.4761 17.1599 11.558C17.1948 11.6398 17.2128 11.7278 17.2128 11.8168C17.2128 11.9058 17.1948 11.9938 17.1599 12.0756C17.125 12.1574 17.0739 12.2314 17.0097 12.2929C16.5912 12.6653 16.2484 13.1148 16.0002 13.617L15.9899 13.6408L15.9052 13.8472C15.7254 14.3775 15.6499 14.9375 15.6829 15.4965C15.6858 15.5856 15.6701 15.6744 15.6369 15.7572C15.6036 15.8399 15.5535 15.9149 15.4897 15.9772C15.4162 16.051 15.3262 16.1065 15.2272 16.139C15.2209 16.139 15.2149 16.143 15.2082 16.1446C15.1439 16.1648 15.0766 16.1735 15.0093 16.17C14.4419 16.1377 13.8736 16.2163 13.3362 16.4014L13.1295 16.4881C12.6268 16.7364 12.1769 17.0796 11.8046 17.4988C11.743 17.5633 11.669 17.6147 11.587 17.6498C11.505 17.6849 11.4167 17.703 11.3275 17.703C11.2383 17.703 11.15 17.6849 11.068 17.6498C10.986 17.6147 10.912 17.5633 10.8504 17.4988C10.4724 17.0743 10.0149 16.7279 9.50365 16.4794L9.2965 16.3939C8.83749 16.236 8.35443 16.1594 7.86908 16.1676C7.79592 16.1676 7.72236 16.1676 7.64722 16.1716C7.55801 16.1736 7.46932 16.1575 7.38653 16.1242C7.30374 16.0909 7.22857 16.0412 7.16559 15.978C7.1026 15.9148 7.05311 15.8394 7.02012 15.7565C6.98713 15.6736 6.97133 15.5849 6.97367 15.4957C7.00574 14.9293 6.92714 14.362 6.74226 13.8257L6.65598 13.6186C6.40788 13.1164 6.06524 12.6669 5.64684 12.2945C5.58248 12.233 5.53125 12.1592 5.49625 12.0773C5.46125 11.9955 5.4432 11.9074 5.4432 11.8184C5.4432 11.7294 5.46125 11.6413 5.49625 11.5595C5.53125 11.4776 5.58248 11.4037 5.64684 11.3422C6.07149 10.964 6.41797 10.5062 6.66671 9.99475L6.7514 9.78879C6.93131 9.25783 7.00731 8.69721 6.97526 8.13752ZM14.7473 17.362V26.6915C14.7479 26.7308 14.7376 26.7694 14.7177 26.8032C14.6978 26.837 14.669 26.8647 14.6344 26.8832C14.6001 26.9029 14.5611 26.9129 14.5216 26.912C14.4821 26.9112 14.4436 26.8996 14.4102 26.8784L12.4897 25.7055C12.1399 25.4915 11.7378 25.3782 11.3277 25.3782C10.9176 25.3782 10.5155 25.4915 10.1657 25.7055L8.24442 26.8788C8.21104 26.8993 8.17282 26.9105 8.13367 26.9113C8.09453 26.9121 8.05588 26.9025 8.02168 26.8834C7.98748 26.8644 7.95897 26.8365 7.93907 26.8028C7.91917 26.7691 7.9086 26.7307 7.90845 26.6915V17.3617C8.23297 17.3559 8.55621 17.4039 8.86509 17.5036L9.02414 17.5692C9.38588 17.7525 9.70914 18.0034 9.97641 18.3084C10.1495 18.4935 10.3589 18.6409 10.5914 18.7416C10.824 18.8422 11.0749 18.8938 11.3283 18.8932C11.5817 18.8937 11.8326 18.842 12.0651 18.7413C12.2977 18.6406 12.5071 18.4931 12.6802 18.308C12.9411 18.009 13.2557 17.7615 13.6078 17.5784L13.7668 17.5115C14.0829 17.4068 14.4144 17.3563 14.7473 17.362ZM35.3574 35.2425H1.82105C1.6545 35.2423 1.49483 35.1761 1.37706 35.0583C1.25929 34.9405 1.19304 34.7809 1.19283 34.6143V2.18571C1.19293 2.01909 1.25914 1.85932 1.37692 1.74146C1.4947 1.62361 1.65443 1.5573 1.82105 1.55709H6.71562V6.52481C6.42108 6.68678 6.1777 6.92786 6.01294 7.22084C5.84818 7.51382 5.76862 7.84703 5.78323 8.18284C5.80944 8.57939 5.76129 8.97734 5.64128 9.35619L5.57647 9.51523C5.39254 9.87667 5.14157 10.1998 4.83692 10.4675C4.65229 10.6407 4.50514 10.8499 4.40455 11.0823C4.30396 11.3146 4.25206 11.565 4.25206 11.8182C4.25206 12.0713 4.30396 12.3218 4.40455 12.5541C4.50514 12.7864 4.65229 12.9957 4.83692 13.1689C5.1355 13.4302 5.38256 13.7451 5.56534 14.0973L5.63213 14.2563C5.7584 14.6417 5.80969 15.0477 5.78323 15.4523C5.76821 15.7881 5.84761 16.1214 6.01242 16.4143C6.17722 16.7072 6.42084 16.9481 6.71562 17.1096V26.6919C6.71385 26.9435 6.78013 27.1909 6.90745 27.4079C7.03477 27.6249 7.21839 27.8034 7.43887 27.9245C7.65736 28.0491 7.90544 28.1123 8.15689 28.1076C8.40835 28.1028 8.65386 28.0302 8.86748 27.8975L10.7859 26.7234C10.9488 26.6237 11.136 26.5709 11.3269 26.5709C11.5178 26.5709 11.705 26.6237 11.8678 26.7234L13.7891 27.8963C14.0034 28.0273 14.2487 28.0989 14.4998 28.1038C14.7509 28.1086 14.9988 28.0465 15.218 27.9238C15.4371 27.8012 15.6197 27.6224 15.7469 27.4058C15.8741 27.1892 15.9413 26.9427 15.9417 26.6915V17.1092C16.2367 16.9478 16.4806 16.7069 16.6455 16.4139C16.8105 16.1209 16.8899 15.7875 16.8749 15.4515C16.8485 15.0552 16.8966 14.6575 17.0169 14.279L17.0873 14.1088C17.2704 13.7515 17.5194 13.4321 17.8212 13.1673C18.0058 12.994 18.1528 12.7848 18.2533 12.5525C18.3539 12.3202 18.4057 12.0697 18.4057 11.8166C18.4057 11.5635 18.3539 11.313 18.2533 11.0807C18.1528 10.8484 18.0058 10.6392 17.8212 10.4659C17.5216 10.205 17.2734 9.89037 17.0892 9.53829L17.0228 9.37925C16.8964 8.99407 16.8451 8.58817 16.8717 8.18364C16.88 7.93056 16.8362 7.67848 16.7429 7.44306C16.6497 7.20763 16.5091 6.99388 16.3298 6.81507C16.2129 6.70162 16.0813 6.60439 15.9386 6.52601V1.55709H44.6618C44.8285 1.55719 44.9884 1.62345 45.1062 1.74132C45.2241 1.85919 45.2904 2.01902 45.2905 2.18571V27.414C44.1 26.9435 42.8069 26.7935 41.5403 26.9792C40.2738 27.1648 39.0781 27.6795 38.0727 28.4719C37.0674 29.2642 36.2875 30.3065 35.811 31.4946C35.3345 32.6827 35.1781 33.9751 35.3574 35.2425ZM42.6448 40.4385C41.4252 40.4384 40.2331 40.0767 39.2192 39.3991C38.2052 38.7215 37.4149 37.7585 36.9483 36.6318C36.4817 35.505 36.3596 34.2653 36.5976 33.0692C36.8355 31.8731 37.4228 30.7744 38.2852 29.9121C39.1476 29.0498 40.2463 28.4626 41.4424 28.2247C42.6385 27.9868 43.8782 28.1089 45.0049 28.5756C46.1316 29.0424 47.0946 29.8327 47.7721 30.8467C48.4497 31.8607 48.8113 33.0528 48.8113 34.2724C48.8094 35.9072 48.1591 37.4745 47.003 38.6305C45.847 39.7865 44.2796 40.4367 42.6448 40.4385Z" fill="#971F1A"/>
<path d="M47.3118 31.5149C47.2593 31.4568 47.1958 31.4096 47.125 31.376C47.0543 31.3424 46.9776 31.3231 46.8993 31.3191C46.8211 31.3152 46.7428 31.3267 46.669 31.353C46.5953 31.3793 46.5274 31.4198 46.4693 31.4724L42.3377 35.2059C42.2022 35.3409 42.0187 35.4167 41.8274 35.4167C41.6361 35.4167 41.4526 35.3409 41.317 35.2059L40.6677 34.5562C40.5559 34.4444 40.4042 34.3815 40.246 34.3814C40.0878 34.3814 39.9361 34.4442 39.8242 34.556C39.7123 34.6679 39.6495 34.8196 39.6494 34.9778C39.6494 35.136 39.7122 35.2877 39.824 35.3996L40.4749 36.0505C40.6537 36.2291 40.866 36.3707 41.0996 36.4672C41.3332 36.5637 41.5836 36.6131 41.8363 36.6127C42.0818 36.614 42.3251 36.5668 42.5523 36.4739C42.7795 36.381 42.9862 36.2441 43.1604 36.0711L47.2681 32.3575C47.3263 32.305 47.3736 32.2416 47.4073 32.1709C47.441 32.1002 47.4604 32.0235 47.4645 31.9453C47.4685 31.867 47.4571 31.7887 47.4309 31.7149C47.4047 31.6411 47.3643 31.5731 47.3118 31.5149Z" fill="#971F1A"/>
<path d="M35.2777 30.0508H24.3581C24.2 30.0508 24.0483 30.1136 23.9364 30.2255C23.8246 30.3373 23.7617 30.489 23.7617 30.6472C23.7617 30.8054 23.8246 30.9571 23.9364 31.0689C24.0483 31.1808 24.2 31.2436 24.3581 31.2436H35.2777C35.4359 31.2436 35.5876 31.1808 35.6994 31.0689C35.8113 30.9571 35.8741 30.8054 35.8741 30.6472C35.8741 30.489 35.8113 30.3373 35.6994 30.2255C35.5876 30.1136 35.4359 30.0508 35.2777 30.0508Z" fill="#971F1A"/>
</svg>
