<svg width="64" height="64" viewBox="0 0 64 64" fill="none" xmlns="http://www.w3.org/2000/svg">
<path d="M19.5865 44.8789C17.007 42.2891 14.8986 39.2694 13.3562 35.9555C12.7178 34.8401 12.7691 34.1576 13.503 33.4458C14.2368 32.734 16.6952 30.3857 17.8032 29.5491C18.9113 28.7125 18.6765 27.964 18.2362 26.9293C17.7959 25.8946 14.6844 20.4056 14.046 19.2828C13.4076 18.16 13.0774 17.4188 12.5783 17.1547C12.0793 16.8905 9.78244 17.0299 7.15531 18.138C4.52819 19.2461 2.1946 24.0894 2.12855 26.2102C2.06251 28.331 1.39472 30.349 5.79772 39.8448C7.75839 43.9003 10.4529 47.5577 13.7451 50.6322L13.8479 50.7349C16.9254 54.0237 20.5821 56.7177 24.6352 58.6823C34.131 63.0853 36.1491 62.4102 38.2699 62.3515C40.3906 62.2928 45.2266 59.9518 46.342 57.3247C47.4575 54.6976 47.5822 52.3934 47.318 51.8944C47.0538 51.3953 46.3053 51.0725 45.1899 50.4267C44.0745 49.7809 38.5854 46.6841 37.5434 46.2438C36.5013 45.8035 35.7601 45.5687 34.9236 46.6768C34.087 47.7849 31.7461 50.2432 31.0343 50.9771C30.3224 51.7109 29.64 51.7623 28.5245 51.1238C25.204 49.5791 22.179 47.4656 19.5865 44.8789Z" stroke="#971F1A" stroke-width="3" stroke-linecap="round" stroke-linejoin="round"/>
<path d="M36.1209 33.1886L28.3056 35.5295L30.6905 27.8389C28.6761 24.6569 27.816 20.8794 28.2542 17.1389C28.6924 13.3984 30.4022 9.92195 33.0975 7.2916C36.292 4.16974 40.5814 2.42188 45.048 2.42188C49.5146 2.42187 53.804 4.16974 56.9985 7.2916C58.5645 8.82435 59.8088 10.6544 60.6583 12.6744C61.5077 14.6944 61.9453 16.8636 61.9453 19.055C61.9453 21.2463 61.5077 23.4155 60.6583 25.4355C59.8088 27.4555 58.5645 29.2855 56.9985 30.8183C54.2758 33.4761 50.7455 35.1512 46.9648 35.5791C43.1842 36.007 39.3687 35.1633 36.1209 33.1812V33.1886Z" stroke="#971F1A" stroke-width="3" stroke-linecap="round" stroke-linejoin="round"/>
<path d="M51.4274 13.0664H38.3945" stroke="#971F1A" stroke-width="3" stroke-linecap="round" stroke-linejoin="round"/>
<path d="M51.4274 19.1729H38.3945" stroke="#971F1A" stroke-width="3" stroke-linecap="round" stroke-linejoin="round"/>
<path d="M51.4274 25.2783H38.3945" stroke="#971F1A" stroke-width="3" stroke-linecap="round" stroke-linejoin="round"/>
</svg>
