<svg width="80" height="81" viewBox="0 0 80 81" fill="none" xmlns="http://www.w3.org/2000/svg">
<path d="M30.0007 47.5829C30.0007 43.9061 27.0106 40.916 23.3339 40.916H16.6671C12.9903 40.916 10.0002 43.9061 10.0002 47.5829C4.48677 47.5829 0 52.0696 0 57.5831V70.9168C0 76.4302 4.48677 80.917 10.0002 80.917H30.0007C35.5142 80.917 40.0009 76.4302 40.0009 70.9168V57.5831C40.0009 52.0696 35.5142 47.5829 30.0007 47.5829ZM16.6671 44.2495H23.3339C25.1706 44.2495 26.6673 45.7428 26.6673 47.5829H13.3336C13.3336 45.7428 14.8303 44.2495 16.6671 44.2495ZM10.0002 50.9163H30.0007C33.6775 50.9163 36.6675 53.9064 36.6675 57.5831V60.9165H3.33341V57.5831C3.33341 53.9064 6.32348 50.9163 10.0002 50.9163ZM30.0007 77.5836H10.0002C6.32348 77.5836 3.33341 74.5935 3.33341 70.9168V64.2499H18.3338V69.25C18.3338 70.1701 19.0805 70.9168 20.0005 70.9168C20.9205 70.9168 21.6672 70.1701 21.6672 69.25V64.2499H36.6675V70.9168C36.6675 74.5935 33.6775 77.5836 30.0007 77.5836ZM61.6681 34.2492C62.5881 34.2492 63.3348 33.5025 63.3348 32.5825V21.9456L77.8285 14.6954C79.1919 13.7587 80.0019 12.1687 80.0019 10.442C80.0019 8.71529 79.1885 7.12525 77.8285 6.18856C77.7452 6.13189 68.1849 1.84513 68.1849 1.84513C67.5516 1.55845 66.9016 1.31845 66.2482 1.12177C64.7882 0.681764 63.2482 0.958437 62.0115 1.87846C60.7514 2.81181 59.9981 4.30518 59.9981 5.86522V32.5859C59.9981 33.5059 60.7448 34.2526 61.6648 34.2526L61.6681 34.2492ZM63.3348 5.86189C63.3348 5.35187 63.5848 4.85853 64.0015 4.54852C64.1715 4.42185 64.4782 4.24518 64.8782 4.24518C65.0082 4.24518 65.1482 4.26518 65.2949 4.31185C65.8149 4.46519 76.0418 9.00529 76.0418 9.00529C76.4385 9.32864 76.6718 9.85531 76.6718 10.4387C76.6718 11.0687 76.3985 11.632 76.1418 11.8287L63.3382 18.2188L63.3348 5.86189ZM80.0019 62.5832C80.0019 69.0167 74.7684 74.2502 68.3349 74.2502H48.3345C47.4145 74.2502 46.6678 73.5035 46.6678 72.5835C46.6678 71.6634 47.4145 70.9168 48.3345 70.9168H68.3349C72.9284 70.9168 76.6685 67.18 76.6685 62.5832C76.6685 57.9865 72.9284 54.2497 68.3349 54.2497H51.6679C45.2344 54.2497 40.0009 49.0162 40.0009 42.5828C40.0009 36.1493 45.2344 30.9158 51.6679 30.9158C52.5879 30.9158 53.3346 31.6625 53.3346 32.5825C53.3346 33.5025 52.5879 34.2492 51.6679 34.2492C47.0744 34.2492 43.3344 37.986 43.3344 42.5828C43.3344 47.1795 47.0744 50.9163 51.6679 50.9163H68.3349C74.7684 50.9163 80.0019 56.1497 80.0019 62.5832Z" fill="#971F1A"/>
</svg>
