<svg width="81" height="81" viewBox="0 0 81 81" fill="none" xmlns="http://www.w3.org/2000/svg">
<path d="M79.272 20.8037C79.072 20.8803 78.8687 20.917 78.6654 20.917C77.9987 20.917 77.3687 20.5137 77.112 19.857L71.932 6.58033C60.1354 34.407 36.7654 52.687 2.38536 60.8703C2.25536 60.9037 2.12536 60.917 1.9987 60.917C1.24536 60.917 0.562031 60.4037 0.378698 59.637C0.165365 58.7403 0.718698 57.8403 1.61536 57.627C35.122 49.6503 57.8054 31.8537 69.0954 4.75366L55.1187 10.207C54.2687 10.5437 53.2954 10.117 52.962 9.26033C52.6287 8.40366 53.052 7.43699 53.9087 7.10366L68.572 1.38033C69.7087 0.936992 70.9487 0.956992 72.0687 1.45033C73.1887 1.94366 74.052 2.84033 74.4954 3.98033L80.2187 18.647C80.5554 19.5037 80.1287 20.4703 79.272 20.8037ZM71.9987 27.5837C71.0787 27.5837 70.332 28.3303 70.332 29.2503V79.2503C70.332 80.1703 71.0787 80.917 71.9987 80.917C72.9187 80.917 73.6654 80.1703 73.6654 79.2503V29.2503C73.6654 28.3303 72.9187 27.5837 71.9987 27.5837ZM55.332 44.2503C54.412 44.2503 53.6654 44.997 53.6654 45.917V79.2503C53.6654 80.1703 54.412 80.917 55.332 80.917C56.252 80.917 56.9987 80.1703 56.9987 79.2503V45.917C56.9987 44.997 56.252 44.2503 55.332 44.2503ZM21.9987 60.917C21.0787 60.917 20.332 61.6637 20.332 62.5837V79.2503C20.332 80.1703 21.0787 80.917 21.9987 80.917C22.9187 80.917 23.6654 80.1703 23.6654 79.2503V62.5837C23.6654 61.6637 22.9187 60.917 21.9987 60.917ZM5.33203 67.5837C4.41203 67.5837 3.66536 68.3303 3.66536 69.2503V79.2503C3.66536 80.1703 4.41203 80.917 5.33203 80.917C6.25203 80.917 6.9987 80.1703 6.9987 79.2503V69.2503C6.9987 68.3303 6.25203 67.5837 5.33203 67.5837ZM38.6654 54.2503C37.7454 54.2503 36.9987 54.997 36.9987 55.917V79.2503C36.9987 80.1703 37.7454 80.917 38.6654 80.917C39.5854 80.917 40.332 80.1703 40.332 79.2503V55.917C40.332 54.997 39.5854 54.2503 38.6654 54.2503ZM0.332031 20.917C0.332031 9.88699 9.30203 0.916992 20.332 0.916992C31.362 0.916992 40.332 9.88699 40.332 20.917C40.332 31.947 31.362 40.917 20.332 40.917C9.30203 40.917 0.332031 31.947 0.332031 20.917ZM20.332 37.5837C22.722 37.5837 24.9854 37.057 27.0454 36.147C27.0354 36.0703 26.9987 36.0003 26.9987 35.917V34.2503C26.9987 30.5737 24.0087 27.5837 20.332 27.5837C16.6554 27.5837 13.6654 30.5737 13.6654 34.2503V35.917C13.6654 35.997 13.632 36.067 13.6187 36.147C15.6754 37.057 17.9387 37.5837 20.332 37.5837ZM3.66536 20.917C3.66536 26.3437 6.31203 31.127 10.3387 34.1703C10.382 28.6937 14.842 24.2503 20.332 24.2503C25.822 24.2503 30.282 28.6937 30.3254 34.1703C34.352 31.1237 36.9987 26.3437 36.9987 20.917C36.9987 11.727 29.522 4.25033 20.332 4.25033C11.142 4.25033 3.66536 11.727 3.66536 20.917ZM13.6654 14.2503C13.6654 10.5737 16.6554 7.58366 20.332 7.58366C24.0087 7.58366 26.9987 10.5737 26.9987 14.2503C26.9987 17.927 24.0087 20.917 20.332 20.917C16.6554 20.917 13.6654 17.927 13.6654 14.2503ZM16.9987 14.2503C16.9987 16.0903 18.4954 17.5837 20.332 17.5837C22.1687 17.5837 23.6654 16.0903 23.6654 14.2503C23.6654 12.4103 22.1687 10.917 20.332 10.917C18.4954 10.917 16.9987 12.4103 16.9987 14.2503Z" fill="#971F1A"/>
</svg>
