<svg width="55" height="56" viewBox="0 0 55 56" fill="none" xmlns="http://www.w3.org/2000/svg">
<path d="M53.5764 24.2422C52.9329 23.6539 52.0853 23.3397 51.2138 23.3664C50.3423 23.393 49.5156 23.7585 48.9093 24.3851C48.897 24.3976 48.8855 24.4108 48.8747 24.4246L44.2777 30.0485C44.2163 30.1292 44.1291 30.1864 44.0307 30.2106C43.9323 30.2348 43.8285 30.2246 43.7367 30.1817C43.6426 30.1454 43.564 30.0776 43.5144 29.9897C43.4649 29.9018 43.4474 29.7995 43.4651 29.7002C43.5951 28.8183 48.4952 12.7466 49.8005 9.11273C50.0611 8.38595 50.0223 7.58542 49.6926 6.88724C49.363 6.18907 48.7695 5.65043 48.0428 5.38983C47.316 5.12923 46.5155 5.16801 45.8173 5.49765C45.1191 5.82728 44.5805 6.42076 44.3199 7.14754C43.1824 10.315 39.8374 17.9614 38.8375 20.2293C38.8202 20.2677 38.7895 20.2984 38.7511 20.3158C38.7128 20.3332 38.6694 20.336 38.6291 20.3237C38.5888 20.3114 38.5544 20.2849 38.5323 20.249C38.5102 20.2132 38.502 20.1705 38.5091 20.129C39.0092 17.3179 40.7064 7.80926 41.5532 3.47413C41.6278 3.09871 41.627 2.71219 41.5508 2.33708C41.4747 1.96197 41.3246 1.60578 41.1093 1.28925C40.895 0.971413 40.62 0.699016 40.3001 0.487676C39.9802 0.276337 39.6218 0.130212 39.2453 0.0576796C38.4918 -0.0891484 37.7107 0.06861 37.0732 0.496412C36.4357 0.924213 35.9937 1.5872 35.844 2.34019L32.3725 18.7536C32.3646 18.7934 32.3412 18.8284 32.3075 18.851C32.2739 18.8736 32.2326 18.882 32.1928 18.8743C32.155 18.8677 32.121 18.8474 32.0973 18.8172C32.0737 18.7871 32.062 18.7492 32.0645 18.711L33.0449 3.44395C33.1107 2.67646 32.8697 1.91416 32.3745 1.32406C31.8794 0.733957 31.1706 0.364164 30.4033 0.295695C29.6361 0.227225 28.873 0.465662 28.2812 0.958769C27.6894 1.45188 27.3172 2.15945 27.2461 2.92646C27.2172 3.25178 27.1822 3.62946 27.1431 4.04442C26.5498 4.12548 25.996 4.38749 25.557 4.79475C25.1181 5.20202 24.8154 5.73472 24.6902 6.32028C24.6458 6.53774 24.5912 6.77696 24.5322 7.03037C24.2686 6.63979 23.9137 6.31948 23.4982 6.09726C23.0827 5.87505 22.6192 5.75767 22.148 5.75531H22.1267C21.848 5.75693 21.571 5.79894 21.3043 5.88002C21.3563 4.81487 21.4055 3.84737 21.4508 3.05473C21.4883 2.28861 21.2221 1.53864 20.7099 0.967659C20.1977 0.396682 19.481 0.0508143 18.7153 0.00516637C17.9497 -0.0404815 17.1969 0.217777 16.6205 0.723856C16.0441 1.22993 15.6907 1.94297 15.6369 2.70811L14.4324 19.4397C14.432 19.4601 14.4274 19.4801 14.4189 19.4985C14.4104 19.517 14.3982 19.5335 14.3831 19.5471C14.3679 19.5606 14.3501 19.5709 14.3308 19.5772C14.3115 19.5836 14.2911 19.5859 14.2708 19.584C14.2325 19.5826 14.196 19.5671 14.1684 19.5403C14.1409 19.5136 14.1242 19.4776 14.1217 19.4393L13.018 4.18156C13.008 3.79405 12.9208 3.41243 12.7613 3.0591C12.6019 2.70577 12.3735 2.38784 12.0895 2.12396C11.8056 1.86009 11.4718 1.65559 11.1077 1.52246C10.7437 1.38933 10.3567 1.33025 9.96948 1.34869C9.58229 1.36714 9.20267 1.46273 8.85292 1.62986C8.50316 1.79699 8.19031 2.0323 7.93272 2.32197C7.67513 2.61164 7.47798 2.94984 7.35286 3.31672C7.22773 3.68361 7.17715 4.07179 7.20407 4.45849C7.3705 7.94284 7.6674 17.1466 7.75439 19.8844C7.75461 19.9352 7.73544 19.9841 7.7008 20.0213C7.66616 20.0584 7.61866 20.0809 7.56799 20.0841C7.51774 20.0919 7.46646 20.0795 7.42536 20.0495C7.38427 20.0196 7.35672 19.9746 7.34875 19.9244L5.79675 10.4686C5.6967 9.70312 5.29668 9.00878 4.68468 8.53828C4.07269 8.06778 3.29886 7.85966 2.53342 7.95971C1.76798 8.05976 1.07363 8.45978 0.603131 9.07177C0.132629 9.68377 -0.0754886 10.4576 0.0245611 11.223C0.0414259 11.3442 1.69817 23.4069 2.09005 27.1625C2.9435 35.3472 3.82091 40.1408 4.92777 42.7042C5.54264 44.1589 5.85158 45.7246 5.83536 47.3039V54.2326C5.83536 54.6681 6.00837 55.0858 6.31632 55.3938C6.62427 55.7017 7.04194 55.8747 7.47745 55.8747H22.7942C23.1932 55.8735 23.5781 55.7267 23.8766 55.4619C24.1751 55.197 24.3667 54.8324 24.4154 54.4363L35.7051 55.9848C36.1365 56.0439 36.5737 55.9293 36.9205 55.6661C37.2674 55.403 37.4956 55.0128 37.5549 54.5815L38.3981 48.4334C38.4973 47.6967 38.741 46.9868 39.1153 46.3445C39.4895 45.7023 39.9869 45.1402 40.579 44.6907C42.9578 42.8746 46.1506 40.0857 47.8552 37.11C48.6918 35.649 54.0362 28.6075 54.0903 28.5365C54.101 28.5223 54.1107 28.5081 54.1201 28.4921C54.5443 27.8331 54.7224 27.0455 54.6229 26.268C54.5235 25.4906 54.1529 24.7732 53.5764 24.2422ZM21.2338 7.36811C21.4966 7.17849 21.8143 7.08027 22.1383 7.08851C22.3456 7.08947 22.5508 7.13159 22.7418 7.21242C22.9328 7.29325 23.1058 7.41118 23.2509 7.55939C23.399 7.70998 23.5155 7.88864 23.5937 8.08489C23.6718 8.28114 23.7099 8.49102 23.7058 8.7022L23.7448 10.1983C22.7911 13.8548 21.5169 18.3453 21.0376 20.026C21.0254 20.0661 20.9991 20.1004 20.9636 20.1226C20.928 20.1447 20.8856 20.1532 20.8442 20.1465C20.8029 20.1398 20.7654 20.1183 20.7387 20.086C20.7119 20.0537 20.6978 20.0129 20.699 19.971C20.782 17.8598 21.0168 12.0374 21.2338 7.36811ZM23.1044 48.0251V54.2308C23.1044 54.3132 23.0717 54.3923 23.0134 54.4505C22.9552 54.5088 22.8762 54.5415 22.7938 54.5415H7.47701C7.39462 54.5415 7.3156 54.5088 7.25734 54.4505C7.19907 54.3923 7.16634 54.3132 7.16634 54.2308V47.3021C7.18289 45.5411 6.83695 43.7955 6.15002 42.1739C4.78575 39.0193 3.93541 32.016 3.41438 27.0227C3.02028 23.2454 1.36043 11.1613 1.34445 11.0455C1.31773 10.8399 1.33181 10.6309 1.38588 10.4307C1.43995 10.2305 1.53296 10.0429 1.65958 9.87864C1.7862 9.71439 1.94395 9.57671 2.12382 9.47346C2.30369 9.37022 2.50214 9.30343 2.70783 9.27693C2.77637 9.26733 2.84545 9.26215 2.91465 9.2614C3.30155 9.26233 3.67466 9.40523 3.9632 9.66301C4.25173 9.92078 4.43561 10.2755 4.47997 10.6598L6.0333 20.1387C6.099 20.5213 6.30706 20.8648 6.61567 21.1002C6.92428 21.3357 7.31057 21.4456 7.69689 21.4079C8.08321 21.3701 8.44094 21.1876 8.69819 20.8969C8.95544 20.6062 9.09313 20.229 9.0836 19.8409C8.99484 17.1004 8.69926 7.88781 8.53239 4.3937C8.52069 4.18471 8.55063 3.97548 8.62047 3.77816C8.69032 3.58084 8.79868 3.39937 8.93925 3.24428C9.07983 3.08919 9.24982 2.96358 9.43935 2.87475C9.62888 2.78592 9.83417 2.73563 10.0433 2.72681C10.2524 2.71799 10.4612 2.75081 10.6576 2.82337C10.8539 2.89593 11.0339 3.00678 11.187 3.14948C11.3401 3.29218 11.4634 3.46388 11.5496 3.65462C11.6358 3.84536 11.6833 4.05132 11.6892 4.26056L12.7938 19.5365C12.8214 19.911 12.9896 20.2613 13.2647 20.517C13.5398 20.7727 13.9015 20.9148 14.2771 20.9148C14.6526 20.9148 15.0143 20.7727 15.2894 20.517C15.5646 20.2613 15.7328 19.911 15.7603 19.5365L16.9657 2.79465C16.9893 2.37916 17.1771 1.9901 17.4876 1.71303C17.7982 1.43596 18.206 1.29359 18.6215 1.31721C18.8304 1.32782 19.0351 1.37959 19.2239 1.46954C19.4127 1.55948 19.5819 1.68584 19.7217 1.84135C19.8606 1.99532 19.9674 2.17539 20.036 2.37106C20.1046 2.56672 20.1335 2.77408 20.1211 2.98105C19.8717 7.38098 19.4816 17.0569 19.3667 19.9182C19.3522 20.2857 19.4729 20.6458 19.7059 20.9305C19.9389 21.2151 20.2681 21.4045 20.6313 21.4628C20.9945 21.5212 21.3665 21.4445 21.6769 21.2472C21.9874 21.0499 22.2148 20.7457 22.3162 20.3921C23.001 17.9991 25.2875 9.93289 25.9927 6.59588C26.0827 6.18967 26.3293 5.83535 26.6789 5.60988C27.0286 5.38442 27.4531 5.30602 27.8602 5.39171C28.2674 5.4774 28.6243 5.72027 28.8534 6.06756C29.0825 6.41484 29.1653 6.8385 29.0839 7.24651C28.4208 10.3802 25.5778 27.5925 25.5778 28.7793C25.5781 29.17 25.7063 29.5499 25.9427 29.8609C26.1791 30.172 26.5108 30.3972 26.8872 30.5022C27.2636 30.6071 27.6639 30.5861 28.0272 30.4422C28.3905 30.2984 28.6968 30.0396 28.8993 29.7055L32.6743 23.5365C32.9687 23.141 33.3988 22.8681 33.8821 22.7702C34.3654 22.6722 34.8678 22.7562 35.293 23.0059C35.7182 23.2556 36.0362 23.6535 36.186 24.1233C36.3359 24.5931 36.307 25.1016 36.1049 25.5514C35.7854 26.1182 31.6824 33.4131 31.0322 35.0237C29.7678 38.1534 26.8005 41.4145 25.1446 43.0828C24.4958 43.7316 23.9815 44.5022 23.6314 45.3503C23.2812 46.1985 23.1022 47.1075 23.1044 48.0251ZM53.0128 27.7518C52.6213 28.2707 47.5619 34.9389 46.6996 36.4465C45.022 39.3757 41.6401 42.2049 39.7713 43.6305C39.0405 44.1854 38.4265 44.8791 37.9645 45.6719C37.5024 46.4646 37.2014 47.3407 37.0787 48.2501L36.2354 54.3986C36.2244 54.4802 36.1814 54.5541 36.1159 54.604C36.0504 54.654 35.9678 54.6759 35.8861 54.6649L24.4359 53.0942V48.0259C24.434 47.2826 24.579 46.5462 24.8626 45.8591C25.1461 45.172 25.5626 44.5476 26.0882 44.0219C28.198 41.8992 30.9821 38.7019 32.266 35.5225C32.8966 33.9603 37.2344 26.2593 37.2784 26.1803C37.2868 26.1652 37.2948 26.1497 37.3019 26.1359C37.6506 25.3847 37.7071 24.5305 37.4603 23.7398C37.2136 22.9492 36.6812 22.2788 35.967 21.8593C35.2529 21.4398 34.4081 21.3012 33.5973 21.4707C32.7866 21.6401 32.068 22.1054 31.5816 22.7758C31.571 22.79 31.5617 22.8047 31.5523 22.8202L27.7609 29.014C27.7111 29.1024 27.6325 29.171 27.5383 29.2084C27.444 29.2459 27.3398 29.25 27.243 29.22C27.1448 29.1966 27.0578 29.1399 26.9969 29.0595C26.9359 28.9791 26.9048 28.8801 26.9088 28.7793C26.9194 27.881 29.5885 11.298 30.3869 7.52078C30.5345 6.82388 30.4206 6.09704 30.0669 5.47871C29.7131 4.86039 29.1443 4.39379 28.4688 4.1678C28.5083 3.75017 28.5433 3.36894 28.5722 3.04319C28.5894 2.83491 28.6477 2.63212 28.7439 2.44656C28.84 2.26101 28.972 2.09637 29.1322 1.9622C29.2925 1.82803 29.4777 1.72699 29.6773 1.66493C29.8768 1.60287 30.0867 1.58103 30.2948 1.60068C30.5028 1.62032 30.7049 1.68105 30.8894 1.77936C31.0738 1.87767 31.2368 2.0116 31.3691 2.17339C31.5014 2.33518 31.6003 2.52161 31.66 2.72188C31.7197 2.92215 31.7391 3.13228 31.717 3.3401L30.7357 18.6258C30.7125 19.0006 30.8318 19.3703 31.0698 19.6608C31.3078 19.9512 31.6469 20.141 32.0189 20.1918C32.391 20.2427 32.7685 20.151 33.0758 19.9351C33.383 19.7193 33.5973 19.3952 33.6755 19.0279L37.1448 2.60692C37.1841 2.40456 37.2629 2.21194 37.3768 2.04007C37.4906 1.8682 37.6372 1.72045 37.8082 1.60528C37.9792 1.49012 38.1712 1.40979 38.3732 1.36889C38.5753 1.32798 38.7834 1.32732 38.9857 1.36692C39.1917 1.40557 39.388 1.48471 39.5632 1.59974C39.7384 1.71477 39.8891 1.86342 40.0065 2.03707C40.1232 2.20847 40.2046 2.40143 40.2459 2.60467C40.2873 2.8079 40.2876 3.01733 40.247 3.22071C39.3985 7.56649 37.6996 17.084 37.1994 19.8973C37.135 20.2595 37.2056 20.6327 37.3978 20.9463C37.5899 21.26 37.8903 21.4924 38.2422 21.5996C38.594 21.7069 38.973 21.6815 39.3074 21.5282C39.6418 21.375 39.9085 21.1046 40.0571 20.7681C41.0596 18.49 44.4219 10.8072 45.5741 7.59933C45.6805 7.30601 45.8714 7.05073 46.1226 6.86562C46.3738 6.68051 46.6742 6.57384 46.9859 6.55903C47.2976 6.54423 47.6067 6.62196 47.8743 6.78243C48.1419 6.9429 48.3561 7.17895 48.4899 7.46087C48.5789 7.64763 48.6298 7.85023 48.6397 8.05687C48.6496 8.26351 48.6183 8.47006 48.5476 8.66448C47.4629 11.6775 42.3059 28.3452 42.1447 29.5191C42.0917 29.9063 42.1669 30.3003 42.3588 30.6408C42.5507 30.9813 42.8488 31.2497 43.2076 31.4048C43.5663 31.56 43.966 31.5934 44.3456 31.5001C44.7251 31.4067 45.0637 31.1917 45.3096 30.8878L49.8874 25.2887C50.2331 24.9371 50.6963 24.7254 51.1884 24.6942C51.6804 24.663 52.1667 24.8145 52.5539 25.1197C52.9412 25.4249 53.2021 25.8623 53.2868 26.348C53.3715 26.8337 53.2739 27.3336 53.0128 27.7518Z" fill="#971F1A"/>
</svg>
