<svg width="58" height="61" viewBox="0 0 58 61" fill="none" xmlns="http://www.w3.org/2000/svg">
<path d="M23.2903 33.3787C20.9533 33.5608 15.6749 34.7314 11.396 41.1397C7.66147 43.5259 2.59244 47.3296 0.980645 49.8505C0.596524 50.4099 0.429727 51.0902 0.511548 51.7639C0.761571 54.0171 6.68808 59.6572 8.64335 60.2914C8.96131 60.3981 9.29411 60.454 9.62949 60.457C10.1956 60.4488 10.7464 60.2719 11.2115 59.9491C11.5429 59.7355 11.961 59.3999 12.4459 59.0121C13.6019 58.0861 15.1852 56.8177 16.7224 56.277C19.5782 55.2733 23.8947 55.5883 27.3641 55.8425C28.9389 55.9578 30.2988 56.0592 31.3784 56.0319C36.4383 55.9105 53.8064 51.5333 56.6471 48.9687C56.9494 48.6938 57.1835 48.3523 57.331 47.9712C57.4785 47.5901 57.5352 47.1799 57.4967 46.7731C57.4533 46.2541 57.2932 45.7515 57.0284 45.3029C56.7636 44.8543 56.4009 44.4713 55.9674 44.1825C55.9207 44.1515 55.8703 44.1273 55.8224 44.0981C53.1425 39.5765 50.6035 36.5228 47.1135 36.2886C46.1487 34.9376 44.8793 33.8328 43.408 33.0638C42.4856 32.5564 41.4657 32.2511 40.4162 32.1681C39.3666 32.0851 38.3115 32.2264 37.3207 32.5825C35.696 31.4014 33.7732 30.6983 31.7698 30.5526C31.7389 29.1065 31.7164 27.7004 31.785 25.9879C31.8762 23.1462 32.5582 20.3547 33.7876 17.7912C34.9355 18.6042 36.3037 19.0487 37.7103 19.0655C38.0936 19.0655 38.476 19.0307 38.853 18.9618C42.3333 18.3252 44.7395 16.0932 46.2099 12.1383C47.2731 9.30808 47.6714 6.27124 47.3738 3.26253C47.3422 2.77084 47.1961 2.29335 46.9471 1.86819C46.6981 1.44303 46.3532 1.08198 45.9398 0.813885C45.5724 0.599054 45.1581 0.477343 44.7329 0.459362C44.3076 0.44138 43.8845 0.527674 43.5003 0.71072C41.8549 1.40673 40.1735 2.01445 38.4634 2.53127C36.8826 2.97807 35.4184 3.76453 34.173 4.83574C32.9276 5.90695 31.931 7.23709 31.2528 8.73329C30.8056 9.72751 30.5808 10.8074 30.5941 11.8974C30.6074 12.9875 30.8585 14.0615 31.3299 15.0445C31.6652 15.6814 32.0915 16.266 32.5952 16.7801C31.6997 18.553 31.0559 20.4421 30.6824 22.3929C30.1634 21.1343 29.5202 19.9306 28.7623 18.7997C29.1804 18.2446 29.5097 17.628 29.7387 16.9719C30.0271 16.0323 30.1068 15.0411 29.9722 14.0676C29.8376 13.094 29.492 12.1616 28.9595 11.3355C28.1574 10.0982 27.0947 9.05112 25.8458 8.26729C24.5968 7.48345 23.1918 6.98182 21.7289 6.79744C20.1584 6.57025 18.601 6.25991 17.0634 5.86774C16.6881 5.75415 16.2908 5.73408 15.906 5.80929C15.5212 5.88449 15.1606 6.05269 14.8557 6.29921C14.5173 6.59854 14.2537 6.97282 14.0857 7.39218C13.9178 7.81154 13.8502 8.26436 13.8884 8.71448C14.0273 11.4145 14.7851 14.0465 16.1034 16.4069C17.9385 19.7203 20.3762 21.3789 23.5555 21.4772H23.7376C25.2014 21.4611 26.61 20.916 27.7033 19.9424C29.1681 22.093 30.0405 24.5915 30.2327 27.1864C30.2114 28.3801 30.2284 29.4463 30.2521 30.5308C30.1617 30.535 30.0701 30.5356 29.9815 30.5423C27.4886 30.6789 25.1219 31.6822 23.2903 33.3787ZM32.654 9.31769C33.2473 8.02541 34.1154 6.87811 35.1977 5.95578C36.2799 5.03345 37.5504 4.3583 38.9204 3.9774C40.6808 3.44532 42.4116 2.81957 44.1053 2.10284C44.2784 2.02362 44.466 1.98066 44.6563 1.97661C44.8338 1.97548 45.0082 2.02358 45.16 2.11558C45.3669 2.25925 45.538 2.44847 45.6603 2.66867C45.7825 2.88887 45.8526 3.13418 45.8652 3.38572C46.1426 6.17337 45.775 8.98746 44.791 11.6104C43.5057 15.0694 41.5335 16.9306 38.5842 17.4701C37.8703 17.5935 37.1385 17.566 36.4359 17.3894C35.7333 17.2128 35.0755 16.8909 34.5049 16.4445C35.5585 14.6811 36.8207 13.0511 38.2644 11.5897C38.4006 11.4432 38.4734 11.2487 38.4669 11.0487C38.4604 10.8487 38.3752 10.6594 38.2298 10.5219C38.0843 10.3845 37.8905 10.3101 37.6904 10.3149C37.4904 10.3198 37.3003 10.4035 37.1617 10.5478C35.7227 12.0101 34.4523 13.6291 33.3744 15.3747C33.1071 15.0595 32.8745 14.7165 32.6807 14.3515C32.3105 13.5649 32.1164 12.7069 32.1118 11.8376C32.1072 10.9682 32.2922 10.1082 32.654 9.31769ZM28.3023 16.487C28.1793 16.8358 28.019 17.1703 27.8241 17.4847C26.7611 16.0272 25.4939 14.7303 24.0616 13.6336C23.9782 13.579 23.8848 13.5413 23.7868 13.5228C23.6888 13.5042 23.5881 13.5052 23.4905 13.5256C23.3929 13.5459 23.3002 13.5853 23.2178 13.6415C23.1354 13.6977 23.0649 13.7696 23.0103 13.853C22.9556 13.9364 22.918 14.0298 22.8994 14.1278C22.8809 14.2258 22.8818 14.3265 22.9022 14.4241C22.9226 14.5217 22.962 14.6144 23.0181 14.6968C23.0743 14.7792 23.1462 14.8497 23.2296 14.9044C24.6111 15.9845 25.8262 17.2618 26.8361 18.6954C26.409 19.1116 25.9028 19.438 25.3473 19.6553C24.7918 19.8725 24.1984 19.9761 23.6022 19.96C20.9673 19.8787 19.0059 18.5157 17.4306 15.6714C16.2224 13.5047 15.5281 11.0895 15.4012 8.61192C15.3796 8.40241 15.4062 8.19072 15.479 7.99307C15.5517 7.79543 15.6688 7.61706 15.8212 7.47165C15.9402 7.37985 16.0803 7.31937 16.2287 7.29573C16.3772 7.27208 16.5291 7.28604 16.6708 7.33632C18.2593 7.74247 19.8683 8.06354 21.491 8.29818C22.7355 8.44898 23.9322 8.86939 24.9976 9.53011C26.063 10.1908 26.9714 11.0759 27.6596 12.1238C28.0773 12.7607 28.3511 13.481 28.4621 14.2345C28.5731 14.9881 28.5186 15.7567 28.3023 16.487ZM55.9802 46.8812C56 47.0579 55.9784 47.2368 55.9171 47.4038C55.8558 47.5707 55.7565 47.7211 55.627 47.843C53.2445 49.9937 36.3831 54.394 31.339 54.5154C30.334 54.539 29.0068 54.4419 27.4709 54.3297C23.8614 54.0657 19.3694 53.7368 16.2156 54.8461C14.4345 55.4724 12.7347 56.8335 11.4937 57.8275C11.0422 58.1917 10.652 58.5024 10.3868 58.6729C10.2065 58.8095 9.99402 58.8974 9.76987 58.9281C9.54572 58.9588 9.31743 58.9313 9.10699 58.8483C7.56559 58.3482 2.17796 53.065 2.01472 51.5964C1.97139 51.2678 2.05709 50.9352 2.25382 50.6685C4.26553 47.525 12.549 41.928 15.3041 40.6257C18.9271 38.8137 22.9142 37.848 26.9648 37.8015C28.6727 37.8038 30.376 37.978 32.049 38.3215C35.6701 39.057 41.2385 40.5736 42.7235 41.3558C43.1566 41.5431 43.5162 41.8673 43.7472 42.2788C43.9782 42.6902 44.0677 43.166 44.0021 43.6333C43.933 44.0553 43.7284 44.4433 43.4194 44.7389C43.1104 45.0344 42.7136 45.2215 42.289 45.2718C40.8642 45.3835 39.4309 45.2979 38.0295 45.0175C35.4413 44.6455 32.5072 44.2225 30.0889 45.5728C29.9997 45.6201 29.9208 45.6848 29.8569 45.763C29.793 45.8413 29.7454 45.9315 29.7168 46.0283C29.6883 46.1252 29.6793 46.2268 29.6906 46.3272C29.7018 46.4275 29.733 46.5247 29.7822 46.6128C29.8315 46.701 29.8978 46.7784 29.9774 46.8406C30.057 46.9028 30.1482 46.9485 30.2457 46.9749C30.3431 47.0014 30.4449 47.0081 30.545 46.9947C30.6451 46.9813 30.7415 46.9481 30.8286 46.8969C32.7991 45.7973 35.3478 46.1645 37.8129 46.5195C39.3532 46.8237 40.9287 46.9095 42.4929 46.7744H42.5026H42.5202H42.5238C43.8723 46.5683 45.2064 46.2772 46.5181 45.9029C49.6562 45.0891 53.2117 44.1655 55.116 45.4454C55.3576 45.6055 55.5605 45.8175 55.7099 46.0659C55.8594 46.3142 55.9517 46.5927 55.9802 46.8812ZM38.0629 35.3674C38.1898 35.5235 38.3735 35.6228 38.5737 35.6435C38.6727 35.6537 38.7729 35.6443 38.8683 35.6158C38.9638 35.5874 39.0527 35.5404 39.13 35.4775C39.2073 35.4147 39.2715 35.3372 39.3189 35.2496C39.3662 35.162 39.3959 35.0659 39.4061 34.9668C39.4163 34.8677 39.407 34.7675 39.3785 34.6721C39.35 34.5766 39.303 34.4877 39.2402 34.4104C39.0581 34.1852 38.8633 33.9728 38.6649 33.7659C40.0475 33.5157 41.4741 33.7441 42.7095 34.4134C44.8857 35.5312 46.3446 37.5332 46.5612 38.5479C46.5973 38.7177 46.6906 38.87 46.8255 38.9793C46.9603 39.0887 47.1286 39.1484 47.3022 39.1487C47.3556 39.1487 47.409 39.143 47.4612 39.1317C47.5587 39.111 47.6511 39.0713 47.7332 39.0148C47.8153 38.9584 47.8855 38.8863 47.9397 38.8027C47.9939 38.7191 48.0311 38.6257 48.0492 38.5277C48.0672 38.4297 48.0658 38.3291 48.045 38.2317C48.0268 38.1455 48.0019 38.0563 47.9746 37.9653C49.7909 38.4775 51.5059 40.1336 53.5813 43.3602C51.3317 43.0877 48.6166 43.785 46.137 44.4313L45.2777 44.6528C45.3796 44.4052 45.4531 44.1469 45.4968 43.8827C45.6179 43.1003 45.4816 42.2997 45.1084 41.6014C44.7352 40.9032 44.1453 40.345 43.4274 40.011C41.8102 39.1614 36.1452 37.6054 32.3494 36.8347C26.4667 35.6447 20.3554 36.4438 14.9765 39.1062C16.864 37.113 19.2981 35.7216 21.9734 35.1064C21.9196 35.2664 21.9215 35.4399 21.9788 35.5987C22.0361 35.7575 22.1454 35.8922 22.289 35.9809C22.3742 36.0326 22.4687 36.0669 22.5672 36.082C22.6657 36.0971 22.7661 36.0927 22.8629 36.069C22.9597 36.0453 23.0508 36.0027 23.1311 35.9438C23.2114 35.8848 23.2793 35.8106 23.331 35.7254C24.5811 33.6621 27.1699 32.2567 30.0883 32.0558C31.5864 31.9198 33.0951 32.1501 34.4844 32.727C35.8737 33.304 37.1018 34.2101 38.0629 35.3674Z" fill="#971F1A"/>
</svg>
