<svg width="80" height="81" viewBox="0 0 80 81" fill="none" xmlns="http://www.w3.org/2000/svg">
<path d="M79.8761 41.9637L79.8661 41.9437L79.8594 41.927L68.2161 12.8203C66.9428 9.63699 63.9061 7.58033 60.4794 7.58033H41.6594V2.58366C41.6594 1.66366 40.9128 0.916992 39.9928 0.916992C39.0728 0.916992 38.3261 1.66366 38.3261 2.58366V7.58366H19.5094C16.0828 7.58366 13.0461 9.64033 11.7728 12.8237L0.13276 41.927L0.126094 41.9437L0.116094 41.9637C0.0360937 42.1603 -0.00390625 45.6337 -0.00390625 45.6337C-0.00390625 52.957 4.85276 59.1037 11.8061 60.5803C12.8528 60.8037 13.9194 60.917 14.9728 60.917H14.9994C23.2661 60.9037 29.9961 54.1737 29.9961 45.917C29.9961 45.917 29.9561 42.1637 29.8761 41.9637L29.8661 41.9437L29.8594 41.927L17.6061 11.2903C18.1961 11.047 18.8394 10.917 19.5094 10.917H38.3294V77.5837H14.9961C14.0761 77.5837 13.3294 78.3303 13.3294 79.2503C13.3294 80.1703 14.0761 80.917 14.9961 80.917H64.9961C65.9161 80.917 66.6628 80.1703 66.6628 79.2503C66.6628 78.3303 65.9161 77.5837 64.9961 77.5837H41.6628V10.917H60.4828C61.1528 10.917 61.7994 11.047 62.3861 11.2903L50.1328 41.927L50.1261 41.9437L50.1161 41.9637C50.0361 42.1603 49.9961 45.917 49.9961 45.917C49.9961 54.1737 56.7261 60.9037 64.9928 60.917H65.0194C66.0728 60.917 67.1394 60.8037 68.1828 60.5803C75.1394 59.1003 79.9961 52.9537 79.9961 45.6337C79.9961 45.6337 79.9561 42.1603 79.8761 41.9637ZM14.9928 57.5837C14.0494 57.637 13.3261 57.497 12.4994 57.3203C7.10276 56.1737 3.32943 51.367 3.32943 45.6337V44.2503H26.6628V45.917C26.6628 52.337 21.4294 57.5737 14.9928 57.5837ZM25.8694 40.917H4.12276C4.12276 40.917 14.9528 13.8537 15.0028 13.7537L25.8694 40.917ZM64.9894 13.7537C65.0394 13.8537 75.8661 40.917 75.8661 40.917H54.1228L64.9894 13.7537ZM67.4894 57.3203C66.6661 57.497 65.9361 57.6437 64.9994 57.5837C58.5628 57.5737 53.3294 52.337 53.3294 45.917V44.2503H76.6628V45.6337C76.6628 51.367 72.8894 56.1737 67.4894 57.3203Z" fill="#971F1A"/>
</svg>
