<svg width="24" height="24" viewBox="0 0 24 24" fill="none" xmlns="http://www.w3.org/2000/svg">
<path d="M22.0002 8.52V3.98C22.0002 2.57 21.3602 2 19.7702 2H15.7302C14.1402 2 13.5002 2.57 13.5002 3.98V8.51C13.5002 9.93 14.1402 10.49 15.7302 10.49H19.7702C21.3602 10.5 22.0002 9.93 22.0002 8.52Z" stroke="#727272" stroke-width="1.5" stroke-linecap="round" stroke-linejoin="round"/>
<path d="M22.0002 19.77V15.73C22.0002 14.14 21.3602 13.5 19.7702 13.5H15.7302C14.1402 13.5 13.5002 14.14 13.5002 15.73V19.77C13.5002 21.36 14.1402 22 15.7302 22H19.7702C21.3602 22 22.0002 21.36 22.0002 19.77Z" stroke="#727272" stroke-width="1.5" stroke-linecap="round" stroke-linejoin="round"/>
<path d="M10.5002 8.52V3.98C10.5002 2.57 9.86024 2 8.27024 2H4.23024C2.64024 2 2.00024 2.57 2.00024 3.98V8.51C2.00024 9.93 2.64024 10.49 4.23024 10.49H8.27024C9.86024 10.5 10.5002 9.93 10.5002 8.52Z" stroke="#727272" stroke-width="1.5" stroke-linecap="round" stroke-linejoin="round"/>
<path d="M10.5002 19.77V15.73C10.5002 14.14 9.86024 13.5 8.27024 13.5H4.23024C2.64024 13.5 2.00024 14.14 2.00024 15.73V19.77C2.00024 21.36 2.64024 22 4.23024 22H8.27024C9.86024 22 10.5002 21.36 10.5002 19.77Z" stroke="#727272" stroke-width="1.5" stroke-linecap="round" stroke-linejoin="round"/>
</svg>
