<svg width="72" height="68" viewBox="0 0 72 68" fill="none" xmlns="http://www.w3.org/2000/svg">
<path d="M36.7656 24.9706L58.0909 3.64536C58.544 3.19127 59.0822 2.83095 59.6746 2.58499C60.2671 2.33903 60.9022 2.21225 61.5437 2.21191C62.1852 2.21158 62.8205 2.33767 63.4132 2.58301C64.006 2.82834 64.5445 3.1881 64.9981 3.6417C65.4517 4.09531 65.8115 4.63387 66.0568 5.2266C66.3022 5.81933 66.4283 6.45461 66.4279 7.0961C66.4276 7.7376 66.3008 8.37274 66.0548 8.96521C65.8089 9.55768 65.4486 10.0959 64.9945 10.549L43.6692 31.8742" stroke="#A40005" stroke-width="2" stroke-linecap="round" stroke-linejoin="round"/>
<path d="M56.0621 33.2887L68.6623 20.6885C69.5719 19.77 70.08 18.5281 70.0751 17.2354C70.0703 15.9427 69.5529 14.7047 68.6364 13.7929C67.72 12.8812 66.4793 12.3702 65.1866 12.3721C63.8938 12.3739 62.6546 12.8885 61.7408 13.8028L49.1406 26.403" stroke="#A40005" stroke-width="2" stroke-linecap="round" stroke-linejoin="round"/>
<path d="M44.5982 17.1385L52.8536 8.88306C53.6332 7.89107 54 6.63658 53.8777 5.38087C53.7553 4.12517 53.1532 2.96508 52.1968 2.14223C51.2241 1.34261 49.9864 0.937707 48.7291 1.00779C47.4718 1.07787 46.2868 1.61782 45.4089 2.52059L37.2808 10.6486L16.834 31.0955L25.2904 16.4486C25.7815 15.3004 25.8157 14.008 25.3858 12.8354C24.9559 11.6629 24.0944 10.6988 22.9775 10.1402C21.8605 9.58162 20.5724 9.47067 19.3764 9.83004C18.1804 10.1894 17.1667 10.992 16.5427 12.0737L5.11926 31.9478C2.6535 36.1555 1.5714 41.0314 2.02568 45.8872C2.47997 50.743 4.4477 55.3335 7.65115 59.0108C7.88373 59.2713 8.12287 59.5279 8.36856 59.7806C17.861 69.5416 33.8539 69.3045 43.4815 59.6768L56.9179 46.2405L67.8907 35.2677C68.6703 34.2757 69.0371 33.0212 68.9147 31.7655C68.7924 30.5098 68.1903 29.3497 67.2339 28.5268C66.2611 27.7272 65.0234 27.3223 63.7662 27.3924C62.5089 27.4625 61.3238 28.0024 60.446 28.9052L50.5867 38.7644" stroke="#A40005" stroke-width="2" stroke-linecap="round" stroke-linejoin="round"/>
<path d="M23.0229 46.4371L22.8308 46.2414C21.8647 45.2915 21.306 44.0031 21.2727 42.6486C21.2394 41.2942 21.7342 39.9799 22.6524 38.9836C23.5706 37.9874 24.8403 37.3873 26.193 37.3102C27.5456 37.2332 28.8753 37.6852 29.9007 38.5707C30.0272 38.6729 30.1849 38.7287 30.3475 38.7287C30.5102 38.7287 30.6679 38.6729 30.7944 38.5707C31.8214 37.6889 33.1508 37.2405 34.5021 37.3203C35.8535 37.4001 37.1209 38.0017 38.037 38.9983C38.9531 39.9949 39.4462 41.3084 39.4121 42.6616C39.3781 44.0149 38.8196 45.302 37.8546 46.2512L37.6722 46.4371L30.8624 53.3727C30.7953 53.4411 30.7151 53.4955 30.6267 53.5326C30.5383 53.5697 30.4434 53.5888 30.3475 53.5888C30.2516 53.5888 30.1567 53.5697 30.0683 53.5326C29.9799 53.4955 29.8997 53.4411 29.8326 53.3727L23.0229 46.4371Z" stroke="#A40005" stroke-width="2" stroke-linecap="round" stroke-linejoin="round"/>
</svg>
