<svg width="48" height="40" viewBox="0 0 48 40" fill="none" xmlns="http://www.w3.org/2000/svg">
<path d="M47.8473 13.6209C47.8297 13.5536 47.8035 13.4894 47.7695 13.4294C47.7608 13.4141 47.7478 13.4018 47.7381 13.3871C47.71 13.3443 47.6811 13.3021 47.6449 13.2651C47.6256 13.2454 47.6014 13.2308 47.58 13.213C47.5509 13.189 47.5245 13.1622 47.4917 13.1422C47.4879 13.1398 47.4835 13.139 47.4797 13.1368C47.4756 13.1343 47.4726 13.1305 47.4684 13.1282L24.3905 0.102582C24.148 -0.034194 23.8512 -0.034194 23.6087 0.102582L0.530865 13.1282C0.526639 13.1305 0.523676 13.1343 0.519499 13.1368C0.515711 13.139 0.511339 13.1398 0.507551 13.1422C0.474765 13.1622 0.448343 13.189 0.419249 13.213C0.39778 13.2308 0.37364 13.2454 0.354309 13.2651C0.318124 13.3021 0.289272 13.3443 0.261101 13.3871C0.251436 13.4018 0.238467 13.4141 0.229773 13.4294C0.195773 13.4894 0.169496 13.5536 0.151962 13.6209C0.147736 13.6372 0.148659 13.6547 0.145405 13.6713C0.135837 13.7206 0.125977 13.77 0.125977 13.8214V33.0256C0.125977 36.8713 3.25939 40 7.1101 40H40.8985C44.7445 40 47.8733 36.8713 47.8733 33.0256V13.8214C47.8733 13.77 47.8634 13.7206 47.8538 13.6713C47.8506 13.6547 47.8515 13.6372 47.8473 13.6209ZM23.9996 1.7097L45.4011 13.7891L23.9996 24.7996L2.5981 13.7891L23.9996 1.7097ZM46.2817 33.0256C46.2817 35.9939 43.8671 38.4084 40.8985 38.4084H7.1101C4.13678 38.4084 1.71755 35.9939 1.71755 33.0256V15.1258L23.6359 26.4021C23.7502 26.4607 23.8745 26.4903 23.9996 26.4903C24.1247 26.4903 24.2491 26.4607 24.3633 26.4021L46.2817 15.1258V33.0256Z" fill="#971F1A"/>
</svg>
