<svg width="59" height="60" viewBox="0 0 59 60" fill="none" xmlns="http://www.w3.org/2000/svg">
<path d="M52.4638 9.19149H50.307C50.1183 9.19149 49.9372 9.1165 49.8037 8.98302C49.6702 8.84953 49.5952 8.66848 49.5952 8.4797V5.17273C49.5952 4.98395 49.6702 4.8029 49.8037 4.66942C49.9372 4.53593 50.1183 4.46094 50.307 4.46094C50.4958 4.46094 50.6769 4.53593 50.8103 4.66942C50.9438 4.8029 51.0188 4.98395 51.0188 5.17273V7.76744H52.4638C52.6525 7.76744 52.8336 7.84243 52.9671 7.97592C53.1006 8.10941 53.1755 8.29045 53.1755 8.47923C53.1755 8.66801 53.1006 8.84906 52.9671 8.98254C52.8336 9.11603 52.6525 9.19149 52.4638 9.19149Z" fill="#971F1A"/>
<path d="M4.25703 12.0213C3.9901 12.0212 3.72811 11.9493 3.49858 11.813C3.26905 11.6768 3.08044 11.4812 2.95256 11.2469L2.54304 10.5L1.76909 10.0644C1.53472 9.93646 1.33913 9.74778 1.20286 9.51815C1.0666 9.28853 0.99469 9.02645 0.99469 8.75944C0.99469 8.49243 1.0666 8.23035 1.20286 8.00073C1.33913 7.7711 1.53472 7.58242 1.76909 7.45449L2.51931 7.0464L2.95446 6.27244C3.08238 6.03808 3.27107 5.84249 3.50069 5.70622C3.73031 5.56996 3.99239 5.49805 4.2594 5.49805C4.52641 5.49805 4.7885 5.56996 5.01812 5.70622C5.24774 5.84249 5.43642 6.03808 5.56435 6.27244L5.9734 7.02077L6.74687 7.45497C6.98124 7.58289 7.17683 7.77158 7.3131 8.0012C7.44936 8.23082 7.52127 8.4929 7.52127 8.75991C7.52127 9.02692 7.44936 9.28901 7.3131 9.51863C7.17683 9.74825 6.98124 9.93693 6.74687 10.0649L5.99902 10.4739L5.56198 11.2469C5.43402 11.4813 5.24532 11.6768 5.01571 11.8131C4.7861 11.9493 4.52403 12.0213 4.25703 12.0213ZM4.25703 6.92255C4.2456 6.92165 4.23417 6.92432 4.22431 6.93018C4.21446 6.93604 4.20666 6.94481 4.20199 6.95529L3.79152 7.70457C3.65554 7.95395 3.4506 8.15889 3.20121 8.29488L2.45241 8.70487C2.44189 8.70962 2.43311 8.71751 2.42725 8.72744C2.42139 8.73738 2.41874 8.74889 2.41966 8.76039C2.4187 8.77183 2.42133 8.78329 2.42721 8.79316C2.43308 8.80303 2.44189 8.81082 2.45241 8.81543L3.20121 9.22543C3.45118 9.36182 3.65648 9.56745 3.79247 9.81763L4.20151 10.5645C4.21432 10.5887 4.30069 10.5883 4.31255 10.5645L4.72159 9.81621C4.85816 9.56657 5.06332 9.36124 5.31285 9.22448L6.06166 8.81543C6.07222 8.8107 6.08106 8.80283 6.08701 8.7929C6.09295 8.78297 6.09569 8.77146 6.09487 8.75991C6.09583 8.74835 6.09315 8.73677 6.08719 8.72682C6.08123 8.71686 6.0723 8.70902 6.06166 8.70439L5.31285 8.29488C5.0639 8.15853 4.85909 7.95388 4.72254 7.70504L4.31255 6.95529C4.30774 6.94482 4.29985 6.93607 4.28992 6.93022C4.28 6.92437 4.26852 6.92169 4.25703 6.92255Z" fill="#971F1A"/>
<path d="M24.2674 28.899C24.8923 28.8784 25.4883 28.6307 25.9439 28.2024C26.0148 28.1414 26.073 28.0671 26.1152 27.9836C26.1574 27.9001 26.1827 27.8092 26.1897 27.7159C26.1968 27.6226 26.1853 27.5289 26.1562 27.4401C26.127 27.3512 26.0805 27.269 26.0196 27.1981C25.9586 27.1271 25.8842 27.0689 25.8008 27.0267C25.7173 26.9846 25.6263 26.9592 25.5331 26.9522C25.4398 26.9452 25.3461 26.9566 25.2572 26.9858C25.1684 27.015 25.0861 27.0614 25.0152 27.1224C24.9234 27.2313 24.8089 27.3189 24.6798 27.3789C24.5506 27.439 24.4098 27.4701 24.2674 27.4701C24.1249 27.4701 23.9842 27.439 23.855 27.3789C23.7258 27.3189 23.6113 27.2313 23.5195 27.1224C23.3755 27.0072 23.1925 26.9524 23.0089 26.9695C22.8253 26.9866 22.6555 27.0743 22.5353 27.2141C22.415 27.3539 22.3537 27.5349 22.3643 27.7189C22.3748 27.903 22.4564 28.0758 22.5918 28.201C23.047 28.6294 23.6426 28.8776 24.2674 28.899Z" fill="#971F1A"/>
<path d="M23.4768 32.493C23.6949 32.6254 23.9444 32.6973 24.1995 32.7013H24.3058C24.5609 32.6973 24.8104 32.6254 25.0285 32.493C25.2249 32.3777 25.2416 32.364 25.3692 32.3749C25.5059 32.3844 25.6686 32.3977 25.829 32.401C26.4772 32.4168 27.1208 32.2891 27.7138 32.027C27.8285 31.9766 27.9207 31.8858 27.9729 31.7718C28.025 31.6579 28.0334 31.5287 27.9966 31.409C27.9598 31.2892 27.8802 31.1871 27.773 31.1222C27.6659 31.0572 27.5386 31.0339 27.4154 31.0566H27.4054C26.9201 31.1491 26.4226 31.1578 25.9344 31.0823C25.8124 31.0642 25.6938 31.04 25.55 31.0116C25.3394 30.9618 25.1215 30.9509 24.907 30.9793C24.6817 31.0184 24.4675 31.1055 24.2787 31.2346C24.2703 31.2381 24.2613 31.2399 24.2522 31.2399C24.243 31.2399 24.234 31.2381 24.2256 31.2346C24.0369 31.1054 23.8226 31.0183 23.5973 30.9793C23.3828 30.9509 23.1649 30.9618 22.9543 31.0116C22.812 31.04 22.6919 31.0642 22.57 31.0823C22.0818 31.1578 21.5842 31.1491 21.0989 31.0566H21.0885C20.9655 31.0347 20.8387 31.0585 20.732 31.1236C20.6253 31.1887 20.5462 31.2906 20.5095 31.4101C20.4729 31.5296 20.4812 31.6583 20.533 31.7721C20.5847 31.8858 20.6763 31.9767 20.7905 32.0275C21.3835 32.2896 22.0272 32.4173 22.6753 32.4014C22.8362 32.3981 22.9985 32.3848 23.1356 32.3753C23.2637 32.363 23.2803 32.3777 23.4768 32.493Z" fill="#971F1A"/>
<path d="M25.2653 34.6326C25.4262 34.5455 25.5474 34.3998 25.6038 34.2258C25.6601 34.0517 25.6473 33.8626 25.5679 33.6977C25.4886 33.5329 25.3487 33.4049 25.1775 33.3404C25.0063 33.2759 24.8168 33.2798 24.6484 33.3514C24.5316 33.4137 24.4012 33.4463 24.2688 33.4463C24.1364 33.4463 24.006 33.4137 23.8892 33.3514C23.8045 33.3055 23.7113 33.2774 23.6154 33.2686C23.5195 33.2598 23.4229 33.2706 23.3312 33.3002C23.2396 33.3299 23.155 33.3778 23.0824 33.4412C23.0099 33.5045 22.9509 33.5819 22.9092 33.6686C22.8674 33.7554 22.8436 33.8497 22.8394 33.9459C22.8351 34.0421 22.8504 34.1382 22.8844 34.2283C22.9183 34.3184 22.9702 34.4007 23.0369 34.4702C23.1035 34.5397 23.1836 34.5949 23.2723 34.6326C23.5815 34.7877 23.9228 34.8685 24.2688 34.8685C24.6148 34.8685 24.956 34.7877 25.2653 34.6326Z" fill="#971F1A"/>
<path d="M44.5002 51.6799C44.31 48.9424 43.4213 46.2993 41.9188 44.003C41.0447 42.5386 40.2888 41.2745 40.1478 38.9422C40.0339 37.0564 40.3068 35.4231 40.6523 33.3551C41.1428 30.644 41.4504 27.903 41.5728 25.1505C41.7916 19.9023 40.6171 12.8128 39.0578 9.9766C35.7428 3.94251 30.0751 0.19043 24.2678 0.19043H24.2616C18.1037 0.19043 12.0734 4.41372 9.59495 10.4673C7.45009 15.7075 6.64766 20.1058 6.99359 24.7292C7.4164 30.3808 6.47921 35.0482 4.2086 38.6024C2.4905 41.443 1.23399 44.5382 0.485932 47.7726C-0.391468 51.511 -0.0896687 54.0839 1.46441 56.111C1.6917 56.4081 1.9228 56.6743 2.15532 56.9277C1.99113 57.5773 1.82742 58.2891 1.6471 59.1409C1.60802 59.3256 1.64394 59.5183 1.74694 59.6766C1.84995 59.8349 2.01161 59.9458 2.19636 59.9848C2.38112 60.0239 2.57382 59.988 2.73209 59.885C2.89036 59.782 3.00123 59.6203 3.04031 59.4356C3.14898 58.9217 3.251 58.4604 3.35113 58.0333C5.58994 59.7673 8.05464 59.9485 10.7466 59.949C11.5399 59.9625 12.3249 59.7856 13.0357 59.4331C13.7465 59.0806 14.3624 58.5629 14.8318 57.9233C15.224 57.3665 15.4746 56.7227 15.5622 56.0474C15.6497 55.3721 15.5715 54.6856 15.3344 54.0473C15.2466 53.802 15.1673 53.5643 15.0942 53.3327C15.4739 53.4124 15.8502 53.4869 16.226 53.5529C15.8706 54.9427 15.602 56.6292 15.5882 56.7142C15.5589 56.9005 15.6047 57.0909 15.7156 57.2435C15.8266 57.3961 15.9936 57.4985 16.18 57.528C16.2171 57.534 16.2547 57.537 16.2924 57.537C16.4617 57.5367 16.6254 57.476 16.754 57.3659C16.8827 57.2558 16.9678 57.1035 16.9942 56.9362C16.9976 56.9154 17.2837 55.1169 17.6387 53.7726C19.6004 54.034 21.5769 54.1695 23.556 54.1783V57.2205C23.556 57.4093 23.631 57.5903 23.7645 57.7238C23.898 57.8573 24.079 57.9323 24.2678 57.9323C24.4566 57.9323 24.6376 57.8573 24.7711 57.7238C24.9046 57.5903 24.9796 57.4093 24.9796 57.2205V54.1788C26.9476 54.171 28.9131 54.0359 30.8637 53.7745C31.2182 55.1179 31.5043 56.9154 31.5076 56.9362C31.5341 57.1035 31.6192 57.2558 31.7479 57.3659C31.8765 57.476 32.0402 57.5367 32.2095 57.537C32.2471 57.5371 32.2848 57.534 32.3219 57.528C32.5083 57.4985 32.6753 57.3961 32.7862 57.2435C32.8972 57.0909 32.943 56.9005 32.9137 56.7142C32.8999 56.6292 32.6313 54.9423 32.2759 53.5524C33.6355 53.318 34.9766 52.9869 36.289 52.5616C37.0164 54.7761 37.5373 57.0533 37.845 59.3639C37.8676 59.5493 37.9623 59.7183 38.1084 59.8345C38.2546 59.9507 38.4405 60.0049 38.6262 59.9853C38.8119 59.9657 38.9825 59.8739 39.1011 59.7297C39.2198 59.5855 39.277 59.4004 39.2605 59.2144C39.2296 58.9207 38.4652 51.986 34.8891 45.8328H34.8934L38.3461 46.8839C38.3716 46.9053 38.3937 46.9306 38.4115 46.9588C41.9074 51.8303 42.6979 59.2837 42.706 59.3582C42.7237 59.5335 42.8059 59.696 42.9365 59.8142C43.0671 59.9325 43.2369 59.9981 43.4131 59.9984C43.4373 59.9984 43.4605 59.9984 43.4852 59.995C43.5782 59.9857 43.6684 59.9581 43.7508 59.9138C43.8331 59.8695 43.9059 59.8095 43.9651 59.7371C44.0242 59.6647 44.0685 59.5814 44.0954 59.4919C44.1223 59.4023 44.1314 59.3084 44.122 59.2154C43.7502 56.1113 42.9642 53.071 41.785 50.1757C42.3276 50.7999 42.795 51.4857 43.1777 52.219L43.1834 52.2299C44.085 53.933 44.7792 56.1775 45.4659 59.4356C45.4996 59.5951 45.5871 59.7383 45.7137 59.8411C45.8403 59.9439 45.9984 60.0001 46.1615 60.0003C46.2113 60.0003 46.2609 59.9952 46.3096 59.9851C46.4942 59.9461 46.6559 59.8354 46.7589 59.6772C46.862 59.5191 46.898 59.3265 46.8591 59.1418C46.218 56.112 45.5442 53.6819 44.5002 51.6799ZM13.6707 57.1037C13.3328 57.5571 12.8912 57.923 12.3829 58.1706C11.8745 58.4183 11.3143 58.5406 10.749 58.5273C7.00783 58.5273 4.71966 58.0196 2.59615 55.2474C1.30924 53.5662 1.09285 51.4284 1.87392 48.0996C2.58122 45.0198 3.77492 42.0724 5.4101 39.3683C7.85059 35.5493 8.8618 30.5896 8.41575 24.6224C8.08738 20.2306 8.85801 16.0335 10.9151 11.0058C13.142 5.56255 18.7547 1.61401 24.2621 1.61401H24.2668C29.4752 1.61401 34.7914 5.16964 37.8113 10.6666C39.1527 13.1023 40.2138 19.2901 40.173 24.1308C40.0239 23.629 39.7645 23.167 39.4137 22.7784C39.0321 22.3893 38.5714 22.0866 38.0628 21.8907C37.5542 21.6948 37.0095 21.6103 36.4655 21.6428C34.4374 19.6047 34.1356 17.3199 33.8736 15.2956C33.5984 13.1697 33.3393 11.1615 31.0739 10.2708C30.7889 10.1674 30.5354 9.99217 30.3379 9.76211C28.6387 7.67419 26.4596 6.62264 24.2085 6.80011C21.7618 6.99419 19.5192 8.64745 17.8944 11.4543C15.6865 15.2676 15.4421 18.4939 15.2266 21.3396C15.0734 23.3559 14.9296 25.2597 14.0878 27.1027C13.564 28.2191 13.1903 29.3998 12.9764 30.6142C12.9553 30.6794 12.9438 30.7474 12.9423 30.8159C12.5626 33.3784 13.1795 35.3282 13.749 37.1105C14.0187 37.8987 14.2413 38.7022 14.4157 39.5168C14.8864 41.9421 14.3877 43.5233 13.8595 45.1969C13.8367 45.2686 13.8144 45.3393 13.7917 45.4124C13.7818 45.4382 13.7736 45.4647 13.767 45.4916C12.9429 47.716 12.8071 50.137 13.3774 52.4396C13.3844 52.5048 13.4003 52.5687 13.4249 52.6294C13.5826 53.2716 13.7735 53.9051 13.9967 54.5275C14.1583 54.9507 14.2131 55.4071 14.1562 55.8565C14.0993 56.3058 13.9326 56.7342 13.6707 57.1037ZM36.3697 28.7845C36.3132 28.7873 36.257 28.793 36.2012 28.8015C36.3761 28.0569 36.5185 27.2789 36.6283 26.4678C36.8817 26.0042 37.1939 26.0279 37.3016 26.0379C37.3949 26.0475 37.4892 26.0385 37.5791 26.0115C37.6689 25.9845 37.7525 25.94 37.8251 25.8805C37.8977 25.8211 37.9578 25.7479 38.002 25.6652C38.0462 25.5824 38.0736 25.4918 38.0826 25.3984C38.0917 25.305 38.0822 25.2108 38.0547 25.1211C38.0272 25.0314 37.9822 24.948 37.9223 24.8758C37.8625 24.8035 37.789 24.7438 37.706 24.7001C37.623 24.6564 37.5322 24.6295 37.4388 24.621C37.2295 24.6011 37.0184 24.6135 36.8129 24.6575C36.8489 24.1403 36.8693 23.6107 36.8802 23.0731C37.4423 23.1002 37.9732 23.3397 38.3655 23.7431C38.6278 24.0742 38.8111 24.4608 38.9016 24.8734C38.992 25.286 38.9872 25.7138 38.8875 26.1243C38.6151 27.2564 37.928 28.2451 36.9619 28.895C36.7724 28.8239 36.572 28.7865 36.3697 28.7845ZM36.6957 30.5336C36.6956 30.5979 36.6766 30.6608 36.6408 30.7144C36.6051 30.7679 36.5543 30.8096 36.4948 30.8343C36.4354 30.8589 36.3699 30.8654 36.3068 30.8529C36.2437 30.8404 36.1857 30.8094 36.1401 30.7639C36.0946 30.7184 36.0635 30.6605 36.0509 30.5974C36.0383 30.5343 36.0447 30.4688 36.0692 30.4093C36.0938 30.3498 36.1355 30.299 36.1889 30.2631C36.2424 30.2273 36.3053 30.2081 36.3697 30.208C36.456 30.208 36.5389 30.2423 36.6 30.3034C36.6611 30.3644 36.6955 30.4472 36.6957 30.5336ZM15.8136 39.2468C15.6286 38.3775 15.3922 37.52 15.1056 36.6787C14.7987 35.7889 14.5556 34.8783 14.3782 33.954C14.8442 34.7054 15.3988 35.3981 16.03 36.0172C17.0454 37.0332 18.1801 37.9226 19.4091 38.666C19.4091 38.6954 19.4053 38.7206 19.4034 38.7505C19.3057 40.4374 19.1714 42.7474 16.6958 44.0035C16.3783 44.1634 16.0068 44.3257 15.5569 44.5013C16.0806 42.7988 16.1689 40.9922 15.8136 39.2468ZM17.0208 34.9951C15.844 33.7933 14.9457 32.3474 14.3896 30.7599C14.59 29.7001 14.9239 28.6699 15.3832 27.694C16.056 26.1161 16.448 24.4328 16.5415 22.72L16.5529 22.7167C16.6496 22.6861 16.748 22.6612 16.8476 22.6422C16.9482 22.6151 17.0483 22.5947 17.1485 22.5758C17.0261 22.6831 16.928 22.8152 16.8606 22.9634C16.7933 23.1116 16.7583 23.2724 16.7579 23.4351V24.0473C16.7641 24.3491 16.8883 24.6365 17.1039 24.8478C17.3195 25.0591 17.6094 25.1774 17.9113 25.1774C18.2132 25.1774 18.503 25.0591 18.7187 24.8478C18.9343 24.6365 19.0585 24.3491 19.0646 24.0473V23.4351C19.0645 23.2793 19.0326 23.1252 18.971 22.9821C18.9094 22.839 18.8194 22.71 18.7063 22.6028C19.0208 22.6751 19.3247 22.7877 19.6103 22.9378L19.6468 22.9573C19.7516 23.0124 19.8723 23.0297 19.9883 23.0061C20.1044 22.9825 20.2087 22.9196 20.2836 22.8279C20.3586 22.7362 20.3995 22.6214 20.3995 22.503C20.3995 22.3846 20.3586 22.2698 20.2837 22.1781C19.9184 21.7462 19.4394 21.4254 18.9009 21.2523C18.366 21.0821 17.7999 21.0334 17.2438 21.1099C17.0475 21.1378 16.8533 21.1791 16.6626 21.2333C16.7147 20.5472 16.7712 19.8539 16.8557 19.1454C16.9838 19.1454 17.1119 19.1454 17.2396 19.1497L18.8966 19.1971C19.4277 19.2187 19.9572 19.2703 20.4825 19.3518L20.5129 19.3575C20.647 19.3799 20.7846 19.3531 20.9006 19.2822C21.0165 19.2112 21.103 19.1008 21.1441 18.9712C21.1852 18.8416 21.1781 18.7015 21.1242 18.5767C21.0703 18.4519 20.9732 18.3507 20.8507 18.2917C20.2683 18.0233 19.6441 17.8572 19.0053 17.8006C18.3932 17.7323 17.7749 17.7415 17.1651 17.8281C17.1252 17.8343 17.0863 17.8424 17.0469 17.8485C17.393 15.8452 18.0979 13.9208 19.1277 12.168C20.5095 9.77587 22.3545 8.37507 24.3214 8.21942C26.0895 8.07374 27.8386 8.94592 29.2337 10.6604C29.5849 11.0808 30.0391 11.4029 30.552 11.5952C31.9679 12.1518 32.18 13.3097 32.461 15.4787C32.5601 16.3778 32.7154 17.2697 32.926 18.1494C32.4034 18.0145 31.8741 17.9074 31.3401 17.8286C30.7303 17.742 30.112 17.7328 29.4999 17.8011C28.8612 17.8577 28.2369 18.0238 27.6545 18.2922C27.5323 18.3514 27.4355 18.4526 27.3819 18.5773C27.3283 18.7021 27.3214 18.8419 27.3625 18.9713C27.4036 19.1007 27.4899 19.211 27.6057 19.2819C27.7214 19.3528 27.8589 19.3797 27.9928 19.3575L28.0227 19.3523C28.548 19.2708 29.0775 19.2191 29.6086 19.1976L31.2656 19.1501C31.8275 19.1277 32.3902 19.1389 32.9507 19.1838C33.0546 19.1929 33.1571 19.2099 33.261 19.2218C33.7329 20.5142 34.4848 21.6863 35.4628 22.6541C35.4192 28.0926 33.9804 32.5793 31.4844 34.9951C29.8335 36.5947 27.8723 38.1706 24.7271 38.8644C24.4146 38.9338 24.0906 38.9338 23.7781 38.8644C20.6329 38.1706 18.6717 36.5947 17.0208 34.9951ZM35.8244 51.2153C31.4422 52.6517 26.3875 52.7756 24.2896 52.7538C24.2825 52.7538 24.2759 52.7538 24.2687 52.7538C24.2616 52.7538 24.2564 52.7538 24.2502 52.7538H24.245C21.895 52.7786 19.5468 52.6182 17.222 52.274L17.1978 52.2702C16.3721 52.143 15.5289 51.9817 14.6899 51.7829C14.2869 49.9283 14.4071 47.9983 15.0373 46.2081C15.8238 45.9469 16.5926 45.6349 17.3388 45.2743C20.2429 43.7999 20.6604 41.1933 20.7905 39.3754C21.6522 39.7582 22.5505 40.0528 23.4715 40.2547C23.9872 40.3696 24.5218 40.3696 25.0375 40.2547C25.9579 40.0526 26.8555 39.758 27.7167 39.3754C27.8481 41.1919 28.2647 43.8004 31.1684 45.2738C31.9238 45.6391 32.7021 45.9552 33.4983 46.22C33.5254 46.2983 33.5597 46.3739 33.6008 46.4459C34.4813 47.967 35.2254 49.563 35.8244 51.2153ZM41.9971 48.3601C41.4797 47.9044 40.9033 47.5204 40.2835 47.2184C40.0567 46.8464 39.8185 46.4819 39.5656 46.127C39.3782 45.8449 39.1009 45.6343 38.7788 45.5296L35.3091 44.4699C35.0551 44.3956 34.7859 44.3904 34.5293 44.4548C34.2726 44.5192 34.0378 44.6509 33.849 44.8363C33.1521 44.6018 32.4706 44.3238 31.8085 44.004C29.3329 42.7484 29.1986 40.4384 29.098 38.7519C29.098 38.7215 29.0942 38.6964 29.0923 38.6665C30.3229 37.9233 31.4588 37.0338 32.4752 36.0172C33.6623 34.824 34.5967 33.4037 35.2227 31.8414C35.5386 32.1229 35.9465 32.2792 36.3697 32.2808C36.8335 32.2804 37.2782 32.096 37.6062 31.7681C37.9342 31.4402 38.1187 30.9955 38.1192 30.5317C38.1181 30.3158 38.0766 30.1021 37.9968 29.9015C38.8885 29.2256 39.5847 28.3249 40.014 27.2916C39.8242 29.6543 39.5224 31.4741 39.2481 33.1164C38.8427 35.0584 38.6675 37.0413 38.7262 39.0243C38.888 41.7025 39.7663 43.1721 40.6959 44.729C41.5464 46.0331 42.1889 47.4616 42.6002 48.9632C42.408 48.7601 42.2087 48.5566 41.9971 48.3601Z" fill="#971F1A"/>
<path d="M28.8973 22.9288L28.9182 22.9155C29.1868 22.7318 29.4821 22.5905 29.7937 22.4965C29.6436 22.6026 29.5211 22.7432 29.4365 22.9064C29.3518 23.0697 29.3075 23.2508 29.3073 23.4346V24.0468C29.3134 24.3486 29.4376 24.636 29.6533 24.8473C29.8689 25.0586 30.1588 25.177 30.4607 25.177C30.7625 25.177 31.0524 25.0586 31.268 24.8473C31.4837 24.636 31.6079 24.3486 31.614 24.0468V23.4346C31.6138 23.252 31.5701 23.072 31.4865 22.9096C31.4029 22.7472 31.2818 22.6071 31.1333 22.5008C31.2918 22.5335 31.4526 22.5691 31.6159 22.6189C31.7189 22.6446 32.1213 22.767 32.2878 22.8087C32.618 22.9017 32.9674 22.9017 33.2976 22.8087C33.4714 22.7573 33.6298 22.6639 33.7589 22.5368C33.8881 22.4097 33.9841 22.2528 34.0383 22.0799C34.0535 22.0217 34.0528 21.9605 34.0363 21.9026C34.0199 21.8448 33.9881 21.7924 33.9445 21.751C33.9009 21.7096 33.847 21.6806 33.7884 21.6671C33.7298 21.6535 33.6686 21.656 33.6113 21.6741L33.5197 21.7031C33.3819 21.7505 33.2329 21.7546 33.0926 21.715C32.959 21.6816 32.8299 21.6325 32.7078 21.5688C32.6523 21.5313 32.1701 21.3225 32.0482 21.2755C31.7969 21.1849 31.5392 21.1135 31.2771 21.062C30.7028 20.9427 30.1072 20.9767 29.5503 21.1607C29.0026 21.3575 28.5299 21.7201 28.1979 22.198C28.1288 22.2956 28.0958 22.4141 28.1046 22.5334C28.1134 22.6526 28.1635 22.765 28.2462 22.8513C28.3289 22.9376 28.4391 22.9924 28.5579 23.0063C28.6766 23.0202 28.7965 22.9923 28.8968 22.9274L28.8973 22.9288Z" fill="#971F1A"/>
<path d="M48.0065 25.5515L47.4637 25.254L47.1671 24.7116C47.0546 24.5062 46.8889 24.3349 46.6874 24.2155C46.4859 24.0962 46.256 24.0332 46.0218 24.0332C45.7876 24.0332 45.5577 24.0962 45.3563 24.2155C45.1548 24.3349 44.9891 24.5062 44.8765 24.7116L44.58 25.254L44.0381 25.5511C43.8324 25.6634 43.6608 25.829 43.5413 26.0305C43.4217 26.232 43.3586 26.462 43.3586 26.6963C43.3586 26.9306 43.4217 27.1606 43.5413 27.3622C43.6608 27.5637 43.8324 27.7293 44.0381 27.8416L44.5804 28.1382L44.8775 28.6806C44.9899 28.8861 45.1556 29.0576 45.3571 29.177C45.5586 29.2965 45.7885 29.3595 46.0228 29.3595C46.257 29.3595 46.487 29.2965 46.6885 29.177C46.89 29.0576 47.0556 28.8861 47.168 28.6806L47.4646 28.1382L48.007 27.8416C48.2125 27.7293 48.384 27.5637 48.5035 27.3622C48.623 27.1607 48.686 26.9308 48.686 26.6966C48.686 26.4623 48.623 26.2324 48.5035 26.031C48.384 25.8295 48.2121 25.6639 48.0065 25.5515ZM46.749 26.9058C46.5302 27.0256 46.3504 27.2056 46.2309 27.4245L46.0216 27.8084L45.8128 27.4259C45.6934 27.2056 45.513 27.0243 45.2932 26.9039L44.9102 26.6947L45.2899 26.4854C45.5103 26.3663 45.6916 26.186 45.8118 25.9663L46.0211 25.5829L46.2299 25.9625C46.3492 26.1821 46.5295 26.3626 46.749 26.4821L47.1325 26.6923L46.749 26.9058Z" fill="#971F1A"/>
<path d="M56.5375 4.29578C56.518 4.28841 56.5015 4.27452 56.491 4.25646C56.4805 4.23841 56.4764 4.21727 56.4796 4.19661C56.5748 3.46648 56.4509 2.72455 56.1237 2.06494C55.7965 1.40534 55.2807 0.857791 54.6418 0.491762C54.003 0.125733 53.2698 -0.0422795 52.5353 0.0090404C51.8007 0.0603603 51.098 0.328699 50.5163 0.780014C50.4999 0.793146 50.4796 0.800305 50.4586 0.800305C50.4376 0.800305 50.4173 0.793146 50.401 0.780014C49.8163 0.332313 49.1118 0.0683699 48.3769 0.021672C47.642 -0.025026 46.9097 0.147626 46.2731 0.517723C45.6365 0.88782 45.1241 1.43868 44.801 2.10042C44.478 2.76216 44.3587 3.50496 44.4585 4.23457C44.4618 4.25525 44.4579 4.27645 44.4475 4.2946C44.437 4.31275 44.4206 4.32674 44.401 4.33422C43.7213 4.61641 43.1407 5.09401 42.7327 5.70652C42.3247 6.31902 42.1078 7.03885 42.1093 7.77479C42.1108 8.51074 42.3308 9.22966 42.7413 9.84047C43.1518 10.4513 43.7344 10.9265 44.4153 11.2058C44.4351 11.2132 44.4517 11.2272 44.4623 11.2455C44.4728 11.2638 44.4767 11.2851 44.4732 11.306C44.376 12.0362 44.498 12.7788 44.8238 13.4394C45.1496 14.1001 45.6645 14.649 46.3029 15.0164C46.9414 15.3839 47.6746 15.5532 48.4095 15.503C49.1444 15.4528 49.8478 15.1853 50.4304 14.7344C50.4465 14.7211 50.4668 14.7138 50.4878 14.7138C50.5088 14.7138 50.5291 14.7211 50.5452 14.7344C51.1288 15.1833 51.8326 15.4487 52.5673 15.4971C53.302 15.5454 54.0344 15.3745 54.6718 15.0059C55.3092 14.6374 55.8228 14.0879 56.1475 13.427C56.4721 12.7662 56.5932 12.0238 56.4953 11.2941C56.4919 11.2734 56.4957 11.2522 56.5061 11.234C56.5164 11.2157 56.5327 11.2016 56.5522 11.194C57.2334 10.9143 57.8159 10.4381 58.2254 9.82621C58.6349 9.21427 58.853 8.49426 58.8518 7.75793V7.72282C58.85 6.98634 58.6289 6.26707 58.2168 5.65673C57.8046 5.04638 57.22 4.5726 56.5375 4.29578ZM57.4282 7.75983C57.4288 8.21431 57.294 8.65866 57.0412 9.03632C56.7884 9.41397 56.4288 9.70783 56.0084 9.88049C55.6992 10.0085 55.4409 10.2351 55.2737 10.5251C55.1066 10.8151 55.0399 11.1521 55.0841 11.4839C55.1445 11.9343 55.0699 12.3924 54.8696 12.8003C54.6692 13.2082 54.3523 13.5473 53.959 13.7748C53.5656 14.0023 53.1136 14.1078 52.6601 14.078C52.2067 14.0482 51.7724 13.8844 51.4122 13.6074C51.1468 13.4035 50.8215 13.2929 50.4868 13.2929C50.1522 13.2929 49.8269 13.4035 49.5615 13.6074C49.202 13.8853 48.7681 14.0501 48.3148 14.081C47.8614 14.1118 47.4092 14.0074 47.0153 13.7808C46.6215 13.5542 46.3038 13.2157 46.1026 12.8083C45.9015 12.4009 45.8258 11.9429 45.8854 11.4925C45.9291 11.1604 45.8618 10.8233 45.694 10.5335C45.5262 10.2436 45.2674 10.0174 44.9577 9.88998C44.5371 9.71786 44.1772 9.42469 43.9235 9.04766C43.6698 8.67064 43.5339 8.22675 43.5329 7.77234C43.532 7.31792 43.666 6.87347 43.9181 6.49536C44.1701 6.11726 44.5288 5.82256 44.9486 5.64866C45.2575 5.51992 45.5153 5.29274 45.6817 5.00243C45.8482 4.71213 45.9141 4.37496 45.8692 4.04334C45.8069 3.59288 45.8801 3.13408 46.0793 2.7253C46.2785 2.31652 46.5948 1.97624 46.988 1.74776C47.3812 1.51928 47.8334 1.41291 48.2872 1.4422C48.741 1.47149 49.1758 1.63511 49.5364 1.91224C49.8026 2.11484 50.1282 2.22403 50.4627 2.22292C50.7973 2.2218 51.1221 2.11044 51.387 1.90607C51.7459 1.62748 52.1795 1.46179 52.6328 1.43C53.086 1.39822 53.5385 1.50178 53.9328 1.72755C54.3271 1.95332 54.6454 2.29112 54.8474 2.69809C55.0495 3.10507 55.126 3.56288 55.0675 4.01344C55.0246 4.34554 55.0927 4.68249 55.2611 4.97188C55.4296 5.26127 55.689 5.48686 55.999 5.61354C56.4198 5.7839 56.7805 6.0757 57.035 6.45176C57.2894 6.82783 57.4261 7.27113 57.4277 7.72519L57.4282 7.75983Z" fill="#971F1A"/>
</svg>
