<svg width="112" height="50" viewBox="0 0 112 50" fill="none" xmlns="http://www.w3.org/2000/svg">
<path d="M21.7243 44.8942C21.9983 44.8286 22.2057 44.8067 22.3834 44.7266C23.0721 44.4133 23.7534 44.4206 24.4273 44.7557C25.3011 45.1929 26.1231 45.6957 26.4637 46.6794C26.7896 47.6048 26.7007 48.7197 25.8343 49.1642C25.4122 49.3828 24.916 49.4848 24.4347 49.5504C23.1313 49.7471 21.8132 49.8564 20.495 49.769C19.9989 49.7398 19.4953 49.6305 19.0288 49.4775C18.3475 49.2516 17.9772 48.7124 17.7995 48.0493C17.6143 47.3279 17.444 46.5993 17.2811 45.8706C17.133 45.2294 16.9034 44.6246 16.4961 44.0927C15.8815 43.2911 15.726 42.4021 15.8963 41.4257C16.037 40.595 16.1925 39.7498 16.2073 38.9118C16.2221 38.3216 16.0888 37.7095 15.8815 37.1484C15.4075 35.8587 16.1333 35.0863 16.9923 34.7074C17.5033 34.4815 18.0438 34.3139 18.5548 34.088C18.6733 34.037 18.8214 33.8476 18.814 33.731C18.6733 31.6543 19.4805 29.8107 20.2803 27.9672C20.6357 27.1511 20.9542 26.3131 21.2207 25.4679C21.6429 24.1344 22.413 23.0049 23.1609 21.8464C24.0274 20.5056 24.8494 19.1357 25.6195 17.7512C26.0713 16.9351 26.3971 16.0462 26.7674 15.2082C23.8348 15.2446 20.8727 15.2738 17.9031 15.3102C16.659 15.3248 15.4075 15.3248 14.1634 15.3904C12.6379 15.4705 11.1717 15.864 9.74985 16.3886C8.51315 16.8404 7.35792 17.4233 6.31376 18.2322C4.62534 19.5365 3.61081 21.2051 3.3294 23.3183C3.08503 25.14 3.62562 26.692 4.92896 27.9672C5.50658 28.5356 6.12863 29.0966 6.82473 29.4901C7.34311 29.7816 8.00959 29.9054 8.61683 29.9273C9.9646 29.971 11.1939 30.3062 12.3047 31.0422C13.7932 32.0259 14.9854 33.3083 16.1259 34.6491C16.1481 34.6709 16.1407 34.7147 16.1555 34.8021C15.3779 34.9843 14.6078 35.1956 13.8228 35.3486C13.2378 35.4652 12.6379 35.5162 12.0381 35.5891C10.7792 35.7348 9.57952 35.4943 8.42429 34.9989C7.71337 34.6928 7.02468 34.3649 6.57295 33.6945C6.30636 33.3011 6.12863 32.893 6.18787 32.4121C6.2323 31.9894 5.9583 31.9312 5.63247 31.8146C4.64756 31.4502 3.75891 30.9183 2.98876 30.2188C1.70022 29.0165 0.944878 27.5373 0.611637 25.8103C0.404287 24.7538 0.411693 23.6972 0.515368 22.6698C0.789366 20.0757 1.95201 17.9261 4.14399 16.3522C5.75836 15.1936 7.4764 14.2536 9.35736 13.5978C10.9051 13.0586 12.4972 12.6578 14.1264 12.4902C16.1555 12.2862 18.1845 12.1259 20.221 11.9729C21.5466 11.8709 22.8869 11.9 24.2051 11.7251C25.6417 11.5357 27.0784 11.2515 28.4854 10.8945C29.6999 10.5884 30.8699 10.1002 32.0622 9.7213C33.7136 9.19666 35.3798 8.69388 37.1052 8.48256C39.5564 8.17652 42.0298 8.27125 44.4884 8.38784C45.7769 8.44613 47.0728 8.56272 48.3614 8.61372C51.0569 8.72303 53.7525 8.86147 56.4554 8.89062C57.744 8.90519 59.0325 8.71574 60.3136 8.57C61.654 8.41698 62.987 8.22024 64.3199 8.03079C65.0975 7.92149 65.8676 7.76847 66.6378 7.65188C67.7486 7.48429 68.8668 7.33855 69.985 7.15639C70.6589 7.04709 71.3328 6.90135 71.9993 6.77019C72.7842 6.60988 73.5766 6.44958 74.4134 6.34756C74.3394 6.42772 74.2727 6.50787 74.1913 6.57345C72.8361 7.73932 72.0067 9.20395 71.629 10.9309C71.4068 11.951 71.2291 12.9857 70.9699 13.9986C70.7181 14.9823 70.3479 15.9296 69.6222 16.6947C69.2445 17.0882 68.8002 17.3723 68.2596 17.4962C68.8742 17.5181 69.3778 17.2557 69.8147 16.8696C70.533 16.2429 71.007 15.4414 71.2661 14.5524C71.6142 13.3574 71.8808 12.1332 72.1622 10.9163C72.488 9.49541 73.1175 8.22024 74.058 7.09081C74.5763 6.47144 75.2132 5.99051 75.8945 5.54603C76.287 5.29099 76.598 4.87565 76.8794 4.48945C77.5607 3.54218 78.3531 2.76979 79.5157 2.39089C80.9227 1.93911 82.3668 1.92454 83.8182 2.00469C84.0478 2.01926 84.2774 2.07756 84.4995 2.14314C85.0845 2.31802 85.6103 2.11399 86.1213 1.87353C86.9063 1.5092 87.6764 1.123 88.4762 0.787813C89.4611 0.372471 90.4682 0.226737 91.5568 0.350611C92.3566 0.445338 93.2008 0.321464 94.008 0.183017C94.8448 0.04457 95.6816 -0.0647304 96.5036 0.04457C97.4737 0.168444 98.3401 0.576499 98.7326 1.56749C98.8807 1.9464 99.1399 2.15043 99.5472 2.20143C100.939 2.36174 101.658 3.29444 102.132 4.45302C102.324 4.92666 102.391 5.4513 102.524 5.95408C102.635 6.384 102.761 6.83577 103.279 6.92321C103.739 7.00337 104.101 6.73376 104.398 6.41314C104.635 6.15811 104.849 5.88121 105.086 5.59703C105.36 6.55888 105.412 7.44057 104.568 8.1911C105.035 8.7376 105.531 9.25495 105.968 9.82332C106.345 10.3188 106.516 10.9017 106.612 11.5284C106.664 11.8636 106.849 12.2206 107.086 12.483C108.411 13.9476 109.737 15.4122 111.137 16.804C111.833 17.4962 111.662 19.0556 110.618 19.4126C110.307 19.5219 110.107 19.6676 109.981 20.0101C109.73 20.6951 109.122 21.0448 108.434 21.1468C107.552 21.278 106.649 21.2926 105.753 21.3873C104.864 21.482 103.983 21.6132 103.102 21.7516C102.806 21.7954 102.517 22.3929 102.606 22.7062C102.694 23.0268 103.131 23.3037 103.487 23.1798C103.813 23.0705 104.124 22.8884 104.398 22.677C104.553 22.5532 104.642 22.5167 104.798 22.626C105.19 22.9102 105.634 23.1361 105.968 23.4713C106.39 23.8939 106.39 24.3311 106.049 24.8266C105.79 25.2055 105.686 25.599 105.701 26.0508C105.716 26.5098 105.708 26.9762 105.627 27.4207C105.494 28.1785 104.953 28.5938 104.176 28.5793C103.635 28.572 103.094 28.5428 102.554 28.4991C102.472 28.4918 102.354 28.4044 102.324 28.3242C102.25 28.1129 102.161 27.8797 102.169 27.6611C102.184 27.2895 102.006 27.1074 101.687 26.9835C101.591 26.9471 101.495 26.8888 101.354 26.8159C101.406 27.1001 101.421 27.3624 101.495 27.6029C101.761 28.5137 101.31 29.1331 100.658 29.6796C100.51 29.8034 100.354 29.92 100.191 30.022C99.5028 30.4374 98.8881 30.8892 99.1843 31.8729C97.8514 31.3191 97.5996 30.0512 96.9775 28.9728C96.1852 30.5831 94.8596 31.647 93.6007 32.7983C93.1712 32.1206 93.2971 31.4429 93.1786 30.758C93.0601 31.0349 92.9342 31.3045 92.8231 31.5814C92.5491 32.2591 92.3862 33.0096 92.0011 33.6144C91.3198 34.6855 90.2757 35.3705 89.0538 35.7858C88.7946 35.8733 88.528 35.9534 88.1726 36.0627C88.2614 35.9097 88.2985 35.8368 88.3355 35.7785C88.9575 34.8677 89.0908 33.8621 88.9353 32.7983C88.6021 30.503 87.2913 28.8197 85.4548 27.479C84.2033 26.5681 82.9296 25.6937 81.6929 24.761C79.9971 23.4932 78.8122 21.8609 78.1457 19.8498C77.6496 18.356 77.3904 16.8331 77.42 15.2592C77.4274 14.9459 77.4718 14.6325 77.4422 14.3119C77.383 14.5815 77.2941 14.8439 77.2719 15.1135C77.1238 17.7221 77.5237 20.2141 78.9159 22.4949C79.7379 23.8502 80.9227 24.8703 82.1964 25.7958C83.485 26.7357 84.8105 27.6393 86.0546 28.6376C87.4542 29.7597 88.3133 31.2535 88.5799 33.0096C88.7576 34.2119 88.5651 35.385 87.4913 36.3105C88.5132 36.3396 89.276 35.8368 90.1646 35.4361C90.2905 36.0919 90.409 36.7185 90.5275 37.3452C90.6978 38.2924 90.7496 39.2761 91.0755 40.1724C91.3717 40.9812 91.9567 41.688 92.4232 42.4313C92.7935 43.0142 93.149 43.6117 93.2526 44.304C93.2897 44.5444 93.3859 44.5881 93.6007 44.6173C94.3634 44.7266 95.1262 44.8286 95.8816 44.9889C96.1259 45.0399 96.4147 45.2075 96.5332 45.4043C96.8961 46.0091 97.2515 46.6357 97.4959 47.2988C97.8588 48.2534 97.3182 49.1642 96.2888 49.3318C95.5335 49.4484 94.7485 49.4702 93.9784 49.4702C93.1193 49.4702 92.2529 49.4192 91.3939 49.3391C90.8977 49.2954 90.3942 49.2079 89.9202 49.0622C89.1575 48.8217 88.802 48.1951 88.6909 47.481C88.5502 46.5847 88.0763 45.9945 87.2469 45.6301C86.262 45.1929 85.5807 44.4861 85.2549 43.4441C85.1512 43.1235 84.9142 42.8321 84.6846 42.5697C84.4699 42.322 84.2107 42.1034 83.9441 41.9139C83.011 41.2363 82.3668 40.3254 81.7669 39.3854C81.2337 38.5475 80.7672 37.6731 80.2933 36.7987C79.8934 36.0554 78.9973 35.5745 78.1531 35.6109C76.5758 35.6838 75.265 35.0863 74.1913 33.9714C73.9247 33.6945 73.6729 33.3958 73.3767 33.0606C73.8876 32.8347 74.406 32.6088 74.9244 32.3756C76.4869 31.6761 77.6273 30.6123 78.0346 28.9145C78.042 28.878 78.0494 28.8489 78.0494 28.8124C78.0494 28.8052 78.042 28.7906 78.0346 28.7833C77.6792 29.2788 77.3385 29.7961 76.9535 30.2625C76.3388 31.0057 75.539 31.5304 74.6726 31.9457C73.3396 32.5797 72.3769 33.5852 71.629 34.8021C70.8959 35.9971 70.2368 37.2359 69.474 38.4163C68.815 39.4437 68.0596 40.4202 67.3561 41.4184C66.6748 42.3948 66.2157 43.4587 66.0824 44.6464C66.0676 44.763 66.0824 44.8869 66.0824 45.0181C66.7711 45.0982 67.1932 45.4917 67.4228 46.0601C68.0226 46.2932 68.6224 46.4973 69.2001 46.745C69.8665 47.0365 70.3331 48.1149 69.8443 48.778C69.5407 49.1933 69.089 49.3828 68.6298 49.4702C67.5264 49.6815 66.4156 49.9001 65.29 49.9803C63.9867 50.075 62.7278 49.8346 61.5947 49.1205C60.8468 48.6468 60.521 48.0639 60.6765 47.3498C60.7209 47.1239 60.8616 46.9053 60.9653 46.694C61.0912 46.439 61.2245 46.1839 61.3652 45.9143C61.143 45.7759 60.9357 45.6739 60.7579 45.5427C60.1359 45.0764 60.01 44.406 60.1951 43.7502C60.4469 42.8393 60.8172 41.9649 61.1578 41.0832C61.3948 40.4712 61.4911 39.8372 61.5651 39.1814C61.6762 38.2487 61.8465 37.3233 62.0613 36.4125C62.3723 35.0936 62.75 33.782 63.0832 32.4704C63.2017 32.0113 63.0092 31.7781 62.513 31.8073C61.617 31.8583 60.7283 31.9749 59.8323 31.9967C58.9733 32.0186 58.1068 31.9967 57.2404 31.9312C56.1592 31.851 55.1521 31.4794 54.1524 31.0713C52.812 30.5248 51.4568 30.0075 50.0942 29.5193C49.25 29.2132 48.7465 29.3589 48.2429 30.073C47.6875 30.86 47.0432 31.6105 46.8655 32.6015C46.7618 33.1772 46.6137 33.7528 46.5248 34.3358C46.2953 35.7931 45.7547 37.112 44.8957 38.3143C44.4069 38.9993 44.1033 39.7498 44.3847 40.5877C44.5032 40.9302 44.6809 41.3091 44.9475 41.5496C45.9546 42.4531 46.9766 43.3494 48.0652 44.1582C48.8946 44.7776 49.9091 44.8505 50.9236 44.7412C51.5531 44.6683 52.1973 44.6027 52.7305 45.0253C53.4933 45.6374 54.0043 46.3952 53.9376 47.4227C53.908 47.8817 53.4044 48.3845 52.8194 48.4865C52.227 48.5813 51.6271 48.6323 51.0273 48.7051C50.0868 48.8144 49.1537 48.9383 48.2133 49.033C47.3172 49.1205 46.4286 49.2006 45.5399 48.9456C45.0956 48.8217 44.7772 48.5667 44.518 48.2242C44.0663 47.6194 43.4812 47.1676 42.8 46.8397C41.504 46.2058 40.408 45.2877 39.3268 44.355C38.6159 43.7429 37.8902 43.1454 37.1941 42.5114C36.5943 41.9649 35.9278 41.4184 35.7797 40.5732C35.676 39.9611 35.6464 39.3126 35.7575 38.7078C36.0241 37.1849 36.1277 35.6765 35.6982 34.1827C35.5205 33.5707 35.2095 32.9804 34.891 32.4194C34.6615 32.0113 34.4467 32.0186 34.1801 32.3902C33.6617 33.1043 32.8916 33.2865 32.077 33.4322C31.3587 33.5634 30.6107 33.5779 29.9739 34.0006C29.4999 34.3212 29.0556 34.6564 28.752 35.1519C28.0115 36.3542 27.0339 37.214 25.5825 37.5419C24.02 37.899 23.0943 39.0138 22.5537 40.4347C22.339 41.0031 22.2353 41.6225 22.102 42.22C21.9539 42.8758 21.828 43.5389 21.7169 44.202C21.6947 44.3695 21.7243 44.5954 21.7243 44.8942ZM81.8114 6.05609C81.2856 6.44958 80.8413 6.90864 80.5525 7.48429C79.686 9.19666 79.4565 11.0183 79.7157 12.9056C79.9526 14.6835 80.745 16.2137 82.0631 17.4161C83.3295 18.5746 84.6772 19.6531 86.0472 20.7024C88.0911 22.2544 90.209 23.719 91.8678 25.701C92.5714 26.5463 93.2304 27.428 93.3711 28.5428C93.4378 29.0529 93.3785 29.5775 93.3785 30.0949C93.6229 29.3225 93.6822 28.521 93.3933 27.785C93.1045 27.0491 92.7343 26.3277 92.2751 25.6937C90.9718 23.8866 89.2538 22.4949 87.4913 21.1396C85.8251 19.8571 84.1811 18.5601 82.5815 17.1975C81.3745 16.1627 80.5377 14.8439 80.234 13.2772C80.0859 12.5413 80.0563 11.7762 80.0341 11.0183C80.0045 9.73588 80.1896 8.48256 80.8487 7.35313C81.1005 6.88678 81.4781 6.4933 81.8114 6.05609ZM98.4586 13.1752C98.2439 13.7654 98.0365 14.4212 97.7773 15.0479C97.3552 16.068 96.8294 17.059 96.4666 18.101C96.0963 19.1721 96.1704 20.2652 96.7184 21.2926C97.1701 22.1378 97.9328 22.6698 98.6956 23.1944C99.4583 23.7263 100.236 24.2583 100.673 25.1035C100.925 25.5844 101.11 26.1018 101.332 26.6192C101.228 25.65 100.984 24.7246 100.28 24.0178C99.6879 23.413 99.0066 22.8884 98.3401 22.3564C97.022 21.3071 96.4518 19.9737 96.9035 18.3488C97.2145 17.2266 97.6885 16.1555 98.0735 15.0479C98.2957 14.4212 98.4956 13.7727 98.4586 13.1752ZM48.7983 28.9363C48.8353 28.8999 48.8649 28.8635 48.902 28.827C48.6872 28.6449 48.4725 28.4773 48.2577 28.2878C47.0877 27.2677 46.1324 26.0945 45.4881 24.6736C44.9105 23.3984 44.8809 22.0577 44.8586 20.7024C44.8438 19.8498 44.7772 18.99 44.6735 18.1374C44.6143 17.6857 44.4143 17.2412 44.2736 16.7967C44.244 16.804 44.207 16.8185 44.1773 16.8258C44.2292 16.9716 44.3032 17.11 44.3181 17.263C44.3995 18.203 44.4736 19.1357 44.5254 20.0757C44.592 21.1978 44.592 22.3273 44.6883 23.4422C44.8216 24.9286 45.5844 26.1382 46.6433 27.1511C47.3172 27.7996 48.08 28.3461 48.7983 28.9363ZM64.0089 35.3778C64.0755 35.3413 64.1052 35.3268 64.1126 35.3122C64.4976 34.1827 64.9123 33.0606 64.8309 31.8364C64.7791 31.0786 64.705 30.3208 64.668 29.563C64.6235 28.5793 64.6235 27.6029 65.2826 26.7503C65.1049 26.896 64.9272 27.0418 64.8087 27.2312C64.0978 28.3097 64.0681 29.5193 64.2088 30.7288C64.3273 31.7053 64.3792 32.6817 64.2385 33.6581C64.1718 34.2119 64.0904 34.7803 64.0089 35.3778ZM102.709 8.83233C102.28 8.99263 101.924 9.1748 101.539 9.25495C100.68 9.42983 99.8064 9.54642 98.94 9.70673C97.7625 9.92533 96.8517 10.4864 96.437 11.6596C96.1852 12.3737 96.3036 13.0003 96.7998 13.4375C96.7332 13.2043 96.6221 12.9712 96.6073 12.7307C96.5554 11.7907 97.2886 10.7633 98.2735 10.45C99.051 10.2022 99.8508 10.0419 100.643 9.85975C101.399 9.68487 102.117 9.4517 102.709 8.83233ZM34.9799 31.166C37.0904 28.3971 39.6082 26.386 43.1332 25.9051C40.3192 25.4751 35.8611 28.3169 34.9799 31.166Z" fill="#A40005"/>
</svg>
