<svg width="64" height="52" viewBox="0 0 64 52" fill="none" xmlns="http://www.w3.org/2000/svg">
<path d="M32.7275 50.1836H8.65964C7.82484 50.1836 6.99821 50.0192 6.22696 49.6997C5.4557 49.3803 4.75492 48.912 4.16463 48.3217C3.57434 47.7315 3.10609 47.0307 2.78662 46.2594C2.46716 45.4882 2.30273 44.6615 2.30273 43.8267V8.77878C2.30273 7.09282 2.97248 5.47592 4.16463 4.28377C5.35678 3.09162 6.97368 2.42188 8.65964 2.42188H55.9455C57.6314 2.42188 59.2483 3.09162 60.4405 4.28377C61.6326 5.47592 62.3024 7.09282 62.3024 8.77878V41.0052" stroke="#971F1A" stroke-width="3" stroke-linecap="round" stroke-linejoin="round"/>
<path d="M31.878 50.1836H55.9458C56.7806 50.1836 57.6073 50.0192 58.3785 49.6997C59.1498 49.3803 59.8505 48.912 60.4408 48.3217C61.0311 47.7315 61.4994 47.0307 61.8188 46.2594C62.1383 45.4882 62.3027 44.6615 62.3027 43.8267V8.77878C62.3027 7.09282 61.633 5.47592 60.4408 4.28377C59.2487 3.09162 57.6318 2.42188 55.9458 2.42188H8.65999C6.97403 2.42188 5.35712 3.09162 4.16497 4.28377C2.97282 5.47592 2.30308 7.09282 2.30308 8.77878V41.0052" stroke="#971F1A" stroke-width="3" stroke-linecap="round" stroke-linejoin="round"/>
<path d="M57.5438 9.84082L32.3031 25.7076L7.0625 9.84082" stroke="#971F1A" stroke-width="3" stroke-linecap="round" stroke-linejoin="round"/>
</svg>
