<svg width="48" height="61" viewBox="0 0 48 61" fill="none" xmlns="http://www.w3.org/2000/svg">
<path d="M23.9957 32.3809C24.6746 32.3581 25.322 32.0888 25.8168 31.6234C25.9606 31.4997 26.0493 31.3239 26.0635 31.1348C26.0776 30.9456 26.0161 30.7586 25.8924 30.6149C25.7686 30.4711 25.5929 30.3824 25.4038 30.3682C25.2146 30.354 25.0276 30.4156 24.8838 30.5393C24.7738 30.667 24.6375 30.7695 24.4842 30.8398C24.3309 30.9101 24.1643 30.9465 23.9957 30.9465C23.8271 30.9465 23.6604 30.9101 23.5072 30.8398C23.3539 30.7695 23.2176 30.667 23.1075 30.5393C23.0363 30.478 22.9538 30.4314 22.8646 30.402C22.7754 30.3727 22.6813 30.3612 22.5876 30.3682C22.494 30.3752 22.4026 30.4006 22.3188 30.4429C22.2349 30.4853 22.1603 30.5437 22.099 30.6149C22.0377 30.6861 21.9911 30.7686 21.9617 30.8578C21.9324 30.947 21.9209 31.0411 21.9279 31.1348C21.9349 31.2284 21.9603 31.3198 22.0026 31.4036C22.045 31.4875 22.1034 31.5621 22.1746 31.6234C22.6694 32.0888 23.3168 32.3581 23.9957 32.3809Z" fill="#971F1A"/>
<path d="M27.5449 34.9314H27.5368C26.9876 35.0441 26.4229 35.0603 25.8682 34.979C25.7299 34.9595 25.5946 34.9314 25.4344 34.9023C25.207 34.85 24.972 34.8389 24.7407 34.8694C24.4986 34.9119 24.2685 35.0062 24.0661 35.1459C24.0443 35.1581 24.0197 35.1645 23.9946 35.1645C23.9696 35.1645 23.945 35.1581 23.9231 35.1459C23.7209 35.0063 23.491 34.912 23.249 34.8694C23.0175 34.8388 22.7825 34.8499 22.5549 34.9023C22.3947 34.9333 22.2593 34.9595 22.1211 34.979C21.5663 35.0603 21.0017 35.0441 20.4525 34.9314H20.4439C20.3195 34.9066 20.1903 34.9289 20.0814 34.9939C19.9724 35.0588 19.8914 35.1618 19.8539 35.283C19.8165 35.4042 19.8253 35.535 19.8786 35.6501C19.9319 35.7652 20.026 35.8565 20.1426 35.9063C20.7996 36.1892 21.5104 36.3253 22.2255 36.3048C22.4028 36.2996 22.5821 36.2843 22.7356 36.2724C22.8921 36.263 23.0464 36.3123 23.1685 36.4107C23.4013 36.5521 23.6674 36.6293 23.9398 36.6342H24.0466C24.319 36.6293 24.5851 36.5521 24.818 36.4107C24.9401 36.3122 25.0947 36.2629 25.2513 36.2724C25.4043 36.2843 25.585 36.2996 25.7609 36.3048C26.476 36.3253 27.1868 36.1892 27.8438 35.9063C27.9606 35.8565 28.0548 35.7652 28.1082 35.65C28.1616 35.5348 28.1704 35.4039 28.1328 35.2826C28.0953 35.1613 28.0141 35.0583 27.905 34.9934C27.7958 34.9285 27.6665 34.9064 27.542 34.9314H27.5449Z" fill="#971F1A"/>
<path d="M24.4531 37.5119C24.3123 37.587 24.1551 37.6263 23.9954 37.6263C23.8358 37.6263 23.6786 37.587 23.5378 37.5119C23.4527 37.4659 23.3591 37.4376 23.2628 37.4288C23.1664 37.4199 23.0693 37.4307 22.9773 37.4605C22.8852 37.4903 22.8002 37.5385 22.7273 37.6021C22.6544 37.6657 22.5952 37.7435 22.5532 37.8307C22.5112 37.9178 22.4874 38.0126 22.4831 38.1093C22.4788 38.2059 22.4942 38.3024 22.5283 38.393C22.5624 38.4835 22.6146 38.5662 22.6815 38.636C22.7485 38.7058 22.829 38.7613 22.918 38.7991C23.253 38.9665 23.6224 39.0537 23.9969 39.0537C24.3714 39.0537 24.7407 38.9665 25.0757 38.7991C25.2374 38.7116 25.3592 38.5653 25.4158 38.3904C25.4724 38.2155 25.4595 38.0255 25.3798 37.8599C25.3 37.6943 25.1596 37.5657 24.9875 37.5009C24.8155 37.4361 24.6252 37.4401 24.456 37.5119H24.4531Z" fill="#971F1A"/>
<path d="M28.1651 21.7389L28.1885 21.7346C29.3965 21.5565 30.6169 21.4759 31.8379 21.4934C32.4682 21.4749 33.0991 21.4939 33.7272 21.5501C34.3453 21.6003 34.9566 21.7135 35.5516 21.8882L35.5726 21.8948C35.6503 21.9193 35.7343 21.9141 35.8084 21.8803C35.8825 21.8465 35.9414 21.7864 35.9738 21.7117C36.0062 21.637 36.0098 21.5529 35.9839 21.4757C35.9579 21.3985 35.9043 21.3337 35.8334 21.2937C35.225 20.9678 34.5774 20.7212 33.9064 20.56C33.2505 20.3881 32.5847 20.2566 31.9127 20.1662C31.2339 20.0769 30.547 20.068 29.8661 20.1395C29.1592 20.2028 28.4674 20.3817 27.8185 20.6691C27.6929 20.7273 27.5929 20.8295 27.5375 20.9563C27.4821 21.0832 27.475 21.2259 27.5177 21.3576C27.5603 21.4893 27.6498 21.6009 27.7691 21.6711C27.8883 21.7414 28.0292 21.7655 28.1651 21.7389Z" fill="#971F1A"/>
<path d="M34.3347 25.7595C34.2335 25.5955 34.0937 25.4586 33.9275 25.3608C33.7614 25.263 33.5738 25.2073 33.3813 25.1984C33.036 25.1834 32.6918 25.2478 32.3753 25.3867L32.1684 25.4764L32.0154 25.5469C31.9096 25.5903 31.8061 25.6365 31.6965 25.6737C31.4843 25.7615 31.2636 25.833 31.0443 25.9021C30.6167 26.038 30.1757 26.1279 29.729 26.17C29.3283 26.2161 28.9224 26.1783 28.5372 26.0589L28.4709 26.0365C28.358 25.9987 28.2354 26.0015 28.1242 26.0443C28.0131 26.0872 27.9205 26.1675 27.8622 26.2714C27.804 26.3753 27.7838 26.4963 27.8052 26.6134C27.8266 26.7306 27.8882 26.8366 27.9794 26.9132C28.4829 27.3108 29.1055 27.5276 29.7471 27.5287C30.3314 27.5421 30.9138 27.4582 31.4705 27.2803C31.7423 27.1939 32.008 27.0892 32.2657 26.9671C32.3944 26.9061 32.5198 26.8332 32.6471 26.7631L32.834 26.6501C32.8931 26.6124 32.9217 26.5881 32.9674 26.5547C33.1143 26.4567 33.2708 26.3741 33.4346 26.3083C33.5815 26.2397 33.7449 26.2144 33.9057 26.2353L33.9943 26.2472C34.0637 26.2566 34.1342 26.2439 34.196 26.211C34.2348 26.1905 34.2691 26.1625 34.2971 26.1288C34.325 26.095 34.3461 26.056 34.359 26.014C34.3718 25.9721 34.3763 25.9281 34.3722 25.8844C34.368 25.8407 34.3553 25.7983 34.3347 25.7595Z" fill="#971F1A"/>
<path d="M20.1671 26.3588C20.1239 26.2302 20.0313 26.1241 19.9098 26.0637C19.7883 26.0034 19.6478 25.9938 19.5192 26.037L19.4539 26.0589C19.0687 26.1783 18.6628 26.2161 18.2621 26.17C17.8154 26.1279 17.3744 26.038 16.9468 25.9021C16.7275 25.833 16.5068 25.7591 16.2946 25.6737C16.185 25.6365 16.0815 25.5903 15.9757 25.5469L15.8226 25.4764L15.6157 25.3867C15.2993 25.2478 14.9551 25.1834 14.6098 25.1984C14.4172 25.2073 14.2297 25.263 14.0635 25.3608C13.8974 25.4586 13.7576 25.5955 13.6564 25.7595C13.6274 25.8141 13.6141 25.8757 13.6178 25.9373C13.6215 25.999 13.6422 26.0585 13.6775 26.1092C13.7129 26.1599 13.7615 26.1998 13.818 26.2247C13.8746 26.2496 13.9369 26.2584 13.9982 26.2501L14.0869 26.2382C14.2476 26.2173 14.411 26.2426 14.5579 26.3111C14.7217 26.377 14.8782 26.4596 15.0251 26.5576C15.0727 26.5895 15.0994 26.6139 15.1586 26.6529L15.3454 26.7659C15.4713 26.836 15.5967 26.909 15.7268 26.97C15.9846 27.0921 16.2502 27.1967 16.522 27.2832C17.0787 27.4611 17.6611 27.545 18.2454 27.5316C18.8873 27.5302 19.5101 27.3129 20.0136 26.9147C20.0919 26.848 20.1484 26.7594 20.1758 26.6603C20.2031 26.5612 20.2001 26.4562 20.1671 26.3588Z" fill="#971F1A"/>
<path d="M14.2641 21.5501C14.8921 21.4939 15.5228 21.4749 16.1529 21.4934C17.3739 21.4759 18.5943 21.5565 19.8023 21.7346L19.8262 21.7394C19.9619 21.7652 20.1023 21.7406 20.2211 21.6702C20.3399 21.5997 20.4289 21.4884 20.4714 21.357C20.5139 21.2256 20.5069 21.0832 20.4519 20.9565C20.3968 20.8299 20.2974 20.7277 20.1723 20.6691C19.5226 20.3815 18.8301 20.2025 18.1223 20.1395C17.4414 20.068 16.7545 20.0769 16.0757 20.1662C15.4037 20.2566 14.7379 20.3881 14.082 20.56C13.411 20.7212 12.7634 20.9678 12.1551 21.2937C12.0847 21.3339 12.0316 21.3988 12.0061 21.4757C11.9805 21.5527 11.9842 21.6364 12.0165 21.7108C12.0488 21.7851 12.1074 21.845 12.1811 21.8789C12.2548 21.9128 12.3383 21.9183 12.4158 21.8943L12.4368 21.8882C13.0328 21.7133 13.6451 21.6001 14.2641 21.5501Z" fill="#971F1A"/>
<path d="M47.2456 59.4672C46.493 57.4962 45.305 55.7207 43.7702 54.2732C42.34 52.9488 39.7494 52.0349 37.3481 51.2392C37.6332 49.8484 38.0646 48.4917 38.6353 47.1918C38.8312 46.7359 39.1408 46.3379 39.5344 46.0357C40.7987 45.0436 41.4356 43.9032 41.4151 41.5668C41.4089 40.8069 40.4397 35.0989 38.3597 34.7142C38.0067 34.6471 37.6417 34.691 37.3147 34.84C37.2737 34.7242 37.2361 34.6141 37.197 34.5016C39.4033 34.084 41.4876 31.7427 41.8437 29.6098C41.9917 28.9386 41.9868 28.2427 41.8294 27.5736C41.672 26.9045 41.3662 26.2793 40.9346 25.7444C41.8937 21.1201 42.3276 14.7319 40.4745 11.3576C36.7803 4.63656 30.4669 0.459893 23.9957 0.457033C17.5245 0.454172 11.2111 4.63656 7.51836 11.3576C5.66529 14.7305 6.09912 21.122 7.05831 25.7444C6.62666 26.2793 6.32083 26.9045 6.16346 27.5736C6.00609 28.2427 6.00121 28.9386 6.14918 29.6098C6.50291 31.7427 8.58958 34.084 10.7959 34.5016C10.7568 34.6141 10.7187 34.7242 10.6781 34.84C10.3516 34.6907 9.98674 34.6467 9.6341 34.7142C7.55316 35.0989 6.583 40.8069 6.57776 41.5668C6.55726 43.9028 7.19418 45.0441 8.45943 46.0361C8.8536 46.3379 9.16369 46.7358 9.35998 47.1918C9.93125 48.4907 10.3627 49.8467 10.6472 51.2368C8.25253 52.0273 5.66338 52.9369 4.22412 54.2732C2.68932 55.7206 1.50144 57.4962 0.749209 59.4672C0.682541 59.6417 0.686851 59.8355 0.761217 60.0069C0.835582 60.1783 0.974095 60.3138 1.14711 60.3844C1.32013 60.455 1.5139 60.4551 1.68696 60.3846C1.86002 60.3141 1.99862 60.1787 2.0731 60.0073C2.74853 58.2304 3.81624 56.6289 5.19666 55.322C6.31365 54.2851 8.51902 53.4594 10.5518 52.7757C10.0555 54.3966 8.49089 58.0422 7.86733 59.4472C7.79177 59.6203 7.78778 59.8163 7.85622 59.9923C7.92467 60.1684 8.05999 60.3102 8.23263 60.3868C8.40528 60.4634 8.60123 60.4686 8.7777 60.4013C8.95417 60.3339 9.09683 60.1995 9.17453 60.0273C9.27846 59.7928 11.7232 54.2751 12.0755 52.616C12.5141 50.5461 10.4546 46.0848 10.1309 45.4002C9.57769 43.7118 9.61129 41.886 10.2262 40.219L10.6286 39.1392C11.1697 37.689 11.7823 36.0452 12.2318 34.7342C12.2556 34.6584 12.3022 34.5918 12.3653 34.5435C12.4269 34.5035 12.4974 34.4795 12.5706 34.4736C12.6437 34.4677 12.7172 34.4801 12.7844 34.5097C12.8458 34.5387 12.8974 34.585 12.9328 34.6429C12.9682 34.7009 12.9859 34.7679 12.9836 34.8358C12.9921 35.0068 12.9891 35.1781 12.9746 35.3487C12.8113 37.1393 12.5502 38.9195 12.1923 40.6815C11.9258 41.8766 12.9121 43.0837 13.8661 44.2508C14.1707 44.6226 14.4577 44.9745 14.6722 45.2891C16.9968 48.7111 16.1301 50.6495 15.5566 51.9314L15.446 52.1822C14.9497 53.3264 13.7054 58.9466 13.5653 59.584C13.5444 59.6759 13.542 59.7711 13.5581 59.864C13.5742 59.9569 13.6085 60.0457 13.6591 60.1253C13.7096 60.2049 13.7754 60.2737 13.8527 60.3278C13.9299 60.3819 14.0171 60.4201 14.1092 60.4404C14.2013 60.4606 14.2965 60.4624 14.3893 60.4457C14.4821 60.4291 14.5706 60.3942 14.6499 60.3431C14.7292 60.2921 14.7976 60.2258 14.8512 60.1482C14.9047 60.0706 14.9424 59.9832 14.9621 59.891C15.5008 57.4439 16.4237 53.5218 16.7579 52.7509L16.8619 52.5159C17.2867 51.6578 17.5429 50.7261 17.6165 49.7714C19.6279 48.0785 19.9411 45.7711 20.0565 44.0506C21.1567 44.5468 22.3101 44.9155 23.4942 45.1494C23.6561 45.1885 23.8216 45.2107 23.9881 45.2157C24.1752 45.2095 24.3613 45.1847 24.5435 45.1418C25.7133 44.9101 26.8528 44.5454 27.9397 44.0548C28.0556 45.7739 28.3688 48.0842 30.3811 49.7757C30.4555 50.728 30.7115 51.6574 31.1353 52.5135L31.2392 52.7486C31.5729 53.5194 32.4959 57.4411 33.0351 59.8886C33.0547 59.9808 33.0924 60.0683 33.146 60.1458C33.1996 60.2234 33.268 60.2897 33.3472 60.3407C33.4265 60.3918 33.5151 60.4267 33.6079 60.4434C33.7007 60.46 33.7959 60.4582 33.888 60.438C33.9801 60.4177 34.0672 60.3795 34.1445 60.3254C34.2218 60.2713 34.2875 60.2025 34.3381 60.1229C34.3887 60.0434 34.423 59.9545 34.4391 59.8616C34.4552 59.7687 34.4527 59.6736 34.4319 59.5816C34.2917 58.9442 33.0494 53.3245 32.5512 52.1798L32.4406 51.9291C31.8685 50.6471 31.0004 48.7087 33.3249 45.2867C33.5395 44.9721 33.8265 44.6193 34.1311 44.2484C35.0846 43.0814 36.0714 41.8743 35.8049 40.6786C35.446 38.9172 35.1839 37.1374 35.0197 35.3473C35.0036 35.1626 35.002 34.9769 35.0149 34.7919C35.0173 34.7311 35.0369 34.6722 35.0715 34.6221C35.106 34.572 35.154 34.5327 35.2099 34.5087C35.2771 34.4791 35.3506 34.4667 35.4237 34.4726C35.4969 34.4785 35.5674 34.5026 35.629 34.5426C35.6923 34.5906 35.7388 34.6573 35.762 34.7333C36.2139 36.0448 36.8246 37.689 37.3657 39.1392L37.7681 40.219C38.383 41.886 38.4166 43.7118 37.8634 45.4002C37.5388 46.0848 35.4798 50.5461 35.9188 52.616C36.2711 54.2751 38.7158 59.7928 38.8198 60.0273C38.8975 60.1995 39.0401 60.3339 39.2166 60.4013C39.3931 60.4686 39.589 60.4634 39.7617 60.3868C39.9343 60.3102 40.0696 60.1684 40.1381 59.9923C40.2065 59.8163 40.2025 59.6203 40.127 59.4472C39.5039 58.0432 37.9411 54.4038 37.4439 52.7796C39.5415 53.4851 41.6806 54.2894 42.7967 55.3225C44.1772 56.629 45.2447 58.2305 45.9198 60.0073C45.9735 60.1389 46.0652 60.2515 46.1833 60.3308C46.3013 60.41 46.4403 60.4522 46.5824 60.4521C46.6748 60.4522 46.7663 60.4343 46.8518 60.3992C46.9389 60.3639 47.0181 60.3118 47.0851 60.2458C47.152 60.1799 47.2053 60.1014 47.2418 60.0148C47.2784 59.9282 47.2976 59.8353 47.2982 59.7414C47.2988 59.6474 47.2809 59.5542 47.2456 59.4672ZM9.28561 38.6391L8.88325 39.7218C8.41335 40.9963 8.22865 42.3584 8.34215 43.7121C8.07613 43.0339 7.96222 42.3057 8.00844 41.5787C8.01893 40.2777 9.19694 36.3584 9.89535 36.1201C9.94751 36.1102 10.0013 36.1134 10.0519 36.1294C10.1025 36.1455 10.1483 36.1739 10.1852 36.2121C9.88868 37.0216 9.57689 37.8583 9.28561 38.6391ZM40.4316 29.3762C40.1818 30.8817 38.62 32.6762 37.103 33.0637C37.399 31.9523 37.6219 30.8228 37.7705 29.6823C37.8346 29.5226 37.9487 29.3879 38.0958 29.2986C38.2428 29.2092 38.4149 29.1698 38.5862 29.1865C38.6799 29.1961 38.7747 29.187 38.8649 29.1599C38.9552 29.1328 39.0392 29.0881 39.1121 29.0284C39.185 28.9687 39.2454 28.8951 39.2898 28.812C39.3342 28.7289 39.3617 28.6378 39.3708 28.544C39.3799 28.4502 39.3703 28.3555 39.3427 28.2654C39.3151 28.1753 39.2699 28.0915 39.2098 28.0189C39.1497 27.9464 39.0758 27.8864 38.9924 27.8424C38.909 27.7985 38.8178 27.7715 38.7239 27.7629C38.4681 27.7386 38.2101 27.7588 37.9612 27.8225C38.0079 27.1869 38.0367 26.5366 38.0475 25.8717C38.7185 25.8902 39.3562 26.1684 39.8262 26.6479C40.1283 27.0264 40.3399 27.4691 40.4448 27.9419C40.5497 28.4148 40.5452 28.9054 40.4316 29.3762ZM8.77121 12.0464C12.1613 5.8775 18.1371 1.88962 23.9957 1.88724C29.8543 1.88485 35.8306 5.8775 39.2207 12.0464C40.7129 14.7638 40.5303 20.2377 39.6612 24.8153C39.1335 24.5865 38.5675 24.4591 37.9926 24.4396C37.535 18.193 36.653 13.3222 31.5367 11.6789C31.2308 11.5832 30.9591 11.4011 30.7544 11.1545C28.5509 8.46569 25.1842 7.07553 22.177 7.61186C19.5373 8.08335 17.5264 9.95453 16.5139 12.8807C15.3406 16.2727 14.0396 17.239 12.8907 18.091C11.4524 19.1593 10.2043 20.1023 9.98021 24.4396C9.41177 24.4606 8.85222 24.5873 8.33023 24.8134C7.46305 20.2372 7.27856 14.7629 8.77121 12.0464ZM7.55983 29.3762C7.44596 28.9055 7.44115 28.415 7.54575 27.9422C7.65035 27.4693 7.8616 27.0266 8.16338 26.6479C8.64313 26.1599 9.29555 25.8803 9.97973 25.8693C9.99165 26.5368 10.0193 27.1928 10.0665 27.833C9.8055 27.7613 9.53364 27.7375 9.26416 27.7629C9.1703 27.7715 9.07906 27.7985 8.99568 27.8424C8.9123 27.8864 8.83843 27.9464 8.77832 28.0189C8.7182 28.0915 8.67303 28.1753 8.64539 28.2654C8.61775 28.3555 8.6082 28.4502 8.61728 28.544C8.62636 28.6378 8.65389 28.7289 8.69829 28.812C8.7427 28.8951 8.80309 28.9687 8.87601 29.0284C8.94893 29.0881 9.03294 29.1328 9.12319 29.1599C9.21345 29.187 9.30818 29.1961 9.40193 29.1865C9.54066 29.1736 9.9559 29.1388 10.2691 29.7752C10.4186 30.8879 10.6393 31.9898 10.9299 33.0742C9.39812 32.7119 7.8125 30.897 7.55983 29.3762ZM18.6563 43.4828C18.5791 44.8014 18.4747 46.5067 17.4406 47.8887C17.1226 46.6668 16.584 45.5132 15.8512 44.4849C15.6023 44.1178 15.2953 43.7421 14.9702 43.3445C14.3366 42.5698 13.4694 41.5096 13.5848 40.9923C13.6668 40.6262 13.7817 40.0078 13.9004 39.2961C14.1978 39.6716 14.5188 40.0278 14.8615 40.3625C16.0032 41.5045 17.2809 42.5018 18.6658 43.3321C18.6634 43.3841 18.6596 43.4294 18.6563 43.4828ZM33.0203 43.3445C32.6952 43.7421 32.3881 44.1178 32.1393 44.4849C31.4072 45.5122 30.8689 46.6646 30.5508 47.8854C29.5182 46.5029 29.4114 44.8014 29.3337 43.4847C29.3308 43.4313 29.327 43.3855 29.3242 43.3335C30.7091 42.5015 31.9871 41.5031 33.1295 40.3606C33.472 40.0254 33.7929 39.6687 34.0901 39.2927C34.2088 40.005 34.3242 40.6238 34.4062 40.9899C34.5215 41.5096 33.6539 42.5698 33.0203 43.3445ZM34.6269 33.202C34.3417 33.3285 34.0954 33.5287 33.9133 33.782C33.7313 34.0353 33.62 34.3326 33.5909 34.6432C33.5909 34.6432 33.5714 35.1242 33.5909 35.436C33.6215 35.9322 33.693 36.5758 33.7816 37.2538C33.3179 38.0115 32.7639 38.7101 32.1317 39.3342C30.2247 41.1825 27.9502 42.9955 24.2613 43.7383C24.0844 43.7736 23.9023 43.7736 23.7254 43.7383C20.0364 42.9955 17.7629 41.1825 15.855 39.3342C15.2237 38.7101 14.6705 38.0116 14.2074 37.2542C14.2975 36.5763 14.3685 35.9337 14.3981 35.4369C14.4173 35.1955 14.4194 34.953 14.4043 34.7113C14.4043 34.707 14.3986 34.6479 14.3981 34.6441C14.3695 34.3336 14.2586 34.0363 14.0769 33.7829C13.8953 33.5294 13.6494 33.3289 13.3645 33.202C13.0664 33.0691 12.7388 33.016 12.4139 33.048C11.7088 30.4795 11.3684 27.8247 11.4028 25.1614C11.4028 25.1557 11.4028 25.15 11.4028 25.1442C11.531 21.1044 12.4111 20.2348 13.7459 19.2404C14.994 18.3131 16.5482 17.1589 17.8663 13.3494C18.9371 10.2544 20.9384 9.28758 22.4287 9.02156C24.9349 8.572 27.7681 9.76765 29.6488 12.0631C30.0284 12.5218 30.5323 12.8612 31.1 13.0404C35.1356 14.3371 36.1234 18.1415 36.6134 25.1971V25.2224C36.6134 25.2224 36.6163 25.2358 36.6173 25.2429C36.6206 25.2906 36.6244 25.3383 36.6277 25.3859C36.6445 27.9777 36.3044 30.5595 35.6171 33.0585C35.2801 33.0156 34.9378 33.0652 34.6269 33.202ZM37.8053 36.2111C37.841 36.173 37.8856 36.1443 37.9351 36.1277C37.9846 36.1111 38.0375 36.107 38.0889 36.1158C38.7935 36.3542 39.9716 40.2748 39.982 41.5758C40.0274 42.3011 39.9135 43.0274 39.6483 43.704C39.7608 42.3531 39.5764 40.9939 39.1082 39.7218L38.7054 38.6391C38.4145 37.8583 38.1028 37.0216 37.8067 36.2121L37.8053 36.2111Z" fill="#971F1A"/>
<path d="M13.4713 30.6955C13.3034 30.6542 13.1333 30.6223 12.9617 30.6001C12.8986 30.5897 12.834 30.5921 12.7719 30.6071C12.7097 30.6222 12.6512 30.6496 12.5998 30.6877C12.5485 30.7258 12.5053 30.7739 12.4729 30.829C12.4405 30.8842 12.4195 30.9453 12.4112 31.0087C12.403 31.0721 12.4075 31.1366 12.4247 31.1982C12.4418 31.2598 12.4712 31.3174 12.511 31.3674C12.5508 31.4175 12.6003 31.459 12.6566 31.4895C12.7128 31.52 12.7746 31.5389 12.8382 31.545C12.9748 31.5633 13.1102 31.5889 13.2439 31.6218C13.2812 31.631 13.3195 31.6357 13.3579 31.6356C13.4743 31.6355 13.5867 31.5927 13.6738 31.5154C13.7609 31.4381 13.8167 31.3316 13.8307 31.216C13.8446 31.1004 13.8158 30.9837 13.7496 30.8879C13.6834 30.7921 13.5844 30.7233 13.4713 30.6955Z" fill="#971F1A"/>
<path d="M17.1366 35.4811C17.0741 35.4842 17.0127 35.4997 16.9562 35.5265C16.8996 35.5533 16.8488 35.591 16.8068 35.6374C16.7648 35.6839 16.7323 35.7381 16.7113 35.7971C16.6903 35.8561 16.681 35.9187 16.6842 35.9812C16.688 36.0561 16.6904 36.1314 16.6899 36.2091C16.6899 36.2735 16.6899 36.3383 16.6856 36.3998C16.6827 36.4623 16.6922 36.5248 16.7135 36.5837C16.7348 36.6426 16.7674 36.6967 16.8096 36.743C16.8518 36.7893 16.9027 36.8268 16.9594 36.8533C17.016 36.8799 17.0774 36.8951 17.14 36.898H17.1624C17.2851 36.8981 17.4031 36.8509 17.4919 36.7662C17.5807 36.6815 17.6334 36.5658 17.6391 36.4432C17.6429 36.3645 17.6443 36.2859 17.6443 36.2086C17.6443 36.1161 17.6443 36.0237 17.6377 35.9307C17.6306 35.8047 17.574 35.6866 17.48 35.6024C17.3861 35.5181 17.2626 35.4745 17.1366 35.4811Z" fill="#971F1A"/>
<path d="M15.3134 31.5768C15.2633 31.5392 15.2064 31.5119 15.1457 31.4964C15.0851 31.4808 15.0219 31.4774 14.96 31.4862C14.898 31.4951 14.8384 31.5161 14.7845 31.548C14.7306 31.5799 14.6836 31.6221 14.646 31.6721C14.6084 31.7222 14.5811 31.7792 14.5656 31.8399C14.55 31.9005 14.5466 31.9636 14.5555 32.0256C14.5643 32.0876 14.5853 32.1472 14.6172 32.2011C14.6491 32.2549 14.6913 32.302 14.7414 32.3396C14.8529 32.4228 14.9613 32.5123 15.0665 32.608C15.1603 32.6928 15.284 32.7369 15.4103 32.7306C15.5366 32.7242 15.6553 32.6679 15.7401 32.5741C15.8249 32.4803 15.869 32.3566 15.8627 32.2303C15.8564 32.104 15.8001 31.9853 15.7063 31.9005C15.5804 31.7856 15.4483 31.6769 15.3134 31.5768Z" fill="#971F1A"/>
<path d="M16.2993 34.3394C16.349 34.4559 16.4429 34.548 16.5605 34.5953C16.6781 34.6426 16.8096 34.6412 16.9262 34.5915C17.0428 34.5419 17.1348 34.4479 17.1821 34.3303C17.2294 34.2128 17.2281 34.0812 17.1784 33.9646C17.1126 33.8107 17.0397 33.6591 16.9729 33.5356C16.9653 33.5194 16.9491 33.4879 16.9395 33.4731C16.8754 33.3678 16.7725 33.2918 16.653 33.2615C16.5335 33.2312 16.4068 33.249 16.3002 33.311C16.1923 33.3742 16.113 33.4767 16.0789 33.597C16.0449 33.7174 16.0588 33.8462 16.1177 33.9565C16.183 34.0814 16.2445 34.2097 16.2993 34.3394Z" fill="#971F1A"/>
<path d="M16.9238 37.793C16.8677 37.7651 16.8067 37.7486 16.7442 37.7443C16.6817 37.74 16.619 37.7481 16.5596 37.768C16.5002 37.788 16.4454 37.8195 16.3982 37.8607C16.351 37.9018 16.3124 37.9519 16.2845 38.008C16.2235 38.1308 16.1555 38.25 16.081 38.3651C16.046 38.4176 16.0218 38.4765 16.0098 38.5385C15.9978 38.6004 15.9982 38.6641 16.011 38.7259C16.0238 38.7877 16.0487 38.8463 16.0843 38.8984C16.1199 38.9504 16.1655 38.9949 16.2185 39.0292C16.2714 39.0635 16.3306 39.087 16.3927 39.0983C16.4548 39.1096 16.5185 39.1084 16.5801 39.0949C16.6417 39.0813 16.7 39.0557 16.7517 39.0195C16.8033 38.9832 16.8472 38.9371 16.8809 38.8838C16.9754 38.7382 17.0614 38.5873 17.1384 38.4318C17.1946 38.3187 17.2035 38.1878 17.1633 38.068C17.1231 37.9482 17.0369 37.8493 16.9238 37.793Z" fill="#971F1A"/>
<path d="M32.7202 31.5763C32.5852 31.6774 32.4537 31.7854 32.326 31.9005C32.2322 31.9853 32.1759 32.104 32.1695 32.2303C32.1632 32.3566 32.2073 32.4803 32.2921 32.5741C32.377 32.6679 32.4956 32.7242 32.6219 32.7306C32.7483 32.7369 32.8719 32.6928 32.9658 32.608C33.0713 32.5126 33.1798 32.4232 33.2914 32.3396C33.3415 32.302 33.3836 32.2549 33.4155 32.2011C33.4474 32.1472 33.4684 32.0876 33.4773 32.0256C33.4861 31.9636 33.4827 31.9005 33.4671 31.8399C33.4516 31.7792 33.4243 31.7222 33.3867 31.6721C33.3492 31.6221 33.3021 31.5799 33.2482 31.548C33.1944 31.5161 33.1347 31.4951 33.0727 31.4862C33.0108 31.4774 32.9477 31.4808 32.887 31.4964C32.8264 31.5119 32.7694 31.5392 32.7193 31.5768L32.7202 31.5763Z" fill="#971F1A"/>
<path d="M35.0692 30.5985C34.8978 30.6207 34.7278 30.6526 34.56 30.6939C34.447 30.7217 34.348 30.7899 34.2818 30.8857C34.2157 30.9815 34.1868 31.0981 34.2007 31.2137C34.2146 31.3293 34.2703 31.4358 34.3573 31.5131C34.4443 31.5905 34.5566 31.6333 34.673 31.6335C34.7114 31.6336 34.7497 31.629 34.787 31.6197C34.9209 31.5869 35.0565 31.5613 35.1931 31.543C35.2567 31.5367 35.3184 31.5177 35.3745 31.4871C35.4306 31.4565 35.4799 31.415 35.5196 31.3649C35.5594 31.3149 35.5886 31.2574 35.6057 31.1958C35.6227 31.1342 35.6272 31.0699 35.6189 31.0065C35.6106 30.9432 35.5897 30.8821 35.5573 30.8271C35.5249 30.772 35.4818 30.724 35.4306 30.6859C35.3793 30.6478 35.3209 30.6204 35.2588 30.6053C35.1967 30.5902 35.1322 30.5882 35.0692 30.5985Z" fill="#971F1A"/>
<path d="M31.1057 34.5901C31.1649 34.6154 31.2287 34.6284 31.2931 34.6282C31.3864 34.6283 31.4778 34.601 31.5557 34.5496C31.6337 34.4982 31.6949 34.4251 31.7317 34.3393C31.7863 34.2096 31.8477 34.0814 31.9157 33.9546C31.9745 33.8442 31.9883 33.7153 31.9542 33.595C31.9201 33.4746 31.8407 33.3722 31.7326 33.3091C31.6261 33.247 31.4994 33.2293 31.3799 33.2596C31.2603 33.2899 31.1575 33.3658 31.0933 33.4712C31.0843 33.4869 31.0676 33.5188 31.0604 33.5336C30.9932 33.6585 30.9207 33.8101 30.8545 33.9627C30.8296 34.0204 30.8164 34.0824 30.8156 34.1452C30.8148 34.208 30.8264 34.2703 30.8497 34.3286C30.8731 34.3869 30.9077 34.44 30.9516 34.4849C30.9956 34.5297 31.0479 34.5655 31.1057 34.5901Z" fill="#971F1A"/>
<path d="M31.7464 38.0078C31.7194 37.9503 31.6813 37.8987 31.6341 37.8562C31.587 37.8137 31.5318 37.781 31.4719 37.76C31.4119 37.7391 31.3484 37.7304 31.285 37.7343C31.2216 37.7383 31.1597 37.7549 31.1028 37.7831C31.0459 37.8113 30.9952 37.8507 30.9538 37.8987C30.9123 37.9468 30.8808 38.0027 30.8612 38.0631C30.8417 38.1235 30.8343 38.1872 30.8397 38.2505C30.8451 38.3138 30.8631 38.3753 30.8926 38.4316C30.9696 38.5871 31.0555 38.738 31.15 38.8835C31.2195 38.988 31.3274 39.0608 31.4502 39.0862C31.5731 39.1117 31.701 39.0877 31.8062 39.0194C31.9115 38.9512 31.9856 38.8442 32.0125 38.7216C32.0394 38.5991 32.017 38.4709 31.95 38.3648C31.8756 38.2497 31.8076 38.1305 31.7464 38.0078Z" fill="#971F1A"/>
<path d="M30.8906 36.9003C30.9531 36.8975 31.0145 36.8823 31.0712 36.8557C31.1278 36.8291 31.1787 36.7916 31.2209 36.7454C31.2631 36.6991 31.2958 36.645 31.317 36.5861C31.3383 36.5272 31.3478 36.4647 31.3449 36.4022C31.3449 36.3383 31.3411 36.2734 31.3411 36.2115C31.3411 36.1338 31.3411 36.0584 31.3463 35.9836C31.3526 35.8571 31.3085 35.7334 31.2235 35.6395C31.1386 35.5456 31.0199 35.4893 30.8934 35.483C30.767 35.4767 30.6432 35.5209 30.5493 35.6058C30.4555 35.6907 30.3992 35.8095 30.3929 35.9359C30.3886 36.0289 30.3862 36.1214 30.3867 36.2138C30.3867 36.2911 30.3867 36.3697 30.3914 36.4484C30.3971 36.571 30.4498 36.6867 30.5386 36.7714C30.6274 36.8561 30.7454 36.9033 30.8682 36.9032L30.8906 36.9003Z" fill="#971F1A"/>
</svg>
