<svg width="38" height="50" viewBox="0 0 38 50" fill="none" xmlns="http://www.w3.org/2000/svg">
<path d="M6.75651 37.1294C6.4053 37.1295 6.06196 37.0254 5.76991 36.8304C5.47785 36.6353 5.2502 36.358 5.11575 36.0336C4.98129 35.7091 4.94607 35.3521 5.01454 35.0076C5.08301 34.6631 5.25209 34.3467 5.5004 34.0983C5.74871 33.85 6.0651 33.6808 6.40955 33.6123C6.754 33.5437 7.11105 33.5789 7.43553 33.7133C7.76 33.8476 8.03734 34.0752 8.23247 34.3672C8.4276 34.6592 8.53175 35.0026 8.53175 35.3538C8.53122 35.8245 8.34403 36.2757 8.01123 36.6086C7.67844 36.9415 7.22721 37.1288 6.75651 37.1294ZM6.75651 34.7813C6.64317 34.7812 6.53235 34.8147 6.43807 34.8776C6.3438 34.9406 6.2703 35.03 6.22689 35.1347C6.18348 35.2394 6.1721 35.3547 6.19419 35.4658C6.21629 35.577 6.27086 35.6791 6.35101 35.7593C6.43115 35.8394 6.53327 35.894 6.64444 35.9161C6.75561 35.9382 6.87083 35.9268 6.97554 35.8834C7.08024 35.84 7.16971 35.7665 7.23263 35.6722C7.29555 35.5779 7.32909 35.4671 7.32901 35.3538C7.32869 35.2021 7.26826 35.0567 7.16095 34.9494C7.05365 34.8422 6.90821 34.7815 6.75651 34.7813Z" fill="#971F1A"/>
<path d="M37.7973 30.1001C37.7917 26.9892 36.9378 23.9387 35.3275 21.2769C33.7172 18.6152 31.4114 16.443 28.6585 14.9942C28.4592 14.4348 28.1434 13.9242 27.7319 13.496C27.3205 13.0678 26.8228 12.7319 26.2718 12.5105L27.7849 9.88655C27.9925 9.52951 28.0612 9.10846 27.9778 8.70394C27.8945 8.29942 27.6649 7.93983 27.333 7.69396L30.285 2.57432C30.3605 2.44331 30.4093 2.29869 30.4288 2.14874C30.4482 1.9988 30.4378 1.84649 30.3982 1.70056C30.3586 1.55464 30.2906 1.41798 30.198 1.29843C30.1054 1.17889 29.9902 1.07881 29.8588 1.00394L28.3662 0.151204C28.1014 0.000500052 27.7878 -0.0394828 27.4937 0.0399625C27.1996 0.119408 26.9487 0.311846 26.7958 0.575369L23.8407 5.69983C23.4598 5.54046 23.034 5.52498 22.6426 5.65627C22.2512 5.78756 21.9208 6.05666 21.7131 6.41345L15.541 17.117C15.1061 16.9898 14.6412 17.0119 14.2203 17.1796C13.7994 17.3474 13.4467 17.6512 13.2185 18.0427C13.0861 18.2726 13.0003 18.5264 12.9663 18.7895C12.9322 19.0526 12.9505 19.3198 13.02 19.5758C13.0896 19.8319 13.2091 20.0716 13.3716 20.2813C13.5341 20.491 13.7365 20.6665 13.967 20.7978L14.8458 21.2997L13.1147 24.3001C13.0391 24.4311 12.9901 24.5758 12.9706 24.7258C12.9511 24.8758 12.9615 25.0282 13.0011 25.1742C13.0407 25.3201 13.1088 25.4569 13.2014 25.5764C13.294 25.696 13.4094 25.7961 13.5409 25.8709L15.0331 26.7233C15.2979 26.8742 15.6117 26.9143 15.906 26.8349C16.2004 26.7554 16.4513 26.5628 16.6042 26.2991L18.3378 23.2922L19.2198 23.7966C19.6476 24.0469 20.1527 24.1307 20.6384 24.0321C21.1242 23.9334 21.5565 23.6592 21.8528 23.2618C22.149 22.8644 22.2884 22.3718 22.2443 21.8781C22.2002 21.3844 21.9757 20.9242 21.6136 20.5857L22.1521 19.6516C22.7939 20.1607 23.5721 20.4685 24.3885 20.5362C25.2049 20.6039 26.0232 20.4285 26.7401 20.032C28.244 20.9555 29.5215 22.2046 30.4783 23.6875C31.4352 25.1703 32.0471 26.849 32.2688 28.5998C32.4906 30.3506 32.3165 32.1289 31.7596 33.8034C31.2026 35.478 30.2769 37.0062 29.0507 38.2754C27.8245 39.5446 26.3291 40.5225 24.6747 41.1368C23.0203 41.7512 21.2491 41.9864 19.4917 41.8251C17.7343 41.6638 16.0356 41.1102 14.5206 40.205C13.0057 39.2998 11.7132 38.0661 10.7385 36.5949C10.9107 36.044 10.966 35.4633 10.9008 34.8898C10.8356 34.3163 10.6514 33.7627 10.36 33.2645H18.5475C18.796 33.2682 19.0427 33.2224 19.2734 33.1298C19.504 33.0372 19.714 32.8997 19.891 32.7252C20.068 32.5507 20.2086 32.3428 20.3046 32.1136C20.4005 31.8843 20.4499 31.6382 20.4499 31.3897C20.4499 31.1411 20.4005 30.8951 20.3046 30.6658C20.2086 30.4365 20.068 30.2286 19.891 30.0541C19.714 29.8797 19.504 29.7422 19.2734 29.6496C19.0427 29.557 18.796 29.5112 18.5475 29.5148H2.10365C1.85514 29.5112 1.60838 29.557 1.37772 29.6496C1.14707 29.7422 0.937123 29.8797 0.760095 30.0541C0.583067 30.2286 0.44249 30.4365 0.346537 30.6658C0.250585 30.8951 0.201172 31.1411 0.201172 31.3897C0.201172 31.6382 0.250585 31.8843 0.346537 32.1136C0.44249 32.3428 0.583067 32.5507 0.760095 32.7252C0.937123 32.8997 1.14707 33.0372 1.37772 33.1298C1.60838 33.2224 1.85514 33.2682 2.10365 33.2645H3.15485C2.80579 33.8617 2.61122 34.5366 2.58876 35.228C2.56629 35.9193 2.71664 36.6054 3.02618 37.224C3.33572 37.8426 3.79468 38.3742 4.3615 38.7707C4.92832 39.1672 5.58509 39.416 6.27234 39.4947C8.13165 42.2873 10.7635 44.4785 13.8468 45.8011H10.5994C10.3212 45.7972 10.0451 45.8487 9.78704 45.9524C9.52897 46.0562 9.29408 46.2103 9.09604 46.4056C8.89799 46.6009 8.74074 46.8336 8.6334 47.0903C8.52607 47.3469 8.47079 47.6223 8.47079 47.9004C8.47079 48.1786 8.52607 48.454 8.6334 48.7106C8.74074 48.9672 8.89799 49.1999 9.09604 49.3953C9.29408 49.5906 9.52897 49.7446 9.78704 49.8484C10.0451 49.9522 10.3212 50.0036 10.5994 49.9998H30.6394C31.1911 49.9922 31.7177 49.7676 32.1052 49.3748C32.4927 48.9819 32.7099 48.4522 32.7099 47.9004C32.7099 47.3486 32.4927 46.819 32.1052 46.4261C31.7177 46.0332 31.1911 45.8087 30.6394 45.8011H27.4156C30.4907 44.4843 33.1126 42.2955 34.9576 39.5052C36.8026 36.7149 37.7898 33.4452 37.7973 30.1001ZM27.8125 1.22004L29.2157 2.02186L26.2991 7.07896L25.1072 6.39741L24.8959 6.27714L27.8125 1.22004ZM15.5875 25.656L14.1843 24.8542L15.8902 21.8947L17.2934 22.6965L15.5875 25.656ZM20.9397 22.4523C20.8302 22.6405 20.6508 22.7778 20.4405 22.8343C20.2303 22.8908 20.0062 22.8618 19.8172 22.7538L14.5628 19.7534C14.4698 19.7007 14.3881 19.6301 14.3224 19.5457C14.2568 19.4613 14.2085 19.3648 14.1803 19.2616C14.1521 19.1585 14.1446 19.0508 14.1583 18.9447C14.1719 18.8387 14.2064 18.7363 14.2597 18.6437C14.3692 18.4555 14.5486 18.3182 14.7589 18.2617C14.9692 18.2052 15.1932 18.2342 15.3823 18.3422L15.4933 18.4055L20.5232 21.2781L20.633 21.341C20.7261 21.3937 20.8078 21.4644 20.8734 21.5488C20.9391 21.6332 20.9874 21.7298 21.0155 21.833C21.0437 21.9362 21.0512 22.0439 21.0376 22.15C21.0239 22.2561 20.9894 22.3584 20.9361 22.4511L20.9397 22.4523ZM21.2933 18.7367L20.6013 19.937L16.6159 17.6606L22.7546 7.01401C22.8216 6.89938 22.9311 6.81582 23.0593 6.78151C23.1875 6.7472 23.3241 6.76491 23.4394 6.8308L26.5589 8.61245C26.6156 8.64461 26.6654 8.68772 26.7053 8.73927C26.7452 8.79082 26.7745 8.84978 26.7914 8.91273C26.8085 8.97505 26.8131 9.04016 26.8047 9.10424C26.7964 9.16833 26.7754 9.23011 26.7429 9.28598L25.0479 12.2255C24.9436 12.2175 24.8382 12.213 24.7315 12.213C23.9724 12.2124 23.2275 12.4191 22.5773 12.811C21.9271 13.2029 21.3964 13.765 21.0424 14.4366C20.6884 15.1082 20.5247 15.8637 20.569 16.6216C20.6132 17.3794 20.8637 18.1108 21.2933 18.7367ZM24.7315 19.3493C24.1448 19.3493 23.5712 19.1753 23.0833 18.8493C22.5954 18.5233 22.2152 18.06 21.9906 17.5179C21.7661 16.9758 21.7073 16.3792 21.8218 15.8037C21.9363 15.2283 22.2188 14.6996 22.6337 14.2847C23.0486 13.8698 23.5773 13.5873 24.1527 13.4728C24.7282 13.3583 25.3248 13.4171 25.8669 13.6416C26.409 13.8662 26.8723 14.2464 27.1983 14.7343C27.5243 15.2222 27.6983 15.7958 27.6983 16.3825C27.6974 17.1691 27.3846 17.9232 26.8284 18.4794C26.2722 19.0356 25.5181 19.3484 24.7315 19.3493ZM2.10365 32.0618C2.01401 32.064 1.92483 32.0482 1.84137 32.0154C1.75791 31.9826 1.68185 31.9335 1.61767 31.8708C1.55349 31.8082 1.50249 31.7334 1.46767 31.6507C1.43285 31.5681 1.41491 31.4793 1.41491 31.3897C1.41491 31.3 1.43285 31.2112 1.46767 31.1286C1.50249 31.046 1.55349 30.9711 1.61767 30.9085C1.68185 30.8459 1.75791 30.7967 1.84137 30.7639C1.92483 30.7311 2.01401 30.7154 2.10365 30.7175H18.5475C18.6371 30.7154 18.7263 30.7311 18.8097 30.7639C18.8932 30.7967 18.9693 30.8459 19.0334 30.9085C19.0976 30.9711 19.1486 31.046 19.1834 31.1286C19.2183 31.2112 19.2362 31.3 19.2362 31.3897C19.2362 31.4793 19.2183 31.5681 19.1834 31.6507C19.1486 31.7334 19.0976 31.8082 19.0334 31.8708C18.9693 31.9335 18.8932 31.9826 18.8097 32.0154C18.7263 32.0482 18.6371 32.064 18.5475 32.0618H9.30684C8.57859 31.4934 7.68126 31.1846 6.75744 31.1846C5.83362 31.1846 4.93629 31.4934 4.20804 32.0618H2.10365ZM3.79029 35.3541C3.79029 34.7673 3.96429 34.1937 4.29028 33.7058C4.61627 33.218 5.07961 32.8377 5.62171 32.6132C6.16382 32.3886 6.76033 32.3299 7.33582 32.4443C7.91132 32.5588 8.43994 32.8414 8.85485 33.2563C9.26976 33.6712 9.55231 34.1998 9.66679 34.7753C9.78126 35.3508 9.72251 35.9473 9.49796 36.4894C9.27341 37.0315 8.89316 37.4949 8.40528 37.8208C7.9174 38.1468 7.34381 38.3208 6.75704 38.3208C5.9705 38.3199 5.21645 38.007 4.66029 37.4508C4.10412 36.8947 3.79125 36.1406 3.79029 35.3541ZM30.6394 47.0038C30.8739 47.0087 31.0971 47.1054 31.2612 47.273C31.4253 47.4406 31.5173 47.6659 31.5173 47.9004C31.5173 48.135 31.4253 48.3602 31.2612 48.5279C31.0971 48.6955 30.8739 48.7921 30.6394 48.7971H10.5986C10.4792 48.7996 10.3606 48.7783 10.2496 48.7343C10.1386 48.6904 10.0375 48.6248 9.9522 48.5413C9.8669 48.4577 9.79914 48.358 9.75287 48.248C9.70661 48.138 9.68278 48.0198 9.68278 47.9004C9.68278 47.7811 9.70661 47.6629 9.75287 47.5528C9.79914 47.4428 9.8669 47.3431 9.9522 47.2596C10.0375 47.1761 10.1386 47.1104 10.2496 47.0665C10.3606 47.0226 10.4792 47.0013 10.5986 47.0038H18.0748C19.7798 47.2652 21.5147 47.2652 23.2197 47.0038H30.6394ZM20.6166 45.9971C18.0954 45.9948 15.6103 45.3974 13.3635 44.2536C11.1167 43.1098 9.17158 41.4518 7.68636 39.4145C8.66406 39.1899 9.52813 38.6206 10.1203 37.8109C11.244 39.3531 12.6931 40.6295 14.3649 41.5494C16.0367 42.4694 17.8903 43.0105 19.7945 43.1344C21.6987 43.2584 23.6068 42.9621 25.3838 42.2666C27.1607 41.5711 28.763 40.4934 30.0771 39.1098C31.3913 37.7262 32.3851 36.0705 32.9882 34.2602C33.5913 32.4498 33.789 30.5289 33.5672 28.6336C33.3455 26.7383 32.7097 24.915 31.7049 23.2928C30.7001 21.6705 29.3509 20.2891 27.7528 19.2462C28.4563 18.5063 28.8622 17.5329 28.893 16.5124C31.8759 18.3045 34.1873 21.027 35.4718 24.261C36.7563 27.4951 36.9426 31.0616 36.0022 34.4119C35.0617 37.7622 33.0466 40.7108 30.2667 42.804C27.4869 44.8972 24.0963 46.0191 20.6166 45.9971Z" fill="#971F1A"/>
<path d="M24.7307 18.1587C24.3795 18.1587 24.0362 18.0546 23.7442 17.8595C23.4522 17.6643 23.2246 17.387 23.0902 17.0626C22.9558 16.7381 22.9207 16.3811 22.9892 16.0367C23.0577 15.6922 23.2268 15.3758 23.4752 15.1275C23.7235 14.8792 24.0399 14.7101 24.3843 14.6415C24.7287 14.573 25.0858 14.6082 25.4102 14.7426C25.7347 14.877 26.012 15.1046 26.2071 15.3966C26.4022 15.6886 26.5064 16.0319 26.5064 16.3831C26.5058 16.8538 26.3186 17.3052 25.9857 17.638C25.6528 17.9709 25.2015 18.1582 24.7307 18.1587ZM24.7307 15.8102C24.6174 15.8102 24.5066 15.8438 24.4124 15.9067C24.3182 15.9697 24.2448 16.0591 24.2014 16.1638C24.1581 16.2685 24.1467 16.3837 24.1688 16.4948C24.1909 16.606 24.2455 16.708 24.3256 16.7882C24.4057 16.8683 24.5078 16.9229 24.6189 16.945C24.7301 16.9671 24.8453 16.9557 24.95 16.9124C25.0546 16.869 25.1441 16.7956 25.2071 16.7014C25.27 16.6071 25.3036 16.4964 25.3036 16.3831C25.3034 16.2312 25.243 16.0856 25.1356 15.9782C25.0282 15.8708 24.8826 15.8104 24.7307 15.8102Z" fill="#971F1A"/>
</svg>
