<svg width="36" height="60" viewBox="0 0 36 60" fill="none" xmlns="http://www.w3.org/2000/svg">
<path d="M34.7361 17.8828H27.712C27.3963 17.8828 27.0935 18.0082 26.8702 18.2315C26.6469 18.4548 26.5215 18.7576 26.5215 19.0733V38.6576C26.5215 39.9048 27.0169 41.1009 27.8988 41.9828C28.7808 42.8647 29.9769 43.3601 31.2241 43.3601C32.4713 43.3601 33.6674 42.8647 34.5493 41.9828C35.4312 41.1009 35.9267 39.9048 35.9267 38.6576V19.0733C35.9267 18.7576 35.8012 18.4548 35.578 18.2315C35.3547 18.0082 35.0519 17.8828 34.7361 17.8828ZM34.498 19.3114V24.3117H27.9501V19.3114H34.498ZM31.2241 41.9315C30.3561 41.9305 29.5239 41.5852 28.9102 40.9715C28.2964 40.3577 27.9511 39.5255 27.9501 38.6576V25.7403H34.498V38.6576C34.497 39.5255 34.1518 40.3577 33.538 40.9715C32.9242 41.5852 32.0921 41.9305 31.2241 41.9315Z" fill="#971F1A"/>
<path d="M29.5345 55.9252L20.0384 42.207C19.7899 41.8487 19.6569 41.423 19.6574 40.9869V28.0792C19.6574 27.7635 19.532 27.4606 19.3087 27.2374C19.0854 27.0141 18.7826 26.8887 18.4669 26.8887H11.5228C11.207 26.8887 10.9042 27.0141 10.6809 27.2374C10.4577 27.4606 10.3322 27.7635 10.3322 28.0792V40.9869C10.3327 41.4222 10.1997 41.8472 9.95126 42.2046C9.87935 42.3075 2.76046 52.5108 0.448932 55.9319C0.181881 56.321 0.0276801 56.7764 0.00339083 57.2478C-0.0208984 57.7191 0.0856699 58.1879 0.311306 58.6025C0.534455 59.0243 0.868396 59.3773 1.2772 59.6235C1.68601 59.8697 2.1542 59.9997 2.63141 59.9997H27.3568C27.8298 60.0001 28.2941 59.8721 28.7001 59.6295C29.1062 59.3869 29.4388 59.0387 29.6626 58.622C29.8916 58.2042 30.0007 57.7314 29.9781 57.2556C29.9555 56.7797 29.802 56.3194 29.5345 55.9252ZM11.1256 43.0199C11.5403 42.423 11.762 41.7133 11.7609 40.9864V28.3173H18.2288V40.9869C18.2279 41.7135 18.4494 42.4229 18.8636 43.0199L19.0064 43.2242H10.9832C11.068 43.1032 11.1227 43.028 11.1256 43.0199ZM28.4054 57.9439C28.3049 58.1342 28.154 58.2932 27.9693 58.4036C27.7845 58.5141 27.573 58.5716 27.3578 58.5701H2.63284C2.4147 58.5717 2.20037 58.5129 2.01361 58.4002C1.82684 58.2875 1.67493 58.1252 1.5747 57.9315C1.47284 57.7454 1.42453 57.5347 1.43512 57.3227C1.44571 57.1108 1.51479 56.906 1.6347 56.731C3.37811 54.1499 7.86926 47.6929 9.98745 44.6518H19.9946L28.3507 56.7243C28.4707 56.903 28.5393 57.1113 28.549 57.3264C28.5586 57.5415 28.509 57.7551 28.4054 57.9439Z" fill="#971F1A"/>
<path d="M32.5523 2.59886C32.5651 2.081 32.419 1.57164 32.1337 1.13929C31.8483 0.706933 31.4375 0.372313 30.9563 0.180426C30.4751 -0.0114603 29.9467 -0.0514113 29.4422 0.0659458C28.9376 0.183303 28.4811 0.45234 28.134 0.836878L23.4495 6.01949C22.9662 5.57894 22.3297 5.34478 21.6761 5.36699C21.0225 5.3892 20.4034 5.66603 19.9511 6.13839C19.4987 6.61074 19.249 7.24119 19.255 7.89517C19.2611 8.54915 19.5226 9.17485 19.9837 9.6387L20.1899 9.84442L16.6407 13.3927C15.9471 14.0862 15.354 14.8734 14.8787 15.7314L14.4234 16.5538C14.327 16.7295 14.2779 16.9272 14.2809 17.1276C14.2838 17.3279 14.3388 17.5241 14.4403 17.6969C14.5418 17.8697 14.6864 18.0132 14.86 18.1133C15.0336 18.2134 15.2302 18.2668 15.4306 18.2681C15.6275 18.2677 15.8211 18.217 15.993 18.121L16.8164 17.6657C17.674 17.1903 18.4609 16.5973 19.1541 15.9037L22.7024 12.355L22.9086 12.5612C23.372 13.0244 23.9984 13.2877 24.6536 13.2947C25.3088 13.3017 25.9407 13.0518 26.4139 12.5985C26.8871 12.1453 27.164 11.5248 27.1853 10.8699C27.2066 10.215 26.9705 9.57786 26.5278 9.09487L31.7137 4.41799C31.9708 4.18849 32.1779 3.90856 32.3221 3.59561C32.4664 3.28266 32.5448 2.94338 32.5523 2.59886ZM18.145 14.8975C17.549 15.4936 16.8728 16.0036 16.1359 16.4128C16.5451 15.6758 17.0551 14.9994 17.6512 14.4032L21.1999 10.8549L21.6947 11.3488L18.145 14.8975ZM25.4496 11.555C25.2435 11.7517 24.9695 11.8614 24.6846 11.8614C24.3997 11.8614 24.1257 11.7517 23.9196 11.555L20.9937 8.62913C20.8931 8.52877 20.8134 8.40956 20.7589 8.27832C20.7045 8.14709 20.6765 8.00641 20.6765 7.86434C20.6765 7.72226 20.7045 7.58158 20.7589 7.45035C20.8134 7.31911 20.8931 7.1999 20.9937 7.09954C21.1997 6.90251 21.4737 6.79254 21.7587 6.79254C22.0438 6.79254 22.3178 6.90251 22.5238 7.09954L25.4496 10.0254C25.5501 10.1258 25.6299 10.2451 25.6843 10.3764C25.7387 10.5076 25.7667 10.6483 25.7667 10.7904C25.7667 10.9325 25.7387 11.0732 25.6843 11.2045C25.6299 11.3358 25.5501 11.4545 25.4496 11.555ZM30.7565 3.35651L25.5253 8.08006L24.4681 7.02287L29.1922 1.79216C29.2925 1.68018 29.4148 1.58998 29.5514 1.52715C29.6881 1.46433 29.8361 1.43021 29.9865 1.4269C30.1363 1.42359 30.2853 1.45061 30.4244 1.50634C30.5635 1.56207 30.6899 1.64536 30.796 1.7512C30.9023 1.85739 30.9859 1.98409 31.0416 2.12359C31.0973 2.26309 31.1241 2.41248 31.1203 2.56265C31.1165 2.71283 31.0821 2.86066 31.0193 2.99714C30.9565 3.13361 30.8666 3.25589 30.7551 3.35651H30.7565Z" fill="#971F1A"/>
<path d="M14.9948 25.3863C14.6787 25.3855 14.3661 25.3205 14.0759 25.1952C13.7857 25.07 13.524 24.8871 13.3066 24.6577C13.0803 24.4173 12.9059 24.133 12.7942 23.8223C12.6825 23.5116 12.636 23.1813 12.6575 22.8519C12.7752 21.825 13.2056 20.8592 13.8904 20.0851C14.0214 19.9172 14.1889 19.7813 14.3803 19.6879C14.5717 19.5945 14.7818 19.5459 14.9948 19.5459C15.2077 19.5459 15.4179 19.5945 15.6092 19.6879C15.8006 19.7813 15.9681 19.9172 16.0991 20.0851C16.7843 20.8599 17.2147 21.8266 17.332 22.8542C17.3532 23.1831 17.3066 23.5128 17.195 23.8229C17.0834 24.1329 16.9093 24.4168 16.6834 24.6567C16.4661 24.8864 16.2043 25.0695 15.914 25.1949C15.6237 25.3203 15.311 25.3854 14.9948 25.3863ZM14.9948 20.9899C14.508 21.5343 14.1915 22.2095 14.0843 22.9319C14.0741 23.0671 14.092 23.203 14.1367 23.3311C14.1815 23.4592 14.2521 23.5766 14.3443 23.6762C14.4293 23.7625 14.5306 23.831 14.6423 23.8778C14.754 23.9245 14.8739 23.9486 14.995 23.9486C15.1161 23.9486 15.236 23.9245 15.3477 23.8778C15.4595 23.831 15.5608 23.7625 15.6457 23.6762C15.7377 23.5766 15.8083 23.4591 15.8529 23.331C15.8976 23.203 15.9154 23.0671 15.9053 22.9319C15.7984 22.2094 15.4818 21.5341 14.9948 20.9899Z" fill="#971F1A"/>
<path d="M8.77496 56.4679C9.2418 56.4679 9.62024 56.0895 9.62024 55.6226C9.62024 55.1558 9.2418 54.7773 8.77496 54.7773C8.30813 54.7773 7.92969 55.1558 7.92969 55.6226C7.92969 56.0895 8.30813 56.4679 8.77496 56.4679Z" fill="#971F1A"/>
<path d="M13.8681 50.4761C14.5117 50.4761 15.0334 49.9544 15.0334 49.3108C15.0334 48.6672 14.5117 48.1455 13.8681 48.1455C13.2246 48.1455 12.7029 48.6672 12.7029 49.3108C12.7029 49.9544 13.2246 50.4761 13.8681 50.4761Z" fill="#971F1A"/>
<path d="M20.4256 55.1997C20.7922 55.1997 21.0894 54.9025 21.0894 54.5359C21.0894 54.1693 20.7922 53.8721 20.4256 53.8721C20.059 53.8721 19.7617 54.1693 19.7617 54.5359C19.7617 54.9025 20.059 55.1997 20.4256 55.1997Z" fill="#971F1A"/>
<path d="M14.3695 33.452C14.6694 33.452 14.9124 33.2089 14.9124 32.9091C14.9124 32.6093 14.6694 32.3662 14.3695 32.3662C14.0697 32.3662 13.8267 32.6093 13.8267 32.9091C13.8267 33.2089 14.0697 33.452 14.3695 33.452Z" fill="#971F1A"/>
<path d="M16.8454 41.6171C17.283 41.6171 17.6378 41.2623 17.6378 40.8246C17.6378 40.387 17.283 40.0322 16.8454 40.0322C16.4078 40.0322 16.053 40.387 16.053 40.8246C16.053 41.2623 16.4078 41.6171 16.8454 41.6171Z" fill="#971F1A"/>
<path d="M32.1094 38.008C32.5973 38.008 32.9928 37.6125 32.9928 37.1246C32.9928 36.6367 32.5973 36.2412 32.1094 36.2412C31.6215 36.2412 31.226 36.6367 31.226 37.1246C31.226 37.6125 31.6215 38.008 32.1094 38.008Z" fill="#971F1A"/>
<path d="M32.2304 27.8102C32.4897 27.8102 32.7 27.6 32.7 27.3406C32.7 27.0813 32.4897 26.8711 32.2304 26.8711C31.9711 26.8711 31.7609 27.0813 31.7609 27.3406C31.7609 27.6 31.9711 27.8102 32.2304 27.8102Z" fill="#971F1A"/>
<path d="M29.5578 22.5772C29.7698 22.5772 29.9417 22.4054 29.9417 22.1934C29.9417 21.9814 29.7698 21.8096 29.5578 21.8096C29.3459 21.8096 29.174 21.9814 29.174 22.1934C29.174 22.4054 29.3459 22.5772 29.5578 22.5772Z" fill="#971F1A"/>
<path d="M30.2188 32.4372C30.5838 32.4372 30.8798 32.1413 30.8798 31.7762C30.8798 31.4112 30.5838 31.1152 30.2188 31.1152C29.8537 31.1152 29.5578 31.4112 29.5578 31.7762C29.5578 32.1413 29.8537 32.4372 30.2188 32.4372Z" fill="#971F1A"/>
</svg>
