<svg width="60" height="60" viewBox="0 0 60 60" fill="none" xmlns="http://www.w3.org/2000/svg">
<path d="M30 0C24.0666 0 18.2664 1.75947 13.3329 5.05591C8.39943 8.35235 4.55426 13.0377 2.28363 18.5195C0.0129984 24.0013 -0.581101 30.0333 0.576455 35.8527C1.73401 41.6721 4.59123 47.0176 8.78681 51.2132C12.9824 55.4088 18.3279 58.266 24.1473 59.4235C29.9667 60.5811 35.9987 59.987 41.4805 57.7164C46.9623 55.4457 51.6476 51.6006 54.9441 46.6671C58.2405 41.7336 60 35.9334 60 30C59.991 22.0462 56.8275 14.4208 51.2033 8.79668C45.5792 3.17253 37.9538 0.00895118 30 0ZM30 58.571C24.3492 58.571 18.8253 56.8953 14.1268 53.7559C9.42832 50.6165 5.7663 46.1543 3.60383 40.9336C1.44136 35.713 0.875558 29.9683 1.97798 24.4261C3.0804 18.8838 5.80152 13.793 9.79725 9.79724C13.793 5.80151 18.8838 3.08038 24.4261 1.97796C29.9683 0.875544 35.713 1.44135 40.9337 3.60382C46.1543 5.76629 50.6165 9.42831 53.7559 14.1268C56.8954 18.8253 58.571 24.3492 58.571 30C58.5624 37.5749 55.5495 44.837 50.1933 50.1933C44.837 55.5495 37.5749 58.5624 30 58.571Z" fill="#971F1A"/>
<path d="M50.3905 14.795C50.246 14.6014 50.0616 14.4411 49.8497 14.3252C49.6378 14.2092 49.4034 14.1402 49.1625 14.1229C48.9235 14.1048 48.6834 14.1388 48.4588 14.2225C48.2343 14.3062 48.0305 14.4377 47.8617 14.6078L29.9556 32.5134C29.9451 32.5229 29.9356 32.5334 29.9256 32.5434L19.2826 43.1888C19.2826 43.1912 19.2768 43.1917 19.2749 43.194C19.273 43.1964 19.2716 43.2002 19.2687 43.2026L14.6131 47.8582C14.4434 48.0287 14.3124 48.2337 14.2289 48.4593C14.1454 48.6849 14.1114 48.9259 14.1292 49.1657C14.147 49.4056 14.2162 49.6389 14.3321 49.8497C14.448 50.0605 14.6078 50.2439 14.8008 50.3875C19.2023 53.6656 24.5447 55.4345 30.0328 55.4309C30.5618 55.4309 31.0915 55.415 31.6218 55.3832C37.9498 54.9481 43.8903 52.1767 48.2895 47.6071C52.6887 43.0376 55.2326 36.9962 55.4272 30.6562C55.5933 24.9512 53.8175 19.3589 50.3905 14.795ZM43.6467 33.6389C43.6439 35.5093 43.2581 37.3592 42.513 39.0747C41.7679 40.7902 40.6794 42.335 39.3145 43.6137C36.8071 45.961 33.5052 47.2737 30.0707 47.2888C26.6361 47.3039 23.3228 46.0203 20.7949 43.6951L30.8339 33.6556C31.4532 33.4265 32.0648 33.1926 32.6716 32.9602C37.2667 31.1978 41.2455 29.684 43.4957 31.6703C43.5931 32.322 43.6436 32.9799 43.6467 33.6389ZM33.298 31.1906L40.058 24.4315C41.453 25.9434 42.4824 27.7551 43.067 29.7273C40.4724 28.6547 36.9976 29.7921 33.298 31.1906ZM53.9982 30.619C53.8852 35.0173 52.5655 39.2998 50.1832 42.9988C47.801 46.6978 44.4479 49.6708 40.4903 51.593C36.5328 53.5153 32.123 54.3128 27.7429 53.8984C23.3627 53.484 19.1808 51.8737 15.6539 49.2434C15.6243 49.2217 15.5999 49.1939 15.5822 49.1618C15.5645 49.1297 15.554 49.0942 15.5515 49.0576C15.5487 49.0231 15.5535 48.9884 15.5655 48.9559C15.5775 48.9234 15.5965 48.8939 15.621 48.8695L19.7832 44.7078C22.292 47.0402 25.5243 48.4422 28.9415 48.6804C29.2994 48.7051 29.6557 48.7174 30.0104 48.717C33.8295 48.7282 37.5077 47.2755 40.2885 44.6578C42.1023 42.9647 43.47 40.8501 44.2702 38.5015C45.0703 36.1529 45.2783 33.6431 44.8756 31.1949C44.4043 28.284 43.0792 25.5786 41.0683 23.4217L48.872 15.6181C48.894 15.5955 48.9204 15.5775 48.9495 15.5653C48.9786 15.5531 49.0099 15.5469 49.0415 15.5471H49.0606C49.0969 15.5497 49.1323 15.5601 49.1642 15.5777C49.1961 15.5953 49.2238 15.6197 49.2454 15.649C52.4799 19.9565 54.1557 25.2347 53.9982 30.619Z" fill="#971F1A"/>
<path d="M45.6188 12.3173C45.7873 12.1485 45.9178 11.9456 46.0015 11.7223C46.0853 11.499 46.1204 11.2604 46.1045 11.0224C46.0885 10.7844 46.022 10.5526 45.9092 10.3424C45.7965 10.1322 45.6401 9.94857 45.4506 9.8037C41.0254 6.38951 35.5892 4.54616 30 4.56459C23.2563 4.57203 16.7909 7.25426 12.0224 12.0228C7.25387 16.7913 4.57164 23.2567 4.5642 30.0004C4.54726 35.5897 6.39062 41.0258 9.80379 45.452C9.94922 45.6418 10.1335 45.7983 10.3443 45.9112C10.555 46.024 10.7875 46.0906 11.026 46.1064C11.0627 46.1064 11.0994 46.1098 11.1361 46.1098C11.5795 46.1097 12.0047 45.9336 12.3183 45.6201L45.6188 12.3173ZM17.2988 38.6167C16.7731 37.2975 16.4619 35.9026 16.3771 34.485C16.3671 34.3259 16.369 34.164 16.3652 34.003C17.5356 34.8467 18.8938 35.3929 20.3225 35.5944L17.2988 38.6167ZM16.4366 32.2182C16.6825 29.8618 17.5373 27.6099 18.9171 25.6839C20.2968 23.7579 22.154 22.224 24.306 21.2332C24.9728 20.9235 25.5371 20.4297 25.9324 19.8099C26.3277 19.1901 26.5376 18.4702 26.5371 17.735V13.1813C26.5373 13.0576 26.5865 12.9389 26.674 12.8514C26.7615 12.7639 26.8802 12.7147 27.0039 12.7145H32.9961C33.1199 12.7147 33.2386 12.7639 33.3261 12.8514C33.4136 12.9389 33.4628 13.0576 33.4629 13.1813V17.735C33.4655 18.3439 33.6119 18.9435 33.8903 19.4849C34.1687 20.0264 34.5711 20.4944 35.0648 20.8507L21.6324 34.2831C19.704 34.2645 17.8517 33.5284 16.4366 32.2182ZM11.3057 44.6098C11.2813 44.6345 11.2518 44.6535 11.2193 44.6656C11.1868 44.6777 11.1521 44.6826 11.1175 44.6799C11.0821 44.678 11.0475 44.6686 11.0161 44.6521C10.9847 44.6357 10.9572 44.6126 10.9355 44.5846C7.71451 40.4068 5.97566 35.2757 5.99318 30.0004C6.00012 23.6355 8.53163 17.5333 13.0323 13.0327C17.5329 8.53202 23.6352 6.0005 30 5.99357C35.2746 5.97587 40.405 7.71514 44.5813 10.9369C44.6093 10.9585 44.6324 10.9859 44.6488 11.0172C44.6652 11.0485 44.6747 11.083 44.6766 11.1184C44.6796 11.1534 44.6749 11.1886 44.6627 11.2215C44.6505 11.2545 44.6312 11.2843 44.6061 11.3089L36.0894 19.8256C35.7252 19.6114 35.4232 19.3059 35.2132 18.9392C35.0032 18.5726 34.8925 18.1575 34.8919 17.735V13.1813C34.8913 12.6787 34.6913 12.1969 34.336 11.8415C33.9806 11.4861 33.4987 11.2862 32.9961 11.2856H27.0039C26.5013 11.2862 26.0195 11.4861 25.6641 11.8415C25.3087 12.1969 25.1088 12.6787 25.1082 13.1813V17.735C25.109 18.1969 24.9778 18.6494 24.7299 19.0392C24.482 19.4289 24.1279 19.7396 23.7092 19.9347C21.2733 21.0548 19.18 22.804 17.6448 25.002C16.1096 27.2001 15.1879 29.7676 14.9748 32.4402C14.9131 33.1495 14.9042 33.8625 14.9481 34.5732C15.0547 36.3464 15.4809 38.0858 16.2061 39.7075L11.3057 44.6098Z" fill="#971F1A"/>
<path d="M22.2 26.4844C21.805 26.4843 21.4188 26.6013 21.0903 26.8207C20.7618 27.0401 20.5057 27.352 20.3545 27.717C20.2033 28.0819 20.1636 28.4835 20.2407 28.871C20.3177 29.2584 20.5078 29.6143 20.7871 29.8937C21.0664 30.1731 21.4223 30.3633 21.8098 30.4404C22.1972 30.5175 22.5988 30.478 22.9638 30.3269C23.3287 30.1757 23.6407 29.9197 23.8602 29.5913C24.0797 29.2628 24.1968 28.8766 24.1968 28.4816C24.1959 27.9523 23.9853 27.4448 23.611 27.0705C23.2368 26.6961 22.7294 26.4854 22.2 26.4844ZM22.2 29.0499C22.0876 29.05 21.9777 29.0167 21.8842 28.9543C21.7907 28.892 21.7178 28.8032 21.6747 28.6994C21.6316 28.5956 21.6203 28.4813 21.6422 28.371C21.664 28.2608 21.7181 28.1595 21.7976 28.08C21.877 28.0004 21.9783 27.9463 22.0885 27.9243C22.1988 27.9023 22.3131 27.9136 22.4169 27.9566C22.5208 27.9996 22.6096 28.0724 22.672 28.1659C22.7345 28.2593 22.7678 28.3692 22.7678 28.4816C22.7677 28.6322 22.7079 28.7766 22.6014 28.8831C22.495 28.9897 22.3506 29.0496 22.2 29.0499Z" fill="#971F1A"/>
<path d="M36.1884 35.6924C35.5962 35.6924 35.0172 35.868 34.5247 36.1971C34.0322 36.5261 33.6484 36.9938 33.4217 37.541C33.1951 38.0882 33.1358 38.6904 33.2513 39.2713C33.3669 39.8522 33.6521 40.3858 34.0709 40.8046C34.4897 41.2234 35.0233 41.5086 35.6042 41.6242C36.1851 41.7397 36.7873 41.6804 37.3345 41.4538C37.8817 41.2271 38.3494 40.8433 38.6784 40.3508C39.0075 39.8583 39.1831 39.2793 39.1831 38.687C39.1815 37.8933 38.8654 37.1326 38.3042 36.5713C37.7429 36.0101 36.9822 35.694 36.1884 35.6924ZM36.1884 40.2527C35.8788 40.2527 35.5761 40.1609 35.3186 39.9889C35.0611 39.8168 34.8604 39.5723 34.7419 39.2862C34.6234 39.0001 34.5924 38.6853 34.6529 38.3816C34.7133 38.0779 34.8624 37.7989 35.0813 37.5799C35.3003 37.361 35.5793 37.2119 35.883 37.1514C36.1867 37.091 36.5015 37.122 36.7876 37.2405C37.0737 37.359 37.3182 37.5597 37.4903 37.8172C37.6623 38.0747 37.7541 38.3774 37.7541 38.687C37.7536 39.1021 37.5885 39.5001 37.295 39.7936C37.0015 40.0871 36.6035 40.2522 36.1884 40.2527Z" fill="#971F1A"/>
</svg>
