<svg width="61" height="60" viewBox="0 0 61 60" fill="none" xmlns="http://www.w3.org/2000/svg">
<path d="M51.4921 34.2309C51.3799 34.1912 51.2827 34.1178 51.2138 34.0207C51.145 33.9236 51.1078 33.8076 51.1075 33.6886V26.716C51.1059 26.429 51.026 26.1479 50.8762 25.9031C52.9469 23.4684 54.5781 20.7805 55.3286 17.8935C55.331 17.8843 55.3315 17.8747 55.3339 17.8651C56.0542 17.6744 56.703 17.2773 57.2005 16.7226C57.698 16.1679 58.0225 15.4799 58.134 14.7432C58.2456 14.0065 58.1393 13.2533 57.8283 12.5762C57.5172 11.8991 57.015 11.3277 56.3835 10.9324C55.7519 10.537 55.0185 10.3349 54.2736 10.351C53.5287 10.3671 52.8047 10.6006 52.1908 11.0228C51.5768 11.445 51.0997 12.0375 50.8181 12.7273C50.5366 13.4172 50.4629 14.1743 50.606 14.9055C42.9758 16.2348 36.2085 24.4295 32.3085 30.1982C34.0874 22.8882 36.5167 8.11131 29.4812 0.754139C29.2512 0.515633 28.9755 0.325927 28.6706 0.196354C28.3656 0.0667812 28.0377 0 27.7064 0C27.3751 0 27.0472 0.0667812 26.7422 0.196354C26.4373 0.325927 26.1616 0.515633 25.9316 0.754139C18.8961 8.11131 21.323 22.8877 23.1019 30.1977C18.848 23.9026 11.1788 14.7118 2.69859 14.7118C2.62936 14.7118 2.55917 14.7118 2.49042 14.7118C2.10661 14.7194 1.72951 14.8139 1.38745 14.9881C1.04539 15.1624 0.747267 15.4119 0.51547 15.7179C0.283672 16.0239 0.124228 16.3785 0.0491137 16.755C-0.0260009 17.1314 -0.0148333 17.52 0.0817778 17.8916C2.27167 26.3256 11.9601 33.0838 18.2644 36.6895C13.149 36.0645 5.2356 36.0391 1.33177 40.8813C1.09897 41.1706 0.932787 41.5076 0.845038 41.8685C0.757289 42.2292 0.750134 42.605 0.824082 42.9688C0.894356 43.3273 1.0428 43.6659 1.25886 43.9605C1.47491 44.2551 1.75326 44.4984 2.07408 44.6731C7.20818 47.4616 14.8625 45.9712 19.512 44.6251C17.9673 46.3078 16.5461 48.7722 17.1355 51.8529C17.2487 52.432 17.5592 52.9539 18.0143 53.3296C18.4694 53.7052 19.0407 53.9112 19.6307 53.9125H19.6485C22.6019 53.9125 24.5826 50.9462 26.1744 48.5616C26.3143 48.3525 26.4514 48.1481 26.5874 47.9477C26.5677 50.8943 27.0095 56.7457 30.6768 58.4716C30.8499 58.5531 31.0483 58.5624 31.2282 58.4975C31.4082 58.4327 31.555 58.2991 31.6364 58.126C31.7178 57.9529 31.7272 57.7545 31.6623 57.5746C31.5975 57.3946 31.4638 57.2478 31.2908 57.1664C28.3066 55.762 28.0023 50.3755 28.0355 47.7813C29.5028 49.9073 32.3706 53.912 35.7648 53.9125C35.7802 53.9125 35.7951 53.9125 35.8104 53.9096C37.0084 55.778 38.657 57.315 40.6046 58.3793C42.5522 59.4436 44.7362 60.0009 46.9556 60C47.2546 60 47.5553 59.9902 47.8575 59.9707C50.8982 59.7663 53.7761 58.5225 56.0084 56.4479C58.2407 54.3733 59.6916 51.594 60.1178 48.5765C60.5439 45.5589 59.9193 42.4865 58.3488 39.8749C56.7782 37.2632 54.3573 35.2711 51.4921 34.2328V34.2309ZM56.8998 40.252C52.4209 39.7794 49.3998 41.7991 46.4724 43.7674C43.2474 45.9361 40.1878 47.9779 35.1369 46.978C35.1369 46.8909 35.1302 46.8044 35.1302 46.7174C35.1338 44.2899 35.882 41.922 37.2738 39.9332C38.6656 37.9443 40.6339 36.4303 42.9133 35.5953C43.3036 35.4533 43.641 35.195 43.88 34.8552C44.1189 34.5155 44.248 34.1107 44.2498 33.6953V26.716C44.2498 26.677 44.2653 26.6395 44.2929 26.6118C44.3205 26.5842 44.3579 26.5686 44.3969 26.5684H49.52C49.5591 26.5686 49.5966 26.5842 49.6242 26.6118C49.6519 26.6395 49.6675 26.6769 49.6676 26.716V33.69C49.6686 34.1052 49.7972 34.51 50.0359 34.8497C50.2746 35.1893 50.6119 35.4475 51.0022 35.5891C53.4245 36.4577 55.4958 38.0954 56.8998 40.252ZM38.433 36.5573C37.9902 36.5972 37.558 36.6415 37.1484 36.6915C38.858 35.7136 40.8172 34.4992 42.8075 33.0857V33.6953C42.8064 33.8148 42.7686 33.931 42.6993 34.0284C42.6301 34.1257 42.5326 34.1994 42.42 34.2396C40.9651 34.7716 39.6154 35.5563 38.433 36.5573ZM54.3551 11.805C54.8249 11.805 55.2842 11.9444 55.6748 12.2054C56.0654 12.4664 56.3699 12.8374 56.5497 13.2715C56.7295 13.7055 56.7765 14.1831 56.6849 14.6439C56.5932 15.1047 56.367 15.528 56.0348 15.8602C55.7026 16.1924 55.2793 16.4187 54.8185 16.5103C54.3577 16.602 53.8801 16.555 53.446 16.3752C53.012 16.1954 52.641 15.8909 52.3799 15.5003C52.1189 15.1096 51.9796 14.6503 51.9796 14.1805C51.9802 13.5507 52.2307 12.9469 52.6761 12.5015C53.1214 12.0562 53.7252 11.8057 54.3551 11.805ZM29.0749 46.7505C28.8922 46.4605 28.6413 46.2197 28.344 46.049C28.0467 45.8784 27.7122 45.7832 27.3696 45.7717H27.3658C27.0252 45.7822 26.6924 45.8757 26.3963 46.0442C26.1001 46.2127 25.8497 46.4511 25.6667 46.7385C25.4408 47.064 25.2105 47.4087 24.9749 47.7616C23.5004 49.9698 21.8302 52.4731 19.6475 52.4731H19.636C19.3804 52.4732 19.1326 52.3847 18.9349 52.2228C18.7372 52.0608 18.6016 51.8353 18.5514 51.5847C17.9995 48.7001 19.674 46.4087 21.1759 44.9948C21.3496 44.8295 21.4699 44.6161 21.5213 44.3819C21.5727 44.1477 21.5529 43.9035 21.4645 43.6807C21.376 43.4579 21.223 43.2666 21.025 43.1314C20.827 42.9963 20.5931 42.9234 20.3533 42.9222C20.231 42.9222 20.1095 42.9407 19.9927 42.977C15.7139 44.3082 7.78126 46.1352 2.76205 43.4097C2.62713 43.3354 2.51026 43.2322 2.41977 43.1076C2.32927 42.9829 2.26738 42.8398 2.2385 42.6885C2.20621 42.5319 2.20885 42.3701 2.24625 42.2146C2.28364 42.0592 2.35486 41.9138 2.45484 41.789C6.24232 37.0876 14.6408 37.5785 19.311 38.2915C19.5897 38.3331 19.8741 38.2756 20.1146 38.1288C20.3552 37.9821 20.5365 37.7555 20.627 37.4887C20.7175 37.2218 20.7113 36.9317 20.6096 36.6689C20.5079 36.4062 20.3172 36.1875 20.0706 36.0511C15.236 33.3934 3.74666 26.2694 1.47744 17.531C1.43509 17.3696 1.43013 17.2006 1.46296 17.037C1.49579 16.8733 1.56553 16.7193 1.66687 16.5868C1.76613 16.4548 1.89421 16.3472 2.04134 16.2722C2.18848 16.1972 2.35078 16.1568 2.5159 16.1541H2.69426C11.363 16.1541 19.5485 27.3372 22.6797 32.1708C22.8359 32.4094 23.0717 32.5848 23.3452 32.6655C23.6187 32.7462 23.912 32.7271 24.1727 32.6115C24.4333 32.4959 24.6444 32.2915 24.7682 32.0346C24.892 31.7777 24.9205 31.4852 24.8485 31.2093C23.1528 24.7939 19.9653 9.07958 26.974 1.75029C27.1698 1.55909 27.4327 1.45206 27.7064 1.45206C27.9801 1.45206 28.243 1.55909 28.4388 1.75029C35.447 9.0791 32.2595 24.7934 30.5638 31.2098C30.4918 31.4857 30.5203 31.7782 30.6441 32.0351C30.7679 32.2919 30.979 32.4964 31.2397 32.612C31.5003 32.7276 31.7936 32.7467 32.0671 32.666C32.3406 32.5852 32.5765 32.4099 32.7326 32.1713C35.6768 27.6266 43.1018 17.4791 51.1729 16.2848C51.4695 16.7326 51.8573 17.1127 52.3109 17.4003C52.7644 17.6879 53.2736 17.8766 53.8051 17.9541C52.9318 20.6184 51.5018 23.0664 49.6099 25.1357C49.5796 25.1357 49.5508 25.1266 49.52 25.1266H44.3969C43.9755 25.1272 43.5715 25.295 43.2736 25.593C42.9756 25.8911 42.808 26.2951 42.8075 26.7165V31.2775C40.4262 33.0303 37.9324 34.6247 35.3422 36.0506C35.096 36.1872 34.9056 36.4059 34.8041 36.6685C34.7026 36.9311 34.6966 37.221 34.787 37.4876C34.8774 37.7542 35.0586 37.9807 35.2989 38.1274C35.5391 38.2741 35.8233 38.3318 36.1018 38.2905C36.3249 38.2568 36.559 38.2237 36.7984 38.1915C35.1659 40.1273 34.1239 42.4915 33.7964 45.0025C33.4688 47.5136 33.8695 50.0659 34.9508 52.3558C32.5004 51.7154 30.2268 48.4231 29.0749 46.7505ZM58.7901 47.3453C58.611 50.226 57.3964 52.9449 55.3703 55.0006C53.3441 57.0562 50.6431 58.31 47.7652 58.5308C46.1448 58.6458 44.5182 58.4231 42.9882 57.8769C41.4583 57.3308 40.0585 56.4729 38.8773 55.3577C36.9353 53.5326 35.6626 51.1081 35.2633 48.4731C36.0665 48.6153 36.8804 48.6883 37.696 48.6914C41.7316 48.6914 44.5412 46.802 47.2767 44.9621C50.3325 42.9073 53.2296 40.9717 57.7661 41.8371C58.5407 43.5656 58.8917 45.4539 58.7901 47.3453Z" fill="#971F1A"/>
<path d="M39.9349 41.8418C39.5383 41.8418 39.1505 41.9594 38.8207 42.1798C38.4909 42.4002 38.2339 42.7134 38.0822 43.0799C37.9304 43.4464 37.8908 43.8496 37.9682 44.2386C38.0457 44.6277 38.2368 44.985 38.5173 45.2654C38.7978 45.5458 39.1552 45.7367 39.5443 45.8139C39.9333 45.8912 40.3366 45.8514 40.703 45.6994C41.0694 45.5475 41.3825 45.2903 41.6027 44.9605C41.8229 44.6306 41.9404 44.2428 41.9402 43.8461C41.9393 43.3146 41.7277 42.8052 41.3518 42.4295C40.9759 42.0538 40.4664 41.8424 39.9349 41.8418ZM39.9349 44.4101C39.8236 44.4101 39.7148 44.3771 39.6222 44.3152C39.5297 44.2534 39.4575 44.1656 39.4149 44.0627C39.3722 43.9599 39.361 43.8468 39.3827 43.7376C39.4043 43.6284 39.4578 43.5281 39.5365 43.4493C39.6151 43.3706 39.7153 43.3169 39.8245 43.295C39.9336 43.2732 40.0468 43.2842 40.1497 43.3267C40.2526 43.3691 40.3406 43.4411 40.4025 43.5336C40.4645 43.6261 40.4977 43.7348 40.4979 43.8461C40.4979 43.9955 40.4386 44.1388 40.3331 44.2445C40.2275 44.3503 40.0843 44.4098 39.9349 44.4101Z" fill="#971F1A"/>
<path d="M44.2282 50.5684C43.8674 50.5684 43.5148 50.6753 43.2148 50.8758C42.9149 51.0762 42.6811 51.3611 42.543 51.6944C42.405 52.0277 42.3688 52.3944 42.4392 52.7482C42.5096 53.1021 42.6833 53.4271 42.9384 53.6822C43.1935 53.9373 43.5185 54.111 43.8724 54.1814C44.2262 54.2517 44.5929 54.2156 44.9262 54.0776C45.2595 53.9395 45.5444 53.7057 45.7448 53.4058C45.9453 53.1058 46.0522 52.7531 46.0522 52.3924C46.0515 51.9089 45.8591 51.4454 45.5171 51.1034C45.1752 50.7615 44.7117 50.5691 44.2282 50.5684ZM44.2282 52.7736C44.1527 52.7736 44.0789 52.7512 44.0161 52.7093C43.9533 52.6673 43.9044 52.6077 43.8755 52.5379C43.8466 52.4681 43.8391 52.3913 43.8538 52.3173C43.8686 52.2432 43.905 52.1752 43.9585 52.1218C44.0119 52.0685 44.0799 52.0321 44.154 52.0175C44.2281 52.0028 44.3049 52.0104 44.3746 52.0394C44.4444 52.0683 44.5039 52.1173 44.5458 52.1802C44.5877 52.243 44.61 52.3169 44.6099 52.3924C44.6098 52.4935 44.5695 52.5905 44.498 52.662C44.4264 52.7335 44.3294 52.7736 44.2282 52.7736Z" fill="#971F1A"/>
<path d="M53.5113 45.7793C52.9384 45.7793 52.3784 45.9492 51.9021 46.2674C51.4257 46.5857 51.0545 47.0381 50.8352 47.5673C50.616 48.0966 50.5586 48.679 50.6703 49.2408C50.782 49.8027 51.0579 50.3188 51.4629 50.724C51.868 51.1291 52.3841 51.405 52.9459 51.5168C53.5078 51.6286 54.0902 51.5713 54.6195 51.3522C55.1488 51.133 55.6012 50.7618 55.9195 50.2855C56.2379 49.8093 56.4078 49.2493 56.4079 48.6764C56.4072 47.9084 56.1018 47.172 55.5587 46.6289C55.0157 46.0857 54.2794 45.7802 53.5113 45.7793ZM53.5113 50.1302C53.2237 50.1302 52.9425 50.0449 52.7033 49.8851C52.4641 49.7253 52.2777 49.4981 52.1676 49.2324C52.0576 48.9666 52.0288 48.6741 52.085 48.392C52.1411 48.1099 52.2797 47.8508 52.4831 47.6474C52.6866 47.444 52.9457 47.3055 53.2279 47.2495C53.51 47.1934 53.8025 47.2223 54.0682 47.3324C54.3339 47.4426 54.561 47.6291 54.7208 47.8683C54.8805 48.1075 54.9657 48.3887 54.9656 48.6764C54.9651 49.0619 54.8117 49.4315 54.5391 49.704C54.2664 49.9766 53.8968 50.1299 53.5113 50.1302Z" fill="#971F1A"/>
<path d="M47.8305 22.4759C48.2674 22.4759 48.6944 22.3463 49.0576 22.1037C49.4208 21.861 49.7039 21.516 49.871 21.1125C50.0382 20.7089 50.082 20.2648 49.9967 19.8364C49.9115 19.4079 49.7012 19.0144 49.3923 18.7055C49.0834 18.3966 48.6898 18.1863 48.2614 18.101C47.833 18.0158 47.3889 18.0596 46.9853 18.2267C46.5817 18.3939 46.2368 18.677 45.9941 19.0402C45.7514 19.4034 45.6219 19.8304 45.6219 20.2672C45.6227 20.8528 45.8556 21.4141 46.2696 21.8281C46.6837 22.2422 47.245 22.4751 47.8305 22.4759ZM47.8305 19.5009C47.9821 19.5009 48.1303 19.5458 48.2563 19.63C48.3823 19.7143 48.4805 19.8339 48.5385 19.974C48.5965 20.114 48.6117 20.2681 48.5821 20.4167C48.5526 20.5654 48.4796 20.7019 48.3724 20.8091C48.2652 20.9163 48.1287 20.9893 47.98 21.0189C47.8314 21.0484 47.6773 21.0332 47.5373 20.9752C47.3972 20.9172 47.2775 20.819 47.1933 20.693C47.1091 20.567 47.0642 20.4188 47.0642 20.2672C47.0649 20.0642 47.1459 19.8697 47.2895 19.7262C47.433 19.5826 47.6275 19.5017 47.8305 19.5009Z" fill="#971F1A"/>
</svg>
