<svg width="52" height="66" viewBox="0 0 52 66" fill="none" xmlns="http://www.w3.org/2000/svg">
<path d="M26.0005 4.40039C14.4706 4.40039 5.09705 13.774 5.09705 25.3039C5.09705 36.8338 14.4706 46.2074 26.0005 46.2074C37.5305 46.2074 46.904 36.8338 46.904 25.3039C46.904 13.774 37.5305 4.40039 26.0005 4.40039ZM26.0005 44.007C15.6918 44.007 7.29741 35.6126 7.29741 25.3039C7.29741 14.9952 15.6918 6.60076 26.0005 6.60076C36.3092 6.60076 44.7036 14.9952 44.7036 25.3039C44.7036 35.6126 36.3092 44.007 26.0005 44.007Z" fill="#A40005"/>
<path d="M26.0005 12.1016C18.7173 12.1016 12.7983 18.0205 12.7983 25.3038C12.7983 32.587 18.7173 38.506 26.0005 38.506C33.2837 38.506 39.2027 32.587 39.2027 25.3038C39.2027 18.0205 33.2837 12.1016 26.0005 12.1016ZM26.0005 36.3056C19.9385 36.3056 14.9986 31.3658 14.9986 25.3038C14.9986 19.2418 19.9385 14.3019 26.0005 14.3019C32.0625 14.3019 37.0023 19.2418 37.0023 25.3038C37.0023 31.3658 32.0625 36.3056 26.0005 36.3056Z" fill="#A40005"/>
<path d="M27.0993 17.6031C27.0993 16.998 26.6042 16.5029 25.9991 16.5029C25.394 16.5029 24.8989 16.998 24.8989 17.6031C24.8989 21.2447 21.9394 24.2042 18.2978 24.2042C17.6927 24.2042 17.1976 24.6993 17.1976 25.3044C17.1976 25.9095 17.6927 26.4046 18.2978 26.4046C21.9394 26.4046 24.8989 29.3641 24.8989 33.0057C24.8989 33.6108 25.394 34.1059 25.9991 34.1059C26.6042 34.1059 27.0993 33.6108 27.0993 33.0057C27.0993 29.3641 30.0588 26.4046 33.7004 26.4046C34.3055 26.4046 34.8006 25.9095 34.8006 25.3044C34.8006 24.6993 34.3055 24.2042 33.7004 24.2042C30.0588 24.2042 27.0993 21.2447 27.0993 17.6031ZM25.9991 28.748C25.196 27.3067 23.9968 26.1075 22.5555 25.3044C23.9968 24.5013 25.196 23.3021 25.9991 21.8608C26.8022 23.3021 28.0014 24.5013 29.4427 25.3044C28.0014 26.1075 26.8022 27.3067 25.9991 28.748Z" fill="#A40005"/>
<path d="M40.5775 45.9767C47.0575 41.3889 51.3042 33.8416 51.3042 25.3042C51.3042 11.3539 39.9503 0 26 0C12.0497 0 0.695801 11.3539 0.695801 25.3042C0.695801 33.8306 4.94251 41.3889 11.4226 45.9767L5.19555 58.9368C5.00852 59.3109 5.06353 59.762 5.32757 60.092C5.59162 60.4221 6.02069 60.5761 6.42776 60.4771L15.5373 58.4527L19.5309 65.4499C19.729 65.791 20.092 66 20.4881 66H20.5321C20.9392 65.978 21.3132 65.736 21.4783 65.3619L25.978 55.5373L30.4778 65.3619C30.6538 65.736 31.0169 65.989 31.4239 66H31.4679C31.864 66 32.2271 65.791 32.4251 65.4499L36.4188 58.4527L45.5283 60.4771C45.9353 60.5651 46.3644 60.4221 46.6285 60.092C46.8925 59.762 46.9365 59.3109 46.7605 58.9368L40.5334 45.9767H40.5775ZM20.3891 62.5014L17.0555 56.6594C16.8135 56.2414 16.3404 56.0323 15.8673 56.1314L8.17705 57.8366L13.3039 47.1649C16.4064 48.9802 19.938 50.1464 23.7006 50.4874L24.8008 52.8968L20.4001 62.4904L20.3891 62.5014ZM2.89617 25.3042C2.89617 12.5641 13.2599 2.20037 26 2.20037C38.7401 2.20037 49.1039 12.5641 49.1039 25.3042C49.1039 38.0443 38.7401 48.4081 26 48.4081C13.2599 48.4081 2.89617 38.0443 2.89617 25.3042ZM36.1437 56.1314C35.6816 56.0323 35.1866 56.2414 34.9555 56.6594L31.622 62.5014L26.1651 50.5974C30.7418 50.5754 35.0215 49.3212 38.7181 47.1649L43.845 57.8366L36.1547 56.1314H36.1437Z" fill="#A40005"/>
</svg>
