<svg width="44" height="46" viewBox="0 0 44 46" fill="none" xmlns="http://www.w3.org/2000/svg">
<path d="M10.1843 3.29304C8.10498 3.28715 6.07779 3.9432 4.39621 5.16621C2.71463 6.38921 1.46595 8.11569 0.830968 10.0957C0.793861 10.2107 0.784478 10.3329 0.803585 10.4522C0.822691 10.5716 0.869746 10.6847 0.940909 10.7824C1.01207 10.8801 1.10533 10.9596 1.21306 11.0144C1.3208 11.0692 1.43996 11.0977 1.56083 11.0977H10.3644L12.7097 13.4429L9.942 15.3826H1.62983C1.50683 15.3824 1.38559 15.4118 1.27635 15.4683C1.16711 15.5249 1.07307 15.6068 1.00218 15.7073C0.931282 15.8079 0.885613 15.924 0.869025 16.0458C0.852437 16.1677 0.865416 16.2918 0.906867 16.4076C1.36157 17.7018 2.08269 18.8863 3.02365 19.8845C3.96462 20.8827 5.1045 21.6725 6.36968 22.2027C7.63486 22.733 8.99719 22.9919 10.3687 22.9629C11.7402 22.9339 13.0903 22.6175 14.3319 22.0341L34.3656 45.6045C34.4596 45.7153 34.5832 45.7971 34.7219 45.8404C34.8606 45.8837 35.0088 45.8867 35.1491 45.849L41.5002 44.1432C41.6404 44.1057 41.767 44.0291 41.8654 43.9224C41.9638 43.8158 42.0299 43.6834 42.056 43.5406L43.193 37.3046C43.2163 37.1764 43.2066 37.0443 43.1648 36.9209C43.1229 36.7975 43.0503 36.6868 42.9538 36.5992L19.7231 15.4876C20.0885 14.039 20.1179 12.526 19.8089 11.0643C19.4998 9.60263 18.8607 8.23097 17.9402 7.05422C17.0197 5.87748 15.8423 4.92681 14.4981 4.27492C13.1538 3.62302 11.6782 3.28717 10.1843 3.29304ZM2.79209 16.9159H10.1843C10.3417 16.9159 10.4954 16.8675 10.6243 16.7771L14.3373 14.1705C14.4289 14.1062 14.5054 14.0227 14.5613 13.9257C14.6172 13.8288 14.6512 13.7208 14.661 13.6093C14.6707 13.4978 14.6559 13.3855 14.6176 13.2803C14.5793 13.1752 14.5184 13.0797 14.4393 13.0005L11.2239 9.78515C11.0801 9.64137 10.8851 9.56056 10.6818 9.56052H2.68323C3.48795 7.86838 4.84141 6.49821 6.52356 5.6728C8.2057 4.84739 10.1176 4.61528 11.9484 5.01421C13.7792 5.41315 15.4212 6.41966 16.6074 7.8701C17.7936 9.32054 18.4543 11.1296 18.4821 13.0031C18.5098 14.8767 17.903 16.7045 16.7602 18.1894C15.6175 19.6744 14.006 20.7291 12.1878 21.182C10.3696 21.635 8.45171 21.4596 6.74586 20.6844C5.04001 19.9091 3.64656 18.5796 2.79209 16.9121V16.9159ZM41.6083 37.4479L40.6346 42.7885L35.2204 44.2452L15.6973 21.2698C16.208 20.9233 16.6849 20.5295 17.1218 20.0937L20.2237 23.3007C20.2936 23.3737 20.3772 23.4322 20.4697 23.4729C20.5623 23.5135 20.662 23.5354 20.763 23.5374C20.8641 23.5393 20.9645 23.5213 21.0586 23.4842C21.1526 23.4472 21.2384 23.392 21.3111 23.3217C21.3837 23.2514 21.4417 23.1674 21.4818 23.0746C21.5218 22.9818 21.5431 22.882 21.5444 22.781C21.5458 22.6799 21.5271 22.5796 21.4895 22.4857C21.4519 22.3919 21.3962 22.3064 21.3254 22.2342L18.1185 18.9184C18.5423 18.3444 18.9022 17.7259 19.1918 17.0738L41.6083 37.4479Z" fill="#971F1A"/>
<path d="M33.758 37.2954C33.5139 37.8974 33.4946 38.5673 33.7037 39.1824C33.9128 39.7975 34.3363 40.3168 34.8968 40.6454C35.4573 40.9739 36.1174 41.0897 36.7562 40.9716C37.3951 40.8535 37.9701 40.5094 38.3761 40.0022C38.7821 39.495 38.992 38.8586 38.9674 38.2094C38.9428 37.5601 38.6853 36.9415 38.242 36.4665C37.7988 35.9915 37.1994 35.6919 36.5534 35.6225C35.9074 35.5532 35.258 35.7186 34.724 36.0886L23.5185 24.5013C23.3771 24.3551 23.1834 24.2711 22.98 24.2677C22.7766 24.2643 22.5802 24.3419 22.434 24.4833C22.2878 24.6247 22.2038 24.8184 22.2004 25.0218C22.197 25.2251 22.2746 25.4215 22.416 25.5677L33.758 37.2954ZM37.4143 38.302C37.4141 38.5315 37.3459 38.7559 37.2183 38.9467C37.0906 39.1374 36.9093 39.2861 36.6972 39.3738C36.4851 39.4616 36.2517 39.4844 36.0266 39.4396C35.8015 39.3947 35.5947 39.2841 35.4325 39.1217C35.2702 38.9594 35.1598 38.7525 35.115 38.5274C35.0703 38.3023 35.0934 38.0689 35.1812 37.8569C35.2691 37.6448 35.4179 37.4636 35.6087 37.3361C35.7996 37.2086 36.024 37.1405 36.2535 37.1405C36.5614 37.1409 36.8565 37.2634 37.0741 37.4812C37.2917 37.699 37.4141 37.9942 37.4143 38.302Z" fill="#971F1A"/>
<path d="M39.6474 15.3198C39.6474 14.5102 39.4074 13.7188 38.9576 13.0457C38.5078 12.3726 37.8686 11.8479 37.1206 11.5381C36.3727 11.2283 35.5497 11.1473 34.7557 11.3052C33.9617 11.4632 33.2323 11.853 32.6599 12.4254C32.0874 12.9979 31.6976 13.7272 31.5397 14.5212C31.3817 15.3152 31.4628 16.1383 31.7726 16.8862C32.0824 17.6341 32.607 18.2734 33.2801 18.7232C33.9533 19.1729 34.7447 19.413 35.5542 19.413C36.6394 19.4118 37.6799 18.9801 38.4472 18.2128C39.2146 17.4454 39.6462 16.405 39.6474 15.3198ZM32.9943 15.3198C32.9943 14.8135 33.1445 14.3186 33.4257 13.8976C33.707 13.4766 34.1068 13.1485 34.5746 12.9548C35.0423 12.761 35.5571 12.7103 36.0536 12.8091C36.5502 12.9079 37.0063 13.1517 37.3643 13.5097C37.7223 13.8677 37.9661 14.3238 38.0649 14.8204C38.1637 15.3169 38.113 15.8317 37.9192 16.2994C37.7255 16.7672 37.3974 17.167 36.9764 17.4483C36.5554 17.7295 36.0605 17.8797 35.5542 17.8797C34.8755 17.8789 34.2249 17.6089 33.745 17.129C33.2651 16.6491 32.9951 15.9985 32.9943 15.3198Z" fill="#971F1A"/>
<path d="M2.73682 37.1662C2.73682 38.2645 3.06249 39.3381 3.67266 40.2513C4.28282 41.1645 5.15007 41.8762 6.16474 42.2965C7.17941 42.7168 8.29592 42.8267 9.37309 42.6125C10.4503 42.3982 11.4397 41.8693 12.2163 41.0928C12.9929 40.3162 13.5218 39.3267 13.736 38.2496C13.9503 37.1724 13.8403 36.0559 13.42 35.0412C12.9997 34.0265 12.288 33.1593 11.3748 32.5491C10.4616 31.939 9.38803 31.6133 8.28976 31.6133C6.81753 31.6149 5.40606 32.2005 4.36503 33.2415C3.324 34.2825 2.73844 35.694 2.73682 37.1662ZM12.3086 37.1662C12.3086 37.9613 12.0728 38.7384 11.6311 39.3995C11.1894 40.0605 10.5616 40.5757 9.82706 40.8799C9.09253 41.1842 8.28428 41.2637 7.50453 41.1086C6.72477 40.9534 6.00855 40.5705 5.44643 40.0083C4.8843 39.446 4.50153 38.7297 4.34652 37.9499C4.19151 37.1702 4.27122 36.3619 4.57557 35.6275C4.87993 34.893 5.39525 34.2653 6.05637 33.8237C6.7175 33.3821 7.49473 33.1465 8.28976 33.1466C9.35539 33.1478 10.377 33.5717 11.1304 34.3253C11.8839 35.0789 12.3076 36.1006 12.3086 37.1662Z" fill="#971F1A"/>
<path d="M29.8496 2.40733C29.8496 1.9312 29.7084 1.46577 29.4439 1.06989C29.1793 0.674005 28.8034 0.365452 28.3635 0.183248C27.9236 0.00104303 27.4396 -0.04663 26.9726 0.0462572C26.5056 0.139144 26.0767 0.36842 25.74 0.70509C25.4033 1.04176 25.1741 1.4707 25.0812 1.93768C24.9883 2.40466 25.036 2.88869 25.2182 3.32857C25.4004 3.76845 25.7089 4.14442 26.1048 4.40894C26.5007 4.67346 26.9661 4.81465 27.4422 4.81465C28.0805 4.81404 28.6925 4.56022 29.1438 4.10889C29.5951 3.65756 29.849 3.0456 29.8496 2.40733ZM26.5682 2.40733C26.5682 2.23447 26.6195 2.06549 26.7155 1.92176C26.8116 1.77803 26.9481 1.66601 27.1078 1.59986C27.2675 1.53371 27.4432 1.5164 27.6127 1.55012C27.7823 1.58385 27.938 1.66709 28.0602 1.78932C28.1825 1.91155 28.2657 2.06728 28.2994 2.23682C28.3332 2.40636 28.3159 2.58209 28.2497 2.74179C28.1836 2.90149 28.0715 3.03799 27.9278 3.13403C27.7841 3.23006 27.6151 3.28132 27.4422 3.28132C27.2106 3.28092 26.9885 3.18871 26.8247 3.02489C26.6609 2.86107 26.5686 2.639 26.5682 2.40733Z" fill="#971F1A"/>
<path d="M18.3663 43.5929C18.3663 44.069 18.5075 44.5344 18.772 44.9303C19.0365 45.3262 19.4125 45.6347 19.8524 45.8169C20.2922 45.9992 20.7763 46.0468 21.2432 45.9539C21.7102 45.8611 22.1392 45.6318 22.4758 45.2951C22.8125 44.9584 23.0418 44.5295 23.1347 44.0625C23.2276 43.5955 23.1799 43.1115 22.9977 42.6716C22.8155 42.2317 22.5069 41.8558 22.111 41.5913C21.7152 41.3267 21.2497 41.1855 20.7736 41.1855C20.1354 41.1864 19.5235 41.4402 19.0723 41.8915C18.621 42.3428 18.3671 42.9547 18.3663 43.5929ZM21.6476 43.5929C21.6476 43.7657 21.5963 43.9347 21.5003 44.0784C21.4043 44.2222 21.2678 44.3342 21.1081 44.4003C20.9484 44.4665 20.7726 44.4838 20.6031 44.4501C20.4335 44.4164 20.2778 44.3331 20.1556 44.2109C20.0334 44.0887 19.9501 43.9329 19.9164 43.7634C19.8827 43.5938 19.9 43.4181 19.9661 43.2584C20.0323 43.0987 20.1443 42.9622 20.288 42.8662C20.4318 42.7701 20.6007 42.7189 20.7736 42.7189C21.0053 42.7191 21.2275 42.8112 21.3914 42.9751C21.5552 43.1389 21.6474 43.3611 21.6476 43.5929Z" fill="#971F1A"/>
</svg>
