<svg width="40" height="31" viewBox="0 0 40 31" fill="none" xmlns="http://www.w3.org/2000/svg">
<path d="M36.4706 2.96944C38.6765 5.39591 40 8.04297 40 12.4547C40 20.1753 34.4853 27.0136 26.7647 30.543L24.7794 27.6753C32.0588 23.7047 33.6029 18.6312 34.0441 15.3224C32.9412 15.9841 31.3971 16.2047 29.8529 15.9841C25.8824 15.543 22.7941 12.4547 22.7941 8.26356C22.7941 6.27826 23.6765 4.29297 25 2.74885C26.5441 1.20473 28.3088 0.542968 30.5147 0.542968C32.9412 0.542967 35.1471 1.6459 36.4706 2.96944ZM14.4118 2.96944C16.6176 5.39591 17.9412 8.04297 17.9412 12.4547C17.9412 20.1753 12.4265 27.0136 4.70588 30.543L2.72058 27.6753C10 23.7047 11.5441 18.6312 11.9853 15.3224C10.8823 15.9841 9.33823 16.2047 7.79411 15.9841C3.82352 15.543 0.735289 12.4547 0.735289 8.26356C0.735288 6.27826 1.61764 4.29297 2.94117 2.74885C4.2647 1.20474 6.25 0.54297 8.45588 0.54297C10.8824 0.542969 13.0882 1.64591 14.4118 2.96944Z" fill="#971F1A"/>
</svg>
