<svg width="46" height="46" viewBox="0 0 46 46" fill="none" xmlns="http://www.w3.org/2000/svg">
<path d="M6.35269 42.738L22.8521 45.9851C22.9008 45.9948 22.9506 45.9997 23 45.9997C23.0494 45.9997 23.0992 45.9948 23.1479 45.9851L39.6473 42.738C40.007 42.6672 40.2661 42.3524 40.2661 41.9859V27.7355L44.4543 27.876C44.4629 27.8763 44.4715 27.8763 44.4801 27.8763C44.7609 27.8763 45.0199 27.7229 45.1543 27.4747C45.2928 27.219 45.2745 26.9071 45.1079 26.6694L39.6653 18.9111C39.5458 18.7411 39.3628 18.6265 39.1576 18.594L36.0996 18.1082V6.26667C36.0996 5.84328 35.7563 5.5 35.3329 5.5C34.9095 5.5 34.5663 5.84328 34.5663 6.26667V17.8647L23.1202 16.0465C23.1156 16.0458 23.1112 16.0469 23.1066 16.0462C23.0778 16.0422 23.0488 16.0436 23.0194 16.043C23.0126 16.0428 23.0069 16.039 23 16.039C22.9925 16.039 22.9863 16.0431 22.9789 16.0433C22.9513 16.0441 22.9239 16.0424 22.8967 16.0461C22.8912 16.0469 22.886 16.0456 22.8806 16.0465L11.7905 17.8081V6.26667C11.7905 5.84328 11.4472 5.5 11.0238 5.5C10.6004 5.5 10.2572 5.84328 10.2572 6.26667V18.0517L6.84309 18.594C6.63795 18.6265 6.45489 18.7411 6.33547 18.9111L0.892814 26.6694C0.726228 26.9071 0.707885 27.219 0.846395 27.4747C0.980786 27.7229 1.23984 27.8763 1.5206 27.8763C1.52921 27.8763 1.53782 27.8763 1.54643 27.876L5.73389 27.7355V41.9859C5.73389 42.3524 5.99294 42.6672 6.35269 42.738ZM7.26723 27.6841L18.8002 27.2972C19.0959 27.2871 19.3594 27.1078 19.4774 26.8364L22.2333 20.4936V44.3009L7.26723 41.3555V27.6841ZM38.7328 41.3555L23.7667 44.3009V20.4918L26.5234 26.8364C26.6413 27.1078 26.9048 27.2871 27.2006 27.2972L30.667 27.4135V33.048C30.667 33.4714 31.0103 33.8146 31.4337 33.8146C31.8571 33.8146 32.2004 33.4714 32.2004 33.048V27.4649L33.9456 27.5235V30.8457C33.9456 31.2691 34.2889 31.6123 34.7122 31.6123C35.1356 31.6123 35.4789 31.2691 35.4789 30.8457V27.5749L38.7328 27.6841V41.3555ZM38.5965 20.0577L42.97 26.2921L27.7363 25.7811L24.2601 17.7801L38.5965 20.0577ZM7.40424 20.0577L21.7407 17.7801L18.2645 25.7811L3.03072 26.2921L7.40424 20.0577Z" fill="#971F1A"/>
<path d="M16.1112 15.8249C16.5346 15.8249 16.8779 15.4816 16.8779 15.0582V2.61823C16.8779 2.19484 16.5346 1.85156 16.1112 1.85156C15.6878 1.85156 15.3445 2.19484 15.3445 2.61823V15.0582C15.3445 15.4816 15.6878 15.8249 16.1112 15.8249Z" fill="#971F1A"/>
<path d="M29.4803 2.61823V15.0582C29.4803 15.4816 29.8236 15.8249 30.247 15.8249C30.6704 15.8249 31.0137 15.4816 31.0137 15.0582V2.61823C31.0137 2.19484 30.6704 1.85156 30.247 1.85156C29.8236 1.85156 29.4803 2.19484 29.4803 2.61823Z" fill="#971F1A"/>
<path d="M34.7122 32.0039C34.2888 32.0039 33.9456 32.3472 33.9456 32.7706V33.0483C33.9456 33.4717 34.2888 33.815 34.7122 33.815C35.1356 33.815 35.4789 33.4717 35.4789 33.0483V32.7706C35.4789 32.3472 35.1356 32.0039 34.7122 32.0039Z" fill="#971F1A"/>
<path d="M34.7122 34.1074C34.2888 34.1074 33.9456 34.4507 33.9456 34.8741V36.3966C33.9456 36.82 34.2888 37.1632 34.7122 37.1632C35.1356 37.1632 35.4789 36.82 35.4789 36.3966V34.8741C35.4789 34.4507 35.1356 34.1074 34.7122 34.1074Z" fill="#971F1A"/>
<path d="M23.0001 0C21.6292 0 20.5136 1.11556 20.5136 2.48643V7.25638H18.8571C18.5666 7.25638 18.3012 7.42035 18.1713 7.68014C18.0414 7.93994 18.0695 8.25103 18.244 8.48312L22.3869 14.0029C22.5317 14.1961 22.759 14.3095 23.0001 14.3095C23.2411 14.3095 23.4684 14.1961 23.6132 14.0029L27.7562 8.48312C27.9306 8.25103 27.9587 7.93994 27.8288 7.68014C27.6989 7.42035 27.4335 7.25638 27.143 7.25638H25.4865V2.48643C25.4865 1.11556 24.3709 0 23.0001 0ZM25.6089 8.78971L23.0001 12.2655L20.3912 8.78971H21.2803C21.7037 8.78971 22.047 8.44644 22.047 8.02305V2.48643C22.047 1.96084 22.4745 1.53333 23.0001 1.53333C23.5256 1.53333 23.9531 1.96084 23.9531 2.48643V8.02305C23.9531 8.44644 24.2964 8.78971 24.7198 8.78971H25.6089Z" fill="#971F1A"/>
</svg>
