<svg width="58" height="61" viewBox="0 0 58 61" fill="none" xmlns="http://www.w3.org/2000/svg">
<path d="M48.9553 11.3985C43.504 8.94191 37.1633 7.79785 28.9988 7.79785C20.8343 7.79785 14.4941 8.94191 9.04281 11.3985C6.62823 12.4866 6.27844 13.975 6.41082 15.0325C6.44042 15.2687 9.51852 38.9012 11.2405 41.4357C13.9059 45.3447 23.2015 51.5811 27.075 54.0818C27.6512 54.4427 28.3175 54.6341 28.9974 54.6341C29.6774 54.6341 30.3436 54.4427 30.9199 54.0818C34.7944 51.5822 44.089 45.3458 46.7543 41.4357C48.4807 38.9022 51.5561 15.2698 51.5857 15.0335C51.7197 13.975 51.3699 12.4844 48.9553 11.3985ZM50.2522 14.8651C49.2297 23.0113 46.7484 39.0561 45.6442 40.677C43.115 44.3831 33.9964 50.4941 30.1923 52.9495C29.8333 53.17 29.4203 53.2866 28.999 53.2866C28.5778 53.2866 28.1647 53.17 27.8057 52.9495C24.0017 50.4935 14.881 44.3825 12.3539 40.6764C11.2497 39.0556 8.76675 23.0107 7.74592 14.8646C7.6356 13.9809 8.25768 13.227 9.59547 12.6243C14.8664 10.249 21.0345 9.14317 28.9988 9.14317C36.9631 9.14317 43.1317 10.249 48.4026 12.6249C49.7404 13.2276 50.3625 13.9815 50.2549 14.8651H50.2522Z" fill="#971F1A"/>
<path d="M48.9193 3.40463C35.9299 -0.5255 22.0682 -0.5255 9.0789 3.40463C2.95338 5.35588 -0.519166 10.7619 0.237443 17.1829C2.78387 38.7425 5.15217 42.4147 6.16278 43.9817L6.21659 44.0619C7.07168 45.3932 9.67461 49.4432 21.4575 57.5199C23.4534 58.8873 26.1155 60.457 29.0004 60.457C31.8853 60.457 34.5475 58.8873 36.5439 57.5199C48.3262 49.4448 50.9292 45.3932 51.7848 44.0613L51.8386 43.9817C52.8492 42.4136 55.2175 38.7414 57.7639 17.1829C58.5168 10.7619 55.0442 5.35588 48.9193 3.40463ZM56.4245 17.0252C53.9147 38.2748 51.5814 41.8921 50.7037 43.2536L50.6499 43.3359C49.8314 44.6108 47.3388 48.4901 35.7808 56.4125C33.9447 57.6706 31.5146 59.1144 29.0004 59.1144C26.4863 59.1144 24.0539 57.6706 22.22 56.4125C10.6583 48.4901 8.16569 44.6102 7.34666 43.3354L7.29285 43.2536C6.41462 41.8921 4.08183 38.2748 1.572 17.0252C0.884811 11.1876 3.91717 6.45958 9.48626 4.68537C22.21 0.840637 35.786 0.840637 48.5097 4.68537C54.0794 6.45958 57.1117 11.1876 56.4245 17.0252Z" fill="#971F1A"/>
<path d="M39.2496 38.0335C37.8653 37.5754 36.5522 36.9253 35.3487 36.1022C35.744 35.7138 36.0945 35.2824 36.3938 34.816C36.9621 33.856 37.3139 32.7833 37.4245 31.6731C37.5351 30.5629 37.4019 29.442 37.0341 28.3886C36.0655 25.3374 33.5777 22.7856 30.2037 21.3887C28.4783 20.6976 26.7908 19.9153 25.1485 19.0451C24.7838 18.8298 24.372 18.707 23.949 18.6874C23.5259 18.6677 23.1045 18.752 22.7215 18.9326C22.2856 19.164 21.91 19.4941 21.6246 19.8967C21.3392 20.2992 21.1521 20.763 21.0781 21.2509C20.5003 24.3196 20.636 27.48 21.4747 30.4879C22.6236 34.6691 24.8843 37.1704 28.3832 38.1331C28.9441 38.2876 29.5233 38.3658 30.1052 38.3655C31.6036 38.3446 33.0598 37.8664 34.2789 36.9949C35.6767 37.9904 37.2144 38.7733 38.8417 39.318C39.0118 39.3721 39.1963 39.3564 39.3548 39.2744C39.5133 39.1924 39.6327 39.0509 39.6868 38.8808C39.7409 38.7108 39.7253 38.5262 39.6433 38.3677C39.5613 38.2092 39.4197 38.0898 39.2496 38.0357V38.0335ZM34.2375 35.3004C31.9698 33.5358 30.2682 31.4334 29.6671 30.0106C29.6356 29.9253 29.5871 29.8472 29.5246 29.7812C29.462 29.7152 29.3867 29.6625 29.3033 29.6264C29.2198 29.5903 29.1299 29.5715 29.0389 29.5712C28.948 29.5708 28.8579 29.5889 28.7741 29.6243C28.6904 29.6597 28.6147 29.7118 28.5516 29.7773C28.4885 29.8428 28.4394 29.9205 28.4072 30.0055C28.375 30.0905 28.3603 30.1812 28.3642 30.2721C28.368 30.363 28.3902 30.4521 28.4295 30.5342C29.1575 32.2562 30.9086 34.3667 33.1284 36.1409C32.4855 36.5553 31.7631 36.831 31.0076 36.9504C30.252 37.0697 29.4799 37.0301 28.7405 36.834C25.6947 35.9962 23.7983 33.8657 22.771 30.1295C21.9868 27.3105 21.8612 24.3489 22.404 21.4737C22.4431 21.1971 22.545 20.9331 22.7019 20.7019C22.8588 20.4708 23.0665 20.2786 23.3092 20.1402C23.5001 20.0538 23.7095 20.0163 23.9186 20.0312C24.1276 20.046 24.3297 20.1127 24.5065 20.2252C26.1899 21.1179 27.9195 21.9205 29.6881 22.6296C32.6947 23.8748 34.9048 26.121 35.7512 28.7928C36.0592 29.6592 36.1745 30.5823 36.0892 31.4978C36.0038 32.4134 35.7199 33.2993 35.2572 34.0939C34.97 34.5378 34.6273 34.9432 34.2375 35.3004Z" fill="#971F1A"/>
</svg>
