<svg width="23" height="24" viewBox="0 0 23 24" fill="none" xmlns="http://www.w3.org/2000/svg">
<path d="M22.4305 11.215C22.4305 5.03105 17.3992 0 11.2152 0C5.03125 0 0 5.03105 0 11.215C0 17.399 5.03125 22.4301 11.2152 22.4301C13.5482 22.4301 15.7166 21.7133 17.5131 20.4895L20.9063 23.8828C20.9844 23.9609 21.0867 24 21.1891 24C21.2914 24 21.3938 23.9609 21.4719 23.8828C21.6281 23.7266 21.6281 23.4734 21.4719 23.3172L18.1635 20.0086C20.7599 17.9527 22.4305 14.7763 22.4305 11.215ZM11.2152 21.6301C5.47227 21.6301 0.8 16.958 0.8 11.215C0.8 5.47207 5.47227 0.8 11.2152 0.8C16.9582 0.8 21.6305 5.47207 21.6305 11.215C21.6305 16.958 16.9582 21.6301 11.2152 21.6301Z" fill="#510B08"/>
<path d="M4.80005 10.2148C4.24849 10.2148 3.80005 10.6635 3.80005 11.2148C3.80005 11.7662 4.24849 12.2148 4.80005 12.2148C5.35161 12.2148 5.80005 11.7662 5.80005 11.2148C5.80005 10.6635 5.35161 10.2148 4.80005 10.2148ZM4.80005 11.4148C4.68989 11.4148 4.60005 11.3252 4.60005 11.2148C4.60005 11.1045 4.68989 11.0148 4.80005 11.0148C4.91021 11.0148 5.00005 11.1045 5.00005 11.2148C5.00005 11.3252 4.91021 11.4148 4.80005 11.4148Z" fill="#510B08"/>
<path d="M11.2145 10.2148C10.6629 10.2148 10.2145 10.6635 10.2145 11.2148C10.2145 11.7662 10.6629 12.2148 11.2145 12.2148C11.766 12.2148 12.2145 11.7662 12.2145 11.2148C12.2145 10.6635 11.766 10.2148 11.2145 10.2148ZM11.2145 11.4148C11.1043 11.4148 11.0145 11.3252 11.0145 11.2148C11.0145 11.1045 11.1043 11.0148 11.2145 11.0148C11.3246 11.0148 11.4145 11.1045 11.4145 11.2148C11.4145 11.3252 11.3246 11.4148 11.2145 11.4148Z" fill="#510B08"/>
<path d="M17.6321 10.2148C17.0805 10.2148 16.6321 10.6635 16.6321 11.2148C16.6321 11.7662 17.0805 12.2148 17.6321 12.2148C18.1836 12.2148 18.6321 11.7662 18.6321 11.2148C18.6321 10.6635 18.1836 10.2148 17.6321 10.2148ZM17.6321 11.4148C17.5219 11.4148 17.4321 11.3252 17.4321 11.2148C17.4321 11.1045 17.5219 11.0148 17.6321 11.0148C17.7422 11.0148 17.8321 11.1045 17.8321 11.2148C17.8321 11.3252 17.7422 11.4148 17.6321 11.4148Z" fill="#510B08"/>
</svg>
