<svg width="35" height="26" viewBox="0 0 35 26" fill="none" xmlns="http://www.w3.org/2000/svg">
<path d="M10.3714 25.8464C10.4805 25.9474 10.6209 26 10.7632 26C10.8558 26 10.9492 25.9778 11.0347 25.9319L34.2618 13.5081C34.311 13.4818 34.3546 13.4483 34.3932 13.4103C34.3989 13.4046 34.4025 13.3976 34.408 13.3918C34.448 13.349 34.4797 13.3004 34.505 13.2478C34.5128 13.2317 34.5196 13.2161 34.5259 13.1992C34.5495 13.1359 34.5661 13.0698 34.5661 13.0001C34.5661 12.9304 34.5495 12.8643 34.5259 12.801C34.5196 12.7841 34.5128 12.7685 34.505 12.7524C34.4797 12.6998 34.448 12.6512 34.408 12.6085C34.4025 12.6026 34.3989 12.5956 34.3932 12.59C34.3546 12.5519 34.311 12.5184 34.2618 12.4921L11.0347 0.0683048C10.8172 -0.0484311 10.5511 -0.0127071 10.3714 0.153817C10.1911 0.320905 10.1368 0.583912 10.2358 0.808664L15.6124 13.0001L10.2358 25.1916C10.1368 25.4163 10.1911 25.6793 10.3714 25.8464ZM11.9641 1.87195L31.6916 12.424H16.6175L11.9641 1.87195ZM16.6175 13.5762H31.6916L11.9641 24.1283L16.6175 13.5762Z" fill="#A40005"/>
<path d="M0.577061 7.63459H7.36772C7.68586 7.63459 7.9438 7.37665 7.9438 7.05851C7.9438 6.74037 7.68586 6.48242 7.36772 6.48242H0.577061C0.258921 6.48242 0.000976562 6.74037 0.000976562 7.05851C0.000976562 7.37665 0.258921 7.63459 0.577061 7.63459Z" fill="#A40005"/>
<path d="M7.36745 11.5742H2.50589C2.18775 11.5742 1.92981 11.8322 1.92981 12.1503C1.92981 12.4684 2.18775 12.7264 2.50589 12.7264H7.36745C7.6856 12.7264 7.94354 12.4684 7.94354 12.1503C7.94354 11.8322 7.6856 11.5742 7.36745 11.5742Z" fill="#A40005"/>
<path d="M7.36782 16.668H3.5867C3.26856 16.668 3.01062 16.9259 3.01062 17.2441C3.01062 17.5622 3.26856 17.8201 3.5867 17.8201H7.36782C7.68597 17.8201 7.94391 17.5622 7.94391 17.2441C7.94391 16.9259 7.68597 16.668 7.36782 16.668Z" fill="#A40005"/>
</svg>
