<svg width="26" height="26" viewBox="0 0 26 26" fill="none" xmlns="http://www.w3.org/2000/svg">
<path d="M22.3806 0H18.7309H7.26343H3.6199C3.38945 0 3.19517 0.171502 3.16614 0.400172L0.003617 25.4855C-0.0129079 25.6157 0.0277345 25.7468 0.114379 25.8452C0.201023 25.9435 0.326077 26 0.457383 26H25.5432C25.6745 26 25.7995 25.9435 25.8862 25.8452C25.9728 25.7468 26.0134 25.6157 25.9969 25.4855L22.8344 0.400172C22.8054 0.171502 22.6111 0 22.3806 0ZM18.2722 0.914678C18.2141 3.7755 15.8716 6.08475 13.0003 6.08475C10.1258 6.08475 7.78062 3.7755 7.72211 0.914678H18.2722ZM0.975909 25.0853L4.0232 0.914678H6.81165C6.87096 4.27932 9.62198 6.99943 13.0003 6.99943C16.3755 6.99943 19.1234 4.27932 19.1826 0.914678H21.9773L25.0246 25.0853H0.975909Z" fill="#510B08"/>
</svg>
