<svg width="64" height="40" viewBox="0 0 64 40" fill="none" xmlns="http://www.w3.org/2000/svg">
<path d="M51.2424 6.20253C51.078 6.04247 50.8579 5.95243 50.6284 5.95136H40.1072V0.872122C40.1072 0.640821 40.0153 0.418993 39.8517 0.255438C39.6882 0.0918833 39.4663 0 39.235 0H5.09669C4.86539 0 4.64356 0.0918833 4.48 0.255438C4.31645 0.418993 4.22457 0.640821 4.22457 0.872122C4.22457 1.10342 4.31645 1.32525 4.48 1.4888C4.64356 1.65236 4.86539 1.74424 5.09669 1.74424H38.3629V32.0662H23.9694C23.7311 30.3854 22.8941 28.8472 21.6123 27.7343C20.3305 26.6214 18.69 26.0086 16.9924 26.0086C15.2949 26.0086 13.6544 26.6214 12.3726 27.7343C11.0907 28.8472 10.2537 30.3854 10.0155 32.0662H5.13157C4.90027 32.0662 4.67844 32.1581 4.51489 32.3216C4.35133 32.4852 4.25945 32.707 4.25945 32.9383C4.25945 33.1696 4.35133 33.3914 4.51489 33.555C4.67844 33.7185 4.90027 33.8104 5.13157 33.8104H10.0155C10.2247 35.5181 11.0515 37.0903 12.34 38.2304C13.6284 39.3706 15.2894 40 17.0099 40C18.7303 40 20.3914 39.3706 21.6798 38.2304C22.9682 37.0903 23.795 35.5181 24.0043 33.8104H41.7677C42.006 35.4912 42.843 37.0294 44.1248 38.1423C45.4066 39.2552 47.0471 39.868 48.7446 39.868C50.4422 39.868 52.0827 39.2552 53.3645 38.1423C54.6463 37.0294 55.4833 35.4912 55.7216 33.8104H62.5102C62.6259 33.8123 62.7408 33.7911 62.8483 33.7481C62.9557 33.7051 63.0535 33.6411 63.1359 33.56C63.2184 33.4788 63.2839 33.382 63.3286 33.2753C63.3733 33.1686 63.3963 33.054 63.3963 32.9383V18.7192C63.3968 18.6048 63.3741 18.4914 63.3298 18.3859C63.2854 18.2804 63.2202 18.185 63.1381 18.1053L51.2424 6.20253ZM16.9715 38.2478C15.9197 38.2478 14.8916 37.9358 14.0171 37.3513C13.1427 36.7668 12.4613 35.9361 12.0591 34.9642C11.6569 33.9924 11.552 32.923 11.7577 31.8916C11.9634 30.8601 12.4705 29.9128 13.2147 29.1696C13.9589 28.4263 14.9068 27.9205 15.9386 27.7162C16.9703 27.5118 18.0395 27.6181 19.0109 28.0216C19.9822 28.425 20.812 29.1075 21.3954 29.9827C21.9787 30.8579 22.2893 31.8865 22.288 32.9383C22.2843 34.3465 21.7227 35.6959 20.7263 36.6911C19.7299 37.6862 18.3797 38.2459 16.9715 38.2478ZM48.7446 38.2478C47.6926 38.2492 46.6637 37.9384 45.7884 37.3547C44.913 36.7711 44.2305 35.9408 43.8272 34.9691C43.424 33.9973 43.3181 32.9278 43.523 31.8959C43.728 30.8639 44.2344 29.916 44.9784 29.172C45.7223 28.4281 46.6703 27.9216 47.7022 27.7167C48.7341 27.5118 49.8037 27.6176 50.7754 28.0209C51.7472 28.4242 52.5774 29.1067 53.161 29.982C53.7447 30.8574 54.0555 31.8862 54.0541 32.9383C54.0504 34.3453 53.4899 35.6937 52.4949 36.6886C51.5 37.6835 50.1517 38.2441 48.7446 38.2478ZM61.6521 32.0662H55.7216C55.4833 30.3854 54.6463 28.8472 53.3645 27.7343C52.0827 26.6214 50.4422 26.0086 48.7446 26.0086C47.0471 26.0086 45.4066 26.6214 44.1248 27.7343C42.843 28.8472 42.006 30.3854 41.7677 32.0662H40.1072V7.6956H50.2656L61.6521 19.082V32.0662ZM0.603516 8.23981C0.603516 8.00851 0.6954 7.78668 0.858954 7.62313C1.02251 7.45957 1.24434 7.36769 1.47564 7.36769H16.518C16.7493 7.36769 16.9711 7.45957 17.1347 7.62313C17.2982 7.78668 17.3901 8.00851 17.3901 8.23981C17.3901 8.47111 17.2982 8.69294 17.1347 8.85649C16.9711 9.02005 16.7493 9.11193 16.518 9.11193H1.47564C1.24434 9.11193 1.02251 9.02005 0.858954 8.85649C0.6954 8.69294 0.603516 8.47111 0.603516 8.23981ZM4.53853 16.0331H19.5809C19.8122 16.0331 20.034 16.125 20.1976 16.2885C20.3611 16.4521 20.453 16.6739 20.453 16.9052C20.453 17.1365 20.3611 17.3583 20.1976 17.5219C20.034 17.6855 19.8122 17.7773 19.5809 17.7773H4.53853C4.30723 17.7773 4.0854 17.6855 3.92185 17.5219C3.75829 17.3583 3.66641 17.1365 3.66641 16.9052C3.66641 16.6739 3.75829 16.4521 3.92185 16.2885C4.0854 16.125 4.30723 16.0331 4.53853 16.0331ZM0.603516 24.9218C0.603516 24.6905 0.6954 24.4686 0.858954 24.3051C1.02251 24.1415 1.24434 24.0496 1.47564 24.0496H10.2457C10.477 24.0496 10.6988 24.1415 10.8624 24.3051C11.0259 24.4686 11.1178 24.6905 11.1178 24.9218C11.1178 25.1531 11.0259 25.3749 10.8624 25.5384C10.6988 25.702 10.477 25.7939 10.2457 25.7939H1.47564C1.24434 25.7939 1.02251 25.702 0.858954 25.5384C0.6954 25.3749 0.603516 25.1531 0.603516 24.9218ZM48.3679 18.4122H53.9495C54.1808 18.4122 54.4026 18.5041 54.5662 18.6677C54.7297 18.8312 54.8216 19.0531 54.8216 19.2844C54.8216 19.5157 54.7297 19.7375 54.5662 19.901C54.4026 20.0646 54.1808 20.1565 53.9495 20.1565H48.3679C47.5253 20.1546 46.7179 19.8186 46.1227 19.2222C45.5276 18.6257 45.1934 17.8176 45.1934 16.975V11.5399C45.1934 11.3086 45.2853 11.0868 45.4488 10.9232C45.6124 10.7597 45.8342 10.6678 46.0655 10.6678C46.2968 10.6678 46.5186 10.7597 46.6822 10.9232C46.8457 11.0868 46.9376 11.3086 46.9376 11.5399V16.975C46.9367 17.1634 46.973 17.3501 47.0445 17.5245C47.1159 17.6988 47.2211 17.8573 47.3541 17.9909C47.487 18.1244 47.6449 18.2304 47.8189 18.3027C47.9929 18.375 48.1795 18.4122 48.3679 18.4122Z" fill="#971F1A"/>
</svg>
