<svg width="24" height="25" viewBox="0 0 24 25" fill="none" xmlns="http://www.w3.org/2000/svg">
<path d="M17.773 6.43047C17.773 3.21699 15.1586 0.602539 11.9451 0.602539C8.73164 0.602539 6.11719 3.21699 6.11719 6.43047C6.11719 9.64394 8.73164 12.2584 11.9451 12.2584C15.1586 12.2584 17.773 9.64394 17.773 6.43047ZM6.91719 6.43047C6.91719 3.65801 9.17266 1.40254 11.9451 1.40254C14.7176 1.40254 16.973 3.65801 16.973 6.43047C16.973 9.20293 14.7176 11.4584 11.9451 11.4584C9.17266 11.4584 6.91719 9.20293 6.91719 6.43047Z" fill="white"/>
<path d="M0.164062 24.2027C0.164062 24.4236 0.343164 24.6027 0.564063 24.6027H23.3262C23.5471 24.6027 23.7262 24.4236 23.7262 24.2027C23.7262 18.7686 19.3053 14.3477 13.8711 14.3477H10.0191C4.58496 14.3477 0.164062 18.7686 0.164062 24.2027ZM10.0191 15.1477H13.8711C18.7301 15.1477 22.7074 18.9947 22.9174 23.8027H0.972852C1.18281 18.9947 5.16016 15.1477 10.0191 15.1477Z" fill="white"/>
</svg>
