<svg width="24" height="24" viewBox="0 0 24 24" fill="none" xmlns="http://www.w3.org/2000/svg">
<path d="M17.609 5.82793C17.609 2.61445 14.9945 0 11.7811 0C8.56758 0 5.95312 2.61445 5.95312 5.82793C5.95312 9.0414 8.56758 11.6559 11.7811 11.6559C14.9945 11.6559 17.609 9.0414 17.609 5.82793ZM6.75312 5.82793C6.75312 3.05547 9.00859 0.8 11.7811 0.8C14.5535 0.8 16.809 3.05547 16.809 5.82793C16.809 8.60039 14.5535 10.8559 11.7811 10.8559C9.00859 10.8559 6.75312 8.60039 6.75312 5.82793Z" fill="#510B08"/>
<path d="M0 23.6002C0 23.8211 0.179102 24.0002 0.4 24.0002H23.1621C23.383 24.0002 23.5621 23.8211 23.5621 23.6002C23.5621 18.166 19.1412 13.7451 13.707 13.7451H9.85508C4.4209 13.7451 0 18.166 0 23.6002ZM9.85508 14.5451H13.707C18.566 14.5451 22.5434 18.3922 22.7533 23.2002H0.808789C1.01875 18.3922 4.99609 14.5451 9.85508 14.5451Z" fill="#510B08"/>
</svg>
