<svg width="64" height="64" viewBox="0 0 64 64" fill="none" xmlns="http://www.w3.org/2000/svg">
<path d="M50.0246 40.1165C49.8035 39.7582 49.2165 39.5447 48.3398 39.1102C47.4631 38.6757 43.1406 36.5868 42.3325 36.2971C41.5244 36.0074 40.945 35.8626 40.358 36.7316C39.771 37.6007 38.0709 39.5447 37.5754 40.1165C37.0798 40.6883 36.5462 40.7645 35.6695 40.3376C33.0852 39.3227 30.6946 37.8708 28.6025 36.0455C26.6831 34.3037 25.0359 32.2839 23.7158 30.0534C23.205 29.1843 23.6624 28.7193 24.097 28.2848C24.5315 27.8502 24.9813 27.2785 25.4158 26.7601C25.7788 26.3223 26.0766 25.8344 26.3002 25.3116C26.4189 25.0721 26.4742 24.8062 26.4609 24.5393C26.4475 24.2723 26.3659 24.0133 26.2239 23.7869C26.0028 23.3523 24.2494 19.0984 23.5176 17.3678C22.7857 15.6373 22.0767 15.9041 21.5354 15.8813C20.9942 15.8584 20.4377 15.8813 19.8506 15.8813C19.4071 15.8914 18.9704 15.9928 18.5678 16.179C18.1652 16.3653 17.8052 16.6324 17.5102 16.9638C16.5244 17.8847 15.7434 19.0027 15.218 20.2452C14.6926 21.4877 14.4346 22.8269 14.4608 24.1757C14.4608 28.4296 17.6169 32.5616 18.0515 33.1181C18.486 33.6746 24.2189 42.4341 33.0013 46.1772C34.6376 46.8722 36.3095 47.4804 38.0099 47.9992C39.8072 48.5336 41.7027 48.651 43.5522 48.3423C45.237 48.0907 48.7439 46.2535 49.4834 44.2332C50.2228 42.213 50.2457 40.4824 50.0246 40.1165Z" stroke="#971F1A" stroke-width="3" stroke-linecap="round" stroke-linejoin="round"/>
<path d="M15.8941 57.9406L1.78294 62.1793L6.09025 48.2968C2.45867 42.553 0.908811 35.7366 1.69976 28.9872C2.4907 22.2378 5.57451 15.9645 10.4357 11.2159C16.2005 5.57846 23.9433 2.42188 32.0065 2.42188C40.0696 2.42188 47.8124 5.57846 53.5773 11.2159C56.402 13.9785 58.6465 17.2774 60.1791 20.9191C61.7117 24.5608 62.5016 28.4719 62.5023 32.423C62.503 36.3741 61.7146 40.2855 60.1833 43.9277C58.652 47.57 56.4086 50.8697 53.5849 53.6333C48.674 58.4274 42.3067 61.4501 35.4876 62.2245C28.6684 62.9989 21.7855 61.4809 15.9246 57.9101L15.8941 57.9406Z" stroke="#971F1A" stroke-width="3" stroke-linecap="round" stroke-linejoin="round"/>
</svg>
