<svg width="81" height="81" viewBox="0 0 81 81" fill="none" xmlns="http://www.w3.org/2000/svg">
<path d="M3.9974 77.5837H33.9974V80.917H0.664062V9.25033C0.664062 4.65366 4.40073 0.916992 8.9974 0.916992H45.6641C50.2607 0.916992 53.9974 4.65366 53.9974 9.25033V34.4203C52.8174 34.5903 51.7007 34.9237 50.6641 35.4237V9.25033C50.6641 6.49366 48.4207 4.25033 45.6641 4.25033H8.9974C6.24073 4.25033 3.9974 6.49366 3.9974 9.25033V77.5837ZM23.9974 44.2503H13.9974V47.5837H23.9974V44.2503ZM13.9974 60.917H23.9974V57.5837H13.9974V60.917ZM23.9974 17.5837H13.9974V20.917H23.9974V17.5837ZM40.6641 17.5837H30.6641V20.917H40.6641V17.5837ZM23.9974 30.917H13.9974V34.2503H23.9974V30.917ZM30.6641 34.2503H40.6641V30.917H30.6641V34.2503ZM80.6641 54.2503V80.917H40.6641V54.2503C40.6641 50.5737 43.6541 47.5837 47.3307 47.5837H50.6641V45.917C50.6641 43.1603 52.9074 40.917 55.6641 40.917H65.6641C68.4207 40.917 70.6641 43.1603 70.6641 45.917V47.5837H73.9974C77.6741 47.5837 80.6641 50.5737 80.6641 54.2503ZM53.9974 47.5837H67.3307V45.917C67.3307 45.0003 66.5807 44.2503 65.6641 44.2503H55.6641C54.7474 44.2503 53.9974 45.0003 53.9974 45.917V47.5837ZM43.9974 54.2503V60.917H77.3307V54.2503C77.3307 52.4103 75.8374 50.917 73.9974 50.917H47.3307C45.4907 50.917 43.9974 52.4103 43.9974 54.2503ZM77.3307 77.5837V64.2503H62.3307V70.917H58.9974V64.2503H43.9974V77.5837H77.3307ZM30.6641 47.5837H35.8507C36.5874 46.3237 37.5107 45.2037 38.6041 44.2503H30.6641V47.5837Z" fill="#971F1A"/>
</svg>
